<ttFont>
    <TTGlyph name="A" xMin="38" yMin="-17" xMax="661" yMax="717">
      <contour>
        <pt x="661" y="5" on="1"/>
        <pt x="645" y="-17" on="0"/>
        <pt x="615" y="-17" on="1"/>
        <pt x="607" y="-17" on="0"/>
        <pt x="599" y="-15" on="1"/>
        <pt x="577" y="35" on="0"/>
        <pt x="556" y="218" on="0"/>
        <pt x="551" y="247" on="1"/>
        <pt x="442" y="251" on="0"/>
        <pt x="224" y="251" on="0"/>
        <pt x="138" y="242" on="1"/>
        <pt x="129" y="201" on="0"/>
        <pt x="108" y="38" on="0"/>
        <pt x="103" y="10" on="1"/>
        <pt x="67" y="-19" on="0"/>
        <pt x="38" y="2" on="1"/>
        <pt x="41" y="26" on="0"/>
        <pt x="53" y="130" on="0"/>
        <pt x="62" y="203" on="0"/>
        <pt x="80" y="315" on="0"/>
        <pt x="97" y="396" on="0"/>
        <pt x="127" y="497" on="0"/>
        <pt x="159" y="569" on="0"/>
        <pt x="206" y="643" on="0"/>
        <pt x="233" y="666" on="1"/>
        <pt x="295" y="717" on="0"/>
        <pt x="441" y="717" on="0"/>
        <pt x="538" y="605" on="0"/>
        <pt x="588" y="423" on="0"/>
        <pt x="618" y="239" on="0"/>
        <pt x="646" y="47" on="0"/>
      </contour>
      <contour>
        <pt x="456" y="609" on="0"/>
        <pt x="396" y="664" on="0"/>
        <pt x="308" y="664" on="0"/>
        <pt x="226" y="578" on="0"/>
        <pt x="202" y="514" on="1"/>
        <pt x="159" y="395" on="0"/>
        <pt x="148" y="294" on="1"/>
        <pt x="248" y="305" on="0"/>
        <pt x="450" y="305" on="0"/>
        <pt x="544" y="299" on="1"/>
        <pt x="540" y="314" on="0"/>
        <pt x="518" y="426" on="0"/>
        <pt x="495" y="511" on="0"/>
      </contour>
    </TTGlyph>
    <TTGlyph name="AE" xMin="4" yMin="11" xMax="947" yMax="715">
      <contour>
        <pt x="584" y="345" on="1"/>
        <pt x="584" y="339" on="0"/>
        <pt x="579" y="84" on="1"/>
        <pt x="598" y="85" on="0"/>
        <pt x="907" y="91" on="1"/>
        <pt x="931" y="91" on="0"/>
        <pt x="943" y="68" on="1"/>
        <pt x="947" y="60" on="0"/>
        <pt x="947" y="54" on="1"/>
        <pt x="947" y="38" on="0"/>
        <pt x="923" y="36" on="1"/>
        <pt x="854" y="30" on="0"/>
        <pt x="602" y="29" on="0"/>
        <pt x="560" y="27" on="1"/>
        <pt x="514" y="27" on="0"/>
        <pt x="514" y="80" on="1"/>
        <pt x="517" y="236" on="1"/>
        <pt x="477" y="236" on="0"/>
        <pt x="299" y="224" on="0"/>
        <pt x="228" y="224" on="0"/>
        <pt x="211" y="225" on="1"/>
        <pt x="117" y="104" on="0"/>
        <pt x="67" y="23" on="1"/>
        <pt x="59" y="11" on="0"/>
        <pt x="26" y="11" on="0"/>
        <pt x="4" y="35" on="0"/>
        <pt x="4" y="51" on="0"/>
        <pt x="9" y="58" on="1"/>
        <pt x="67" y="131" on="0"/>
        <pt x="241" y="378" on="0"/>
        <pt x="404" y="594" on="0"/>
        <pt x="485" y="681" on="1"/>
        <pt x="502" y="699" on="0"/>
        <pt x="614" y="699" on="0"/>
        <pt x="907" y="715" on="1"/>
        <pt x="933" y="715" on="0"/>
        <pt x="944" y="692" on="1"/>
        <pt x="947" y="684" on="0"/>
        <pt x="947" y="679" on="1"/>
        <pt x="947" y="664" on="0"/>
        <pt x="923" y="659" on="1"/>
        <pt x="841" y="648" on="0"/>
        <pt x="781" y="647" on="1"/>
        <pt x="593" y="644" on="0"/>
        <pt x="562" y="644" on="1"/>
        <pt x="579" y="544" on="0"/>
        <pt x="583" y="403" on="1"/>
        <pt x="655" y="412" on="0"/>
        <pt x="772" y="412" on="1"/>
        <pt x="854" y="412" on="0"/>
        <pt x="854" y="375" on="1"/>
        <pt x="854" y="352" on="0"/>
        <pt x="830" y="352" on="1"/>
        <pt x="784" y="352" on="0"/>
      </contour>
      <contour>
        <pt x="255" y="281" on="1"/>
        <pt x="518" y="292" on="1"/>
        <pt x="509" y="605" on="1"/>
        <pt x="455" y="544" on="0"/>
        <pt x="266" y="295" on="0"/>
      </contour>
    </TTGlyph>
    <TTGlyph name="Aacute" xMin="38" yMin="-17" xMax="661" yMax="933">
      <contour>
        <pt x="661" y="5" on="1"/>
        <pt x="645" y="-17" on="0"/>
        <pt x="615" y="-17" on="1"/>
        <pt x="607" y="-17" on="0"/>
        <pt x="599" y="-15" on="1"/>
        <pt x="577" y="35" on="0"/>
        <pt x="562" y="162" on="1"/>
        <pt x="556" y="218" on="0"/>
        <pt x="551" y="247" on="1"/>
        <pt x="442" y="251" on="0"/>
        <pt x="224" y="251" on="0"/>
        <pt x="138" y="242" on="1"/>
        <pt x="129" y="201" on="0"/>
        <pt x="108" y="38" on="0"/>
        <pt x="103" y="10" on="1"/>
        <pt x="83" y="-6" on="0"/>
        <pt x="58" y="-6" on="1"/>
        <pt x="49" y="-6" on="0"/>
        <pt x="38" y="2" on="1"/>
        <pt x="41" y="26" on="0"/>
        <pt x="67" y="255" on="0"/>
        <pt x="88" y="356" on="1"/>
        <pt x="137" y="585" on="0"/>
        <pt x="233" y="666" on="1"/>
        <pt x="295" y="717" on="0"/>
        <pt x="372" y="717" on="1"/>
        <pt x="441" y="717" on="0"/>
        <pt x="538" y="605" on="0"/>
        <pt x="588" y="423" on="0"/>
        <pt x="618" y="239" on="0"/>
        <pt x="646" y="47" on="0"/>
      </contour>
      <contour>
        <pt x="308" y="664" on="0"/>
        <pt x="226" y="578" on="0"/>
        <pt x="202" y="514" on="1"/>
        <pt x="159" y="395" on="0"/>
        <pt x="148" y="294" on="1"/>
        <pt x="248" y="305" on="0"/>
        <pt x="450" y="305" on="0"/>
        <pt x="544" y="299" on="1"/>
        <pt x="540" y="314" on="0"/>
        <pt x="518" y="426" on="0"/>
        <pt x="495" y="511" on="0"/>
        <pt x="456" y="609" on="0"/>
        <pt x="396" y="664" on="0"/>
      </contour>
      <contour>
        <pt x="250" y="829" on="0"/>
        <pt x="385" y="914" on="0"/>
        <pt x="413" y="933" on="0"/>
        <pt x="440" y="933" on="0"/>
        <pt x="475" y="922" on="0"/>
        <pt x="475" y="914" on="1"/>
        <pt x="475" y="908" on="0"/>
        <pt x="452" y="892" on="0"/>
        <pt x="316" y="805" on="0"/>
        <pt x="282" y="779" on="1"/>
        <pt x="274" y="773" on="0"/>
        <pt x="248" y="773" on="0"/>
        <pt x="210" y="785" on="0"/>
        <pt x="210" y="793" on="1"/>
        <pt x="210" y="797" on="0"/>
        <pt x="216" y="803" on="1"/>
      </contour>
    </TTGlyph>
    <TTGlyph name="Acircumflex" xMin="38" yMin="-17" xMax="661" yMax="881">
      <contour>
        <pt x="661" y="5" on="1"/>
        <pt x="645" y="-17" on="0"/>
        <pt x="615" y="-17" on="1"/>
        <pt x="607" y="-17" on="0"/>
        <pt x="599" y="-15" on="1"/>
        <pt x="577" y="35" on="0"/>
        <pt x="562" y="162" on="1"/>
        <pt x="556" y="218" on="0"/>
        <pt x="551" y="247" on="1"/>
        <pt x="442" y="251" on="0"/>
        <pt x="224" y="251" on="0"/>
        <pt x="138" y="242" on="1"/>
        <pt x="129" y="201" on="0"/>
        <pt x="108" y="38" on="0"/>
        <pt x="103" y="10" on="1"/>
        <pt x="83" y="-6" on="0"/>
        <pt x="58" y="-6" on="1"/>
        <pt x="49" y="-6" on="0"/>
        <pt x="38" y="2" on="1"/>
        <pt x="41" y="26" on="0"/>
        <pt x="67" y="255" on="0"/>
        <pt x="88" y="356" on="1"/>
        <pt x="137" y="585" on="0"/>
        <pt x="233" y="666" on="1"/>
        <pt x="295" y="717" on="0"/>
        <pt x="372" y="717" on="1"/>
        <pt x="441" y="717" on="0"/>
        <pt x="538" y="605" on="0"/>
        <pt x="588" y="423" on="0"/>
        <pt x="618" y="239" on="0"/>
        <pt x="646" y="47" on="0"/>
      </contour>
      <contour>
        <pt x="308" y="664" on="0"/>
        <pt x="226" y="578" on="0"/>
        <pt x="202" y="514" on="1"/>
        <pt x="159" y="395" on="0"/>
        <pt x="148" y="294" on="1"/>
        <pt x="248" y="305" on="0"/>
        <pt x="450" y="305" on="0"/>
        <pt x="544" y="299" on="1"/>
        <pt x="540" y="314" on="0"/>
        <pt x="518" y="426" on="0"/>
        <pt x="495" y="511" on="0"/>
        <pt x="456" y="609" on="0"/>
        <pt x="396" y="664" on="0"/>
      </contour>
      <contour>
        <pt x="265" y="854" on="0"/>
        <pt x="327" y="881" on="0"/>
        <pt x="400" y="881" on="0"/>
        <pt x="447" y="858" on="0"/>
        <pt x="474" y="830" on="0"/>
        <pt x="508" y="792" on="0"/>
        <pt x="520" y="783" on="1"/>
        <pt x="523" y="780" on="0"/>
        <pt x="523" y="777" on="1"/>
        <pt x="523" y="771" on="0"/>
        <pt x="486" y="760" on="0"/>
        <pt x="448" y="760" on="0"/>
        <pt x="369" y="841" on="0"/>
        <pt x="351" y="849" on="1"/>
        <pt x="339" y="842" on="0"/>
        <pt x="289" y="796" on="0"/>
        <pt x="237" y="771" on="0"/>
        <pt x="179" y="771" on="0"/>
        <pt x="178" y="777" on="1"/>
        <pt x="180" y="781" on="1"/>
        <pt x="186" y="785" on="0"/>
      </contour>
    </TTGlyph>
    <TTGlyph name="Adieresis" xMin="38" yMin="-17" xMax="661" yMax="862">
      <contour>
        <pt x="661" y="5" on="1"/>
        <pt x="645" y="-17" on="0"/>
        <pt x="615" y="-17" on="1"/>
        <pt x="607" y="-17" on="0"/>
        <pt x="599" y="-15" on="1"/>
        <pt x="577" y="35" on="0"/>
        <pt x="562" y="162" on="1"/>
        <pt x="556" y="218" on="0"/>
        <pt x="551" y="247" on="1"/>
        <pt x="442" y="251" on="0"/>
        <pt x="224" y="251" on="0"/>
        <pt x="138" y="242" on="1"/>
        <pt x="129" y="201" on="0"/>
        <pt x="108" y="38" on="0"/>
        <pt x="103" y="10" on="1"/>
        <pt x="83" y="-6" on="0"/>
        <pt x="58" y="-6" on="1"/>
        <pt x="49" y="-6" on="0"/>
        <pt x="38" y="2" on="1"/>
        <pt x="41" y="26" on="0"/>
        <pt x="67" y="255" on="0"/>
        <pt x="88" y="356" on="1"/>
        <pt x="137" y="585" on="0"/>
        <pt x="233" y="666" on="1"/>
        <pt x="295" y="717" on="0"/>
        <pt x="372" y="717" on="1"/>
        <pt x="441" y="717" on="0"/>
        <pt x="538" y="605" on="0"/>
        <pt x="588" y="423" on="0"/>
        <pt x="618" y="239" on="0"/>
        <pt x="646" y="47" on="0"/>
      </contour>
      <contour>
        <pt x="308" y="664" on="0"/>
        <pt x="226" y="578" on="0"/>
        <pt x="202" y="514" on="1"/>
        <pt x="159" y="395" on="0"/>
        <pt x="148" y="294" on="1"/>
        <pt x="248" y="305" on="0"/>
        <pt x="450" y="305" on="0"/>
        <pt x="544" y="299" on="1"/>
        <pt x="540" y="314" on="0"/>
        <pt x="518" y="426" on="0"/>
        <pt x="495" y="511" on="0"/>
        <pt x="456" y="609" on="0"/>
        <pt x="396" y="664" on="0"/>
      </contour>
      <contour>
        <pt x="259" y="861" on="1"/>
        <pt x="272" y="861" on="0"/>
        <pt x="308" y="844" on="0"/>
        <pt x="308" y="831" on="1"/>
        <pt x="308" y="802" on="0"/>
        <pt x="257" y="776" on="0"/>
        <pt x="183" y="776" on="0"/>
        <pt x="183" y="799" on="1"/>
        <pt x="183" y="861" on="0"/>
      </contour>
      <contour>
        <pt x="400" y="826" on="0"/>
        <pt x="449" y="862" on="0"/>
        <pt x="494" y="862" on="0"/>
        <pt x="531" y="841" on="0"/>
        <pt x="531" y="827" on="1"/>
        <pt x="531" y="802" on="0"/>
        <pt x="468" y="776" on="0"/>
        <pt x="445" y="776" on="1"/>
        <pt x="400" y="776" on="0"/>
        <pt x="400" y="798" on="1"/>
      </contour>
    </TTGlyph>
    <TTGlyph name="Agrave" xMin="38" yMin="-17" xMax="661" yMax="922">
      <contour>
        <pt x="661" y="5" on="1"/>
        <pt x="645" y="-17" on="0"/>
        <pt x="615" y="-17" on="1"/>
        <pt x="607" y="-17" on="0"/>
        <pt x="599" y="-15" on="1"/>
        <pt x="577" y="35" on="0"/>
        <pt x="562" y="162" on="1"/>
        <pt x="556" y="218" on="0"/>
        <pt x="551" y="247" on="1"/>
        <pt x="442" y="251" on="0"/>
        <pt x="224" y="251" on="0"/>
        <pt x="138" y="242" on="1"/>
        <pt x="129" y="201" on="0"/>
        <pt x="108" y="38" on="0"/>
        <pt x="103" y="10" on="1"/>
        <pt x="83" y="-6" on="0"/>
        <pt x="58" y="-6" on="1"/>
        <pt x="49" y="-6" on="0"/>
        <pt x="38" y="2" on="1"/>
        <pt x="41" y="26" on="0"/>
        <pt x="67" y="255" on="0"/>
        <pt x="88" y="356" on="1"/>
        <pt x="137" y="585" on="0"/>
        <pt x="233" y="666" on="1"/>
        <pt x="295" y="717" on="0"/>
        <pt x="372" y="717" on="1"/>
        <pt x="441" y="717" on="0"/>
        <pt x="538" y="605" on="0"/>
        <pt x="588" y="423" on="0"/>
        <pt x="618" y="239" on="0"/>
        <pt x="646" y="47" on="0"/>
      </contour>
      <contour>
        <pt x="308" y="664" on="0"/>
        <pt x="226" y="578" on="0"/>
        <pt x="202" y="514" on="1"/>
        <pt x="159" y="395" on="0"/>
        <pt x="148" y="294" on="1"/>
        <pt x="248" y="305" on="0"/>
        <pt x="450" y="305" on="0"/>
        <pt x="544" y="299" on="1"/>
        <pt x="540" y="314" on="0"/>
        <pt x="518" y="426" on="0"/>
        <pt x="495" y="511" on="0"/>
        <pt x="456" y="609" on="0"/>
        <pt x="396" y="664" on="0"/>
      </contour>
      <contour>
        <pt x="479" y="814" on="1"/>
        <pt x="492" y="809" on="0"/>
        <pt x="492" y="800" on="1"/>
        <pt x="492" y="793" on="0"/>
        <pt x="471" y="763" on="0"/>
        <pt x="454" y="763" on="1"/>
        <pt x="448" y="763" on="0"/>
        <pt x="445" y="765" on="1"/>
        <pt x="363" y="794" on="0"/>
        <pt x="262" y="875" on="1"/>
        <pt x="255" y="881" on="0"/>
        <pt x="255" y="893" on="0"/>
        <pt x="260" y="904" on="1"/>
        <pt x="269" y="922" on="0"/>
        <pt x="294" y="922" on="1"/>
        <pt x="301" y="922" on="0"/>
        <pt x="307" y="919" on="1"/>
        <pt x="407" y="840" on="0"/>
      </contour>
    </TTGlyph>
    <TTGlyph name="Aring" xMin="38" yMin="-17" xMax="661" yMax="927">
      <contour>
        <pt x="661" y="5" on="1"/>
        <pt x="645" y="-17" on="0"/>
        <pt x="615" y="-17" on="1"/>
        <pt x="607" y="-17" on="0"/>
        <pt x="599" y="-15" on="1"/>
        <pt x="577" y="35" on="0"/>
        <pt x="562" y="162" on="1"/>
        <pt x="556" y="218" on="0"/>
        <pt x="551" y="247" on="1"/>
        <pt x="442" y="251" on="0"/>
        <pt x="224" y="251" on="0"/>
        <pt x="138" y="242" on="1"/>
        <pt x="129" y="201" on="0"/>
        <pt x="108" y="38" on="0"/>
        <pt x="103" y="10" on="1"/>
        <pt x="83" y="-6" on="0"/>
        <pt x="58" y="-6" on="1"/>
        <pt x="49" y="-6" on="0"/>
        <pt x="38" y="2" on="1"/>
        <pt x="41" y="26" on="0"/>
        <pt x="67" y="255" on="0"/>
        <pt x="88" y="356" on="1"/>
        <pt x="137" y="585" on="0"/>
        <pt x="233" y="666" on="1"/>
        <pt x="295" y="717" on="0"/>
        <pt x="372" y="717" on="1"/>
        <pt x="441" y="717" on="0"/>
        <pt x="538" y="605" on="0"/>
        <pt x="588" y="423" on="0"/>
        <pt x="618" y="239" on="0"/>
        <pt x="646" y="47" on="0"/>
      </contour>
      <contour>
        <pt x="308" y="664" on="0"/>
        <pt x="226" y="578" on="0"/>
        <pt x="202" y="514" on="1"/>
        <pt x="159" y="395" on="0"/>
        <pt x="148" y="294" on="1"/>
        <pt x="248" y="305" on="0"/>
        <pt x="450" y="305" on="0"/>
        <pt x="544" y="299" on="1"/>
        <pt x="540" y="314" on="0"/>
        <pt x="518" y="426" on="0"/>
        <pt x="495" y="511" on="0"/>
        <pt x="456" y="609" on="0"/>
        <pt x="396" y="664" on="0"/>
      </contour>
      <contour>
        <pt x="400" y="927" on="1"/>
        <pt x="429" y="924" on="0"/>
        <pt x="487" y="893" on="0"/>
        <pt x="487" y="869" on="1"/>
        <pt x="487" y="819" on="0"/>
        <pt x="412" y="750" on="0"/>
        <pt x="360" y="750" on="1"/>
        <pt x="328" y="750" on="0"/>
        <pt x="263" y="784" on="0"/>
        <pt x="263" y="809" on="1"/>
        <pt x="263" y="859" on="0"/>
        <pt x="348" y="925" on="0"/>
      </contour>
      <contour>
        <pt x="337" y="807" on="0"/>
        <pt x="357" y="785" on="0"/>
        <pt x="389" y="785" on="0"/>
        <pt x="418" y="829" on="0"/>
        <pt x="418" y="863" on="0"/>
        <pt x="397" y="890" on="0"/>
        <pt x="382" y="892" on="1"/>
        <pt x="337" y="861" on="0"/>
        <pt x="337" y="819" on="1"/>
      </contour>
    </TTGlyph>
    <TTGlyph name="Atilde" xMin="38" yMin="-17" xMax="661" yMax="882">
      <contour>
        <pt x="661" y="5" on="1"/>
        <pt x="645" y="-17" on="0"/>
        <pt x="615" y="-17" on="1"/>
        <pt x="607" y="-17" on="0"/>
        <pt x="599" y="-15" on="1"/>
        <pt x="577" y="35" on="0"/>
        <pt x="562" y="162" on="1"/>
        <pt x="556" y="218" on="0"/>
        <pt x="551" y="247" on="1"/>
        <pt x="442" y="251" on="0"/>
        <pt x="224" y="251" on="0"/>
        <pt x="138" y="242" on="1"/>
        <pt x="129" y="201" on="0"/>
        <pt x="108" y="38" on="0"/>
        <pt x="103" y="10" on="1"/>
        <pt x="83" y="-6" on="0"/>
        <pt x="58" y="-6" on="1"/>
        <pt x="49" y="-6" on="0"/>
        <pt x="38" y="2" on="1"/>
        <pt x="41" y="26" on="0"/>
        <pt x="67" y="255" on="0"/>
        <pt x="88" y="356" on="1"/>
        <pt x="137" y="585" on="0"/>
        <pt x="233" y="666" on="1"/>
        <pt x="295" y="717" on="0"/>
        <pt x="372" y="717" on="1"/>
        <pt x="441" y="717" on="0"/>
        <pt x="538" y="605" on="0"/>
        <pt x="588" y="423" on="0"/>
        <pt x="618" y="239" on="0"/>
        <pt x="646" y="47" on="0"/>
      </contour>
      <contour>
        <pt x="308" y="664" on="0"/>
        <pt x="226" y="578" on="0"/>
        <pt x="202" y="514" on="1"/>
        <pt x="159" y="395" on="0"/>
        <pt x="148" y="294" on="1"/>
        <pt x="248" y="305" on="0"/>
        <pt x="450" y="305" on="0"/>
        <pt x="544" y="299" on="1"/>
        <pt x="540" y="314" on="0"/>
        <pt x="518" y="426" on="0"/>
        <pt x="495" y="511" on="0"/>
        <pt x="456" y="609" on="0"/>
        <pt x="396" y="664" on="0"/>
      </contour>
      <contour>
        <pt x="248" y="779" on="1"/>
        <pt x="237" y="766" on="0"/>
        <pt x="179" y="766" on="0"/>
        <pt x="179" y="779" on="1"/>
        <pt x="179" y="784" on="0"/>
        <pt x="183" y="790" on="1"/>
        <pt x="247" y="866" on="0"/>
        <pt x="303" y="866" on="1"/>
        <pt x="335" y="866" on="0"/>
        <pt x="421" y="814" on="0"/>
        <pt x="441" y="814" on="0"/>
        <pt x="454" y="826" on="0"/>
        <pt x="458" y="832" on="1"/>
        <pt x="466" y="844" on="0"/>
        <pt x="477" y="866" on="1"/>
        <pt x="486" y="882" on="0"/>
        <pt x="515" y="882" on="1"/>
        <pt x="517" y="882" on="0"/>
        <pt x="519" y="882" on="1"/>
        <pt x="547" y="881" on="0"/>
        <pt x="545" y="863" on="1"/>
        <pt x="542" y="854" on="1"/>
        <pt x="498" y="764" on="0"/>
        <pt x="421" y="764" on="1"/>
        <pt x="395" y="764" on="0"/>
        <pt x="312" y="814" on="0"/>
        <pt x="299" y="814" on="1"/>
        <pt x="277" y="814" on="0"/>
      </contour>
    </TTGlyph>
    <TTGlyph name="B" xMin="80" yMin="-11" xMax="653" yMax="711">
      <contour>
        <pt x="88" y="62" on="1"/>
        <pt x="80" y="647" on="1"/>
        <pt x="80" y="711" on="0"/>
        <pt x="339" y="711" on="1"/>
        <pt x="461" y="711" on="0"/>
        <pt x="626" y="619" on="0"/>
        <pt x="626" y="533" on="1"/>
        <pt x="626" y="476" on="0"/>
        <pt x="538" y="374" on="0"/>
        <pt x="483" y="360" on="1"/>
        <pt x="552" y="339" on="0"/>
        <pt x="653" y="259" on="0"/>
        <pt x="653" y="131" on="0"/>
        <pt x="598" y="82" on="1"/>
        <pt x="492" y="-11" on="0"/>
        <pt x="272" y="-11" on="1"/>
        <pt x="88" y="-11" on="0"/>
      </contour>
      <contour>
        <pt x="153" y="357" on="1"/>
        <pt x="215" y="381" on="0"/>
        <pt x="290" y="381" on="1"/>
        <pt x="325" y="381" on="0"/>
        <pt x="360" y="381" on="1"/>
        <pt x="413" y="381" on="0"/>
        <pt x="564" y="476" on="0"/>
        <pt x="564" y="519" on="1"/>
        <pt x="564" y="583" on="0"/>
        <pt x="404" y="658" on="0"/>
        <pt x="210" y="658" on="0"/>
        <pt x="150" y="636" on="1"/>
        <pt x="150" y="618" on="0"/>
        <pt x="150" y="549" on="0"/>
        <pt x="153" y="390" on="0"/>
      </contour>
      <contour>
        <pt x="580" y="195" on="1"/>
        <pt x="580" y="282" on="0"/>
        <pt x="392" y="322" on="1"/>
        <pt x="296" y="294" on="0"/>
        <pt x="210" y="294" on="1"/>
        <pt x="182" y="294" on="0"/>
        <pt x="155" y="297" on="1"/>
        <pt x="158" y="178" on="0"/>
        <pt x="158" y="55" on="1"/>
        <pt x="216" y="42" on="0"/>
        <pt x="335" y="42" on="0"/>
        <pt x="428" y="57" on="0"/>
        <pt x="521" y="89" on="0"/>
        <pt x="580" y="153" on="0"/>
      </contour>
    </TTGlyph>
    <TTGlyph name="C" xMin="48" yMin="-6" xMax="722" yMax="705">
      <contour>
        <pt x="645" y="565" on="1"/>
        <pt x="630" y="551" on="0"/>
        <pt x="608" y="539" on="0"/>
        <pt x="587" y="549" on="0"/>
        <pt x="579" y="555" on="0"/>
        <pt x="556" y="588" on="0"/>
        <pt x="553" y="592" on="1"/>
        <pt x="502" y="655" on="0"/>
        <pt x="341" y="655" on="0"/>
        <pt x="200" y="552" on="0"/>
        <pt x="114" y="384" on="0"/>
        <pt x="114" y="293" on="1"/>
        <pt x="114" y="181" on="0"/>
        <pt x="263" y="39" on="0"/>
        <pt x="510" y="39" on="0"/>
        <pt x="603" y="108" on="1"/>
        <pt x="618" y="119" on="0"/>
        <pt x="653" y="161" on="0"/>
        <pt x="678" y="179" on="0"/>
        <pt x="701" y="177" on="0"/>
        <pt x="722" y="171" on="1"/>
        <pt x="679" y="87" on="0"/>
        <pt x="478" y="-6" on="0"/>
        <pt x="224" y="-6" on="0"/>
        <pt x="48" y="136" on="0"/>
        <pt x="48" y="271" on="1"/>
        <pt x="48" y="355" on="0"/>
        <pt x="104" y="512" on="0"/>
        <pt x="203" y="633" on="0"/>
        <pt x="352" y="705" on="0"/>
        <pt x="439" y="705" on="1"/>
        <pt x="594" y="705" on="0"/>
      </contour>
    </TTGlyph>
    <TTGlyph name="Ccedilla" xMin="48" yMin="-217" xMax="722" yMax="705">
      <contour>
        <pt x="722" y="171" on="1"/>
        <pt x="681" y="90" on="0"/>
        <pt x="488" y="-3" on="0"/>
        <pt x="372" y="-6" on="1"/>
        <pt x="369" y="-12" on="0"/>
        <pt x="349" y="-44" on="0"/>
        <pt x="345" y="-53" on="1"/>
        <pt x="380" y="-53" on="0"/>
        <pt x="436" y="-84" on="0"/>
        <pt x="436" y="-115" on="1"/>
        <pt x="436" y="-165" on="0"/>
        <pt x="337" y="-217" on="0"/>
        <pt x="199" y="-217" on="0"/>
        <pt x="169" y="-168" on="1"/>
        <pt x="169" y="-159" on="0"/>
        <pt x="199" y="-141" on="0"/>
        <pt x="217" y="-141" on="1"/>
        <pt x="224" y="-141" on="0"/>
        <pt x="273" y="-180" on="0"/>
        <pt x="331" y="-180" on="0"/>
        <pt x="368" y="-151" on="0"/>
        <pt x="368" y="-108" on="0"/>
        <pt x="340" y="-83" on="0"/>
        <pt x="323" y="-83" on="1"/>
        <pt x="322" y="-83" on="0"/>
        <pt x="307" y="-85" on="1"/>
        <pt x="273" y="-90" on="0"/>
        <pt x="273" y="-79" on="1"/>
        <pt x="273" y="-40" on="0"/>
        <pt x="313" y="-4" on="1"/>
        <pt x="196" y="7" on="0"/>
        <pt x="48" y="147" on="0"/>
        <pt x="48" y="271" on="1"/>
        <pt x="48" y="355" on="0"/>
        <pt x="104" y="512" on="0"/>
        <pt x="203" y="633" on="0"/>
        <pt x="352" y="705" on="0"/>
        <pt x="439" y="705" on="1"/>
        <pt x="594" y="705" on="0"/>
        <pt x="645" y="565" on="1"/>
        <pt x="630" y="551" on="0"/>
        <pt x="608" y="539" on="0"/>
        <pt x="587" y="549" on="0"/>
        <pt x="579" y="555" on="0"/>
        <pt x="556" y="588" on="0"/>
        <pt x="553" y="592" on="1"/>
        <pt x="502" y="655" on="0"/>
        <pt x="341" y="655" on="0"/>
        <pt x="200" y="552" on="0"/>
        <pt x="114" y="384" on="0"/>
        <pt x="114" y="293" on="1"/>
        <pt x="114" y="181" on="0"/>
        <pt x="263" y="39" on="0"/>
        <pt x="510" y="39" on="0"/>
        <pt x="603" y="108" on="1"/>
        <pt x="618" y="119" on="0"/>
        <pt x="653" y="161" on="0"/>
        <pt x="678" y="179" on="0"/>
        <pt x="701" y="177" on="0"/>
      </contour>
    </TTGlyph>
    <TTGlyph name="D" xMin="77" yMin="-9" xMax="710" yMax="711">
      <contour>
        <pt x="264" y="-6" on="1"/>
        <pt x="181" y="-9" on="1"/>
        <pt x="111" y="-9" on="0"/>
        <pt x="90" y="10" on="1"/>
        <pt x="77" y="20" on="0"/>
        <pt x="77" y="38" on="1"/>
        <pt x="77" y="151" on="0"/>
        <pt x="93" y="518" on="0"/>
        <pt x="93" y="620" on="1"/>
        <pt x="93" y="661" on="0"/>
        <pt x="245" y="711" on="0"/>
        <pt x="332" y="711" on="1"/>
        <pt x="495" y="711" on="0"/>
        <pt x="710" y="527" on="0"/>
        <pt x="710" y="380" on="1"/>
        <pt x="710" y="306" on="0"/>
        <pt x="659" y="180" on="0"/>
        <pt x="573" y="89" on="0"/>
        <pt x="516" y="57" on="1"/>
        <pt x="402" y="-6" on="0"/>
      </contour>
      <contour>
        <pt x="639" y="356" on="1"/>
        <pt x="639" y="485" on="0"/>
        <pt x="464" y="660" on="0"/>
        <pt x="325" y="660" on="1"/>
        <pt x="257" y="660" on="0"/>
        <pt x="163" y="615" on="1"/>
        <pt x="163" y="534" on="0"/>
        <pt x="147" y="211" on="0"/>
        <pt x="147" y="88" on="0"/>
        <pt x="148" y="62" on="1"/>
        <pt x="204" y="51" on="0"/>
        <pt x="268" y="51" on="1"/>
        <pt x="430" y="51" on="0"/>
        <pt x="639" y="209" on="0"/>
      </contour>
    </TTGlyph>
    <TTGlyph name="E" xMin="82" yMin="-8" xMax="602" yMax="718">
      <contour>
        <pt x="333" y="718" on="1"/>
        <pt x="487" y="715" on="1"/>
        <pt x="564" y="715" on="0"/>
        <pt x="593" y="697" on="1"/>
        <pt x="590" y="669" on="0"/>
        <pt x="554" y="651" on="0"/>
        <pt x="520" y="651" on="1"/>
        <pt x="304" y="654" on="1"/>
        <pt x="222" y="654" on="0"/>
        <pt x="166" y="649" on="1"/>
        <pt x="155" y="593" on="0"/>
        <pt x="155" y="488" on="1"/>
        <pt x="156" y="443" on="1"/>
        <pt x="156" y="414" on="0"/>
        <pt x="155" y="381" on="1"/>
        <pt x="201" y="373" on="0"/>
        <pt x="275" y="373" on="1"/>
        <pt x="394" y="374" on="1"/>
        <pt x="462" y="374" on="0"/>
        <pt x="482" y="360" on="0"/>
        <pt x="482" y="352" on="1"/>
        <pt x="482" y="314" on="0"/>
        <pt x="385" y="314" on="1"/>
        <pt x="158" y="321" on="1"/>
        <pt x="157" y="297" on="0"/>
        <pt x="156" y="239" on="1"/>
        <pt x="154" y="118" on="0"/>
        <pt x="147" y="56" on="1"/>
        <pt x="211" y="52" on="0"/>
        <pt x="267" y="52" on="0"/>
        <pt x="327" y="54" on="0"/>
        <pt x="491" y="64" on="0"/>
        <pt x="572" y="64" on="0"/>
        <pt x="602" y="53" on="0"/>
        <pt x="602" y="34" on="1"/>
        <pt x="602" y="22" on="0"/>
        <pt x="589" y="13" on="0"/>
        <pt x="579" y="8" on="0"/>
        <pt x="564" y="5" on="0"/>
        <pt x="553" y="3" on="0"/>
        <pt x="534" y="2" on="0"/>
        <pt x="523" y="1" on="0"/>
        <pt x="514" y="1" on="1"/>
        <pt x="500" y="1" on="1"/>
        <pt x="304" y="-8" on="0"/>
        <pt x="249" y="-8" on="1"/>
        <pt x="84" y="-8" on="0"/>
        <pt x="84" y="38" on="1"/>
        <pt x="82" y="131" on="0"/>
        <pt x="82" y="215" on="1"/>
        <pt x="82" y="492" on="0"/>
        <pt x="100" y="676" on="1"/>
        <pt x="121" y="709" on="0"/>
        <pt x="222" y="714" on="1"/>
        <pt x="285" y="718" on="0"/>
      </contour>
    </TTGlyph>
    <TTGlyph name="Eacute" xMin="82" yMin="-8" xMax="602" yMax="934">
      <contour>
        <pt x="304" y="654" on="1"/>
        <pt x="222" y="654" on="0"/>
        <pt x="166" y="649" on="1"/>
        <pt x="155" y="593" on="0"/>
        <pt x="155" y="488" on="1"/>
        <pt x="156" y="443" on="1"/>
        <pt x="156" y="414" on="0"/>
        <pt x="155" y="381" on="1"/>
        <pt x="201" y="373" on="0"/>
        <pt x="275" y="373" on="1"/>
        <pt x="410" y="374" on="1"/>
        <pt x="482" y="374" on="0"/>
        <pt x="482" y="352" on="1"/>
        <pt x="482" y="314" on="0"/>
        <pt x="385" y="314" on="1"/>
        <pt x="158" y="321" on="1"/>
        <pt x="157" y="297" on="0"/>
        <pt x="154" y="118" on="0"/>
        <pt x="147" y="56" on="1"/>
        <pt x="211" y="52" on="0"/>
        <pt x="297" y="52" on="0"/>
        <pt x="409" y="59" on="1"/>
        <pt x="491" y="64" on="0"/>
        <pt x="572" y="64" on="0"/>
        <pt x="602" y="53" on="0"/>
        <pt x="602" y="22" on="0"/>
        <pt x="594" y="16" on="1"/>
        <pt x="589" y="13" on="0"/>
        <pt x="579" y="8" on="0"/>
        <pt x="564" y="5" on="0"/>
        <pt x="553" y="3" on="0"/>
        <pt x="534" y="2" on="0"/>
        <pt x="523" y="1" on="0"/>
        <pt x="504" y="1" on="0"/>
        <pt x="304" y="-8" on="0"/>
        <pt x="249" y="-8" on="1"/>
        <pt x="84" y="-8" on="0"/>
        <pt x="84" y="38" on="1"/>
        <pt x="82" y="131" on="0"/>
        <pt x="82" y="215" on="1"/>
        <pt x="82" y="492" on="0"/>
        <pt x="100" y="676" on="1"/>
        <pt x="110" y="692" on="0"/>
        <pt x="189" y="718" on="0"/>
        <pt x="333" y="718" on="1"/>
        <pt x="487" y="715" on="1"/>
        <pt x="564" y="715" on="0"/>
        <pt x="593" y="697" on="1"/>
        <pt x="590" y="669" on="0"/>
        <pt x="554" y="651" on="0"/>
        <pt x="520" y="651" on="1"/>
      </contour>
      <contour>
        <pt x="268" y="830" on="0"/>
        <pt x="403" y="915" on="0"/>
        <pt x="431" y="934" on="0"/>
        <pt x="458" y="934" on="0"/>
        <pt x="493" y="923" on="0"/>
        <pt x="493" y="915" on="1"/>
        <pt x="493" y="909" on="0"/>
        <pt x="470" y="893" on="0"/>
        <pt x="334" y="806" on="0"/>
        <pt x="300" y="780" on="1"/>
        <pt x="292" y="774" on="0"/>
        <pt x="266" y="774" on="0"/>
        <pt x="228" y="786" on="0"/>
        <pt x="228" y="794" on="1"/>
        <pt x="228" y="798" on="0"/>
        <pt x="234" y="804" on="1"/>
      </contour>
    </TTGlyph>
    <TTGlyph name="Ecircumflex" xMin="82" yMin="-8" xMax="602" yMax="888">
      <contour>
        <pt x="304" y="654" on="1"/>
        <pt x="222" y="654" on="0"/>
        <pt x="166" y="649" on="1"/>
        <pt x="155" y="593" on="0"/>
        <pt x="155" y="488" on="1"/>
        <pt x="156" y="443" on="1"/>
        <pt x="156" y="414" on="0"/>
        <pt x="155" y="381" on="1"/>
        <pt x="201" y="373" on="0"/>
        <pt x="275" y="373" on="1"/>
        <pt x="410" y="374" on="1"/>
        <pt x="482" y="374" on="0"/>
        <pt x="482" y="352" on="1"/>
        <pt x="482" y="314" on="0"/>
        <pt x="385" y="314" on="1"/>
        <pt x="158" y="321" on="1"/>
        <pt x="157" y="297" on="0"/>
        <pt x="154" y="118" on="0"/>
        <pt x="147" y="56" on="1"/>
        <pt x="211" y="52" on="0"/>
        <pt x="297" y="52" on="0"/>
        <pt x="409" y="59" on="1"/>
        <pt x="491" y="64" on="0"/>
        <pt x="572" y="64" on="0"/>
        <pt x="602" y="53" on="0"/>
        <pt x="602" y="22" on="0"/>
        <pt x="594" y="16" on="1"/>
        <pt x="589" y="13" on="0"/>
        <pt x="579" y="8" on="0"/>
        <pt x="564" y="5" on="0"/>
        <pt x="553" y="3" on="0"/>
        <pt x="534" y="2" on="0"/>
        <pt x="523" y="1" on="0"/>
        <pt x="504" y="1" on="0"/>
        <pt x="304" y="-8" on="0"/>
        <pt x="249" y="-8" on="1"/>
        <pt x="84" y="-8" on="0"/>
        <pt x="84" y="38" on="1"/>
        <pt x="82" y="131" on="0"/>
        <pt x="82" y="215" on="1"/>
        <pt x="82" y="492" on="0"/>
        <pt x="100" y="676" on="1"/>
        <pt x="110" y="692" on="0"/>
        <pt x="189" y="718" on="0"/>
        <pt x="333" y="718" on="1"/>
        <pt x="487" y="715" on="1"/>
        <pt x="564" y="715" on="0"/>
        <pt x="593" y="697" on="1"/>
        <pt x="590" y="669" on="0"/>
        <pt x="554" y="651" on="0"/>
        <pt x="520" y="651" on="1"/>
      </contour>
      <contour>
        <pt x="253" y="861" on="0"/>
        <pt x="315" y="888" on="0"/>
        <pt x="388" y="888" on="0"/>
        <pt x="435" y="865" on="0"/>
        <pt x="462" y="837" on="0"/>
        <pt x="496" y="799" on="0"/>
        <pt x="508" y="790" on="1"/>
        <pt x="511" y="787" on="0"/>
        <pt x="511" y="784" on="1"/>
        <pt x="511" y="778" on="0"/>
        <pt x="474" y="767" on="0"/>
        <pt x="436" y="767" on="0"/>
        <pt x="357" y="848" on="0"/>
        <pt x="339" y="856" on="1"/>
        <pt x="327" y="849" on="0"/>
        <pt x="277" y="803" on="0"/>
        <pt x="225" y="778" on="0"/>
        <pt x="167" y="778" on="0"/>
        <pt x="166" y="784" on="1"/>
        <pt x="168" y="788" on="1"/>
        <pt x="174" y="792" on="0"/>
      </contour>
    </TTGlyph>
    <TTGlyph name="Edieresis" xMin="82" yMin="-8" xMax="602" yMax="864">
      <contour>
        <pt x="304" y="654" on="1"/>
        <pt x="222" y="654" on="0"/>
        <pt x="166" y="649" on="1"/>
        <pt x="155" y="593" on="0"/>
        <pt x="155" y="488" on="1"/>
        <pt x="156" y="443" on="1"/>
        <pt x="156" y="414" on="0"/>
        <pt x="155" y="381" on="1"/>
        <pt x="201" y="373" on="0"/>
        <pt x="275" y="373" on="1"/>
        <pt x="410" y="374" on="1"/>
        <pt x="482" y="374" on="0"/>
        <pt x="482" y="352" on="1"/>
        <pt x="482" y="314" on="0"/>
        <pt x="385" y="314" on="1"/>
        <pt x="158" y="321" on="1"/>
        <pt x="157" y="297" on="0"/>
        <pt x="154" y="118" on="0"/>
        <pt x="147" y="56" on="1"/>
        <pt x="211" y="52" on="0"/>
        <pt x="297" y="52" on="0"/>
        <pt x="409" y="59" on="1"/>
        <pt x="491" y="64" on="0"/>
        <pt x="572" y="64" on="0"/>
        <pt x="602" y="53" on="0"/>
        <pt x="602" y="22" on="0"/>
        <pt x="594" y="16" on="1"/>
        <pt x="589" y="13" on="0"/>
        <pt x="579" y="8" on="0"/>
        <pt x="564" y="5" on="0"/>
        <pt x="553" y="3" on="0"/>
        <pt x="534" y="2" on="0"/>
        <pt x="523" y="1" on="0"/>
        <pt x="504" y="1" on="0"/>
        <pt x="304" y="-8" on="0"/>
        <pt x="249" y="-8" on="1"/>
        <pt x="84" y="-8" on="0"/>
        <pt x="84" y="38" on="1"/>
        <pt x="82" y="131" on="0"/>
        <pt x="82" y="215" on="1"/>
        <pt x="82" y="492" on="0"/>
        <pt x="100" y="676" on="1"/>
        <pt x="110" y="692" on="0"/>
        <pt x="189" y="718" on="0"/>
        <pt x="333" y="718" on="1"/>
        <pt x="487" y="715" on="1"/>
        <pt x="564" y="715" on="0"/>
        <pt x="593" y="697" on="1"/>
        <pt x="590" y="669" on="0"/>
        <pt x="554" y="651" on="0"/>
        <pt x="520" y="651" on="1"/>
      </contour>
      <contour>
        <pt x="240" y="863" on="1"/>
        <pt x="253" y="863" on="0"/>
        <pt x="289" y="846" on="0"/>
        <pt x="289" y="833" on="1"/>
        <pt x="289" y="804" on="0"/>
        <pt x="238" y="778" on="0"/>
        <pt x="164" y="778" on="0"/>
        <pt x="164" y="801" on="1"/>
        <pt x="164" y="863" on="0"/>
      </contour>
      <contour>
        <pt x="381" y="828" on="0"/>
        <pt x="430" y="864" on="0"/>
        <pt x="475" y="864" on="0"/>
        <pt x="512" y="843" on="0"/>
        <pt x="512" y="829" on="1"/>
        <pt x="512" y="804" on="0"/>
        <pt x="449" y="778" on="0"/>
        <pt x="426" y="778" on="1"/>
        <pt x="381" y="778" on="0"/>
        <pt x="381" y="800" on="1"/>
      </contour>
    </TTGlyph>
    <TTGlyph name="Egrave" xMin="82" yMin="-8" xMax="602" yMax="930">
      <contour>
        <pt x="304" y="654" on="1"/>
        <pt x="222" y="654" on="0"/>
        <pt x="166" y="649" on="1"/>
        <pt x="155" y="593" on="0"/>
        <pt x="155" y="488" on="1"/>
        <pt x="156" y="443" on="1"/>
        <pt x="156" y="414" on="0"/>
        <pt x="155" y="381" on="1"/>
        <pt x="201" y="373" on="0"/>
        <pt x="275" y="373" on="1"/>
        <pt x="410" y="374" on="1"/>
        <pt x="482" y="374" on="0"/>
        <pt x="482" y="352" on="1"/>
        <pt x="482" y="314" on="0"/>
        <pt x="385" y="314" on="1"/>
        <pt x="158" y="321" on="1"/>
        <pt x="157" y="297" on="0"/>
        <pt x="154" y="118" on="0"/>
        <pt x="147" y="56" on="1"/>
        <pt x="211" y="52" on="0"/>
        <pt x="297" y="52" on="0"/>
        <pt x="409" y="59" on="1"/>
        <pt x="491" y="64" on="0"/>
        <pt x="572" y="64" on="0"/>
        <pt x="602" y="53" on="0"/>
        <pt x="602" y="22" on="0"/>
        <pt x="594" y="16" on="1"/>
        <pt x="589" y="13" on="0"/>
        <pt x="579" y="8" on="0"/>
        <pt x="564" y="5" on="0"/>
        <pt x="553" y="3" on="0"/>
        <pt x="534" y="2" on="0"/>
        <pt x="523" y="1" on="0"/>
        <pt x="504" y="1" on="0"/>
        <pt x="304" y="-8" on="0"/>
        <pt x="249" y="-8" on="1"/>
        <pt x="84" y="-8" on="0"/>
        <pt x="84" y="38" on="1"/>
        <pt x="82" y="131" on="0"/>
        <pt x="82" y="215" on="1"/>
        <pt x="82" y="492" on="0"/>
        <pt x="100" y="676" on="1"/>
        <pt x="110" y="692" on="0"/>
        <pt x="189" y="718" on="0"/>
        <pt x="333" y="718" on="1"/>
        <pt x="487" y="715" on="1"/>
        <pt x="564" y="715" on="0"/>
        <pt x="593" y="697" on="1"/>
        <pt x="590" y="669" on="0"/>
        <pt x="554" y="651" on="0"/>
        <pt x="520" y="651" on="1"/>
      </contour>
      <contour>
        <pt x="453" y="822" on="1"/>
        <pt x="466" y="817" on="0"/>
        <pt x="466" y="808" on="1"/>
        <pt x="466" y="801" on="0"/>
        <pt x="445" y="771" on="0"/>
        <pt x="428" y="771" on="1"/>
        <pt x="422" y="771" on="0"/>
        <pt x="419" y="773" on="1"/>
        <pt x="337" y="802" on="0"/>
        <pt x="236" y="883" on="1"/>
        <pt x="229" y="889" on="0"/>
        <pt x="229" y="901" on="0"/>
        <pt x="234" y="912" on="1"/>
        <pt x="243" y="930" on="0"/>
        <pt x="268" y="930" on="1"/>
        <pt x="275" y="930" on="0"/>
        <pt x="281" y="927" on="1"/>
        <pt x="381" y="848" on="0"/>
      </contour>
    </TTGlyph>
    <TTGlyph name="Euro" xMin="35" yMin="-7" xMax="735" yMax="704">
      <contour>
        <pt x="455" y="181" on="1"/>
        <pt x="244" y="176" on="1"/>
        <pt x="218" y="176" on="0"/>
        <pt x="194" y="177" on="1"/>
        <pt x="223" y="112" on="0"/>
        <pt x="348" y="38" on="0"/>
        <pt x="436" y="38" on="1"/>
        <pt x="511" y="38" on="0"/>
        <pt x="562" y="70" on="1"/>
        <pt x="617" y="103" on="0"/>
        <pt x="651" y="142" on="0"/>
        <pt x="666" y="160" on="0"/>
        <pt x="691" y="178" on="0"/>
        <pt x="714" y="176" on="0"/>
        <pt x="735" y="170" on="1"/>
        <pt x="691" y="84" on="0"/>
        <pt x="521" y="-7" on="0"/>
        <pt x="298" y="-7" on="0"/>
        <pt x="142" y="88" on="0"/>
        <pt x="116" y="180" on="1"/>
        <pt x="52" y="185" on="0"/>
        <pt x="52" y="211" on="0"/>
        <pt x="87" y="238" on="0"/>
        <pt x="105" y="238" on="1"/>
        <pt x="106" y="238" on="1"/>
        <pt x="104" y="253" on="0"/>
        <pt x="104" y="304" on="0"/>
        <pt x="109" y="345" on="1"/>
        <pt x="89" y="341" on="0"/>
        <pt x="77" y="339" on="0"/>
        <pt x="71" y="339" on="1"/>
        <pt x="51" y="344" on="1"/>
        <pt x="35" y="350" on="0"/>
        <pt x="35" y="367" on="1"/>
        <pt x="35" y="392" on="0"/>
        <pt x="119" y="402" on="1"/>
        <pt x="149" y="536" on="0"/>
        <pt x="326" y="704" on="0"/>
        <pt x="463" y="704" on="1"/>
        <pt x="543" y="704" on="0"/>
        <pt x="633" y="633" on="0"/>
        <pt x="658" y="564" on="1"/>
        <pt x="643" y="550" on="0"/>
        <pt x="621" y="538" on="0"/>
        <pt x="600" y="548" on="0"/>
        <pt x="592" y="554" on="0"/>
        <pt x="569" y="587" on="0"/>
        <pt x="566" y="591" on="1"/>
        <pt x="515" y="654" on="0"/>
        <pt x="442" y="654" on="1"/>
        <pt x="353" y="654" on="0"/>
        <pt x="214" y="515" on="0"/>
        <pt x="186" y="409" on="1"/>
        <pt x="239" y="412" on="0"/>
        <pt x="488" y="417" on="0"/>
        <pt x="519" y="421" on="1"/>
        <pt x="554" y="421" on="0"/>
        <pt x="554" y="379" on="0"/>
        <pt x="525" y="366" on="1"/>
        <pt x="500" y="354" on="0"/>
        <pt x="214" y="353" on="0"/>
        <pt x="174" y="351" on="1"/>
        <pt x="170" y="321" on="0"/>
        <pt x="170" y="263" on="0"/>
        <pt x="175" y="237" on="1"/>
        <pt x="481" y="234" on="0"/>
        <pt x="484" y="234" on="1"/>
        <pt x="509" y="234" on="0"/>
        <pt x="509" y="221" on="1"/>
        <pt x="509" y="204" on="0"/>
        <pt x="480" y="188" on="1"/>
        <pt x="466" y="181" on="0"/>
      </contour>
    </TTGlyph>
    <TTGlyph name="F" xMin="76" yMin="-16" xMax="594" yMax="720">
      <contour>
        <pt x="443" y="718" on="1"/>
        <pt x="488" y="717" on="1"/>
        <pt x="515" y="717" on="0"/>
        <pt x="530" y="714" on="1"/>
        <pt x="557" y="710" on="1"/>
        <pt x="578" y="707" on="0"/>
        <pt x="594" y="695" on="1"/>
        <pt x="586" y="653" on="0"/>
        <pt x="528" y="653" on="1"/>
        <pt x="263" y="661" on="1"/>
        <pt x="220" y="661" on="0"/>
        <pt x="160" y="657" on="1"/>
        <pt x="162" y="548" on="0"/>
        <pt x="162" y="362" on="1"/>
        <pt x="276" y="372" on="0"/>
        <pt x="352" y="372" on="1"/>
        <pt x="499" y="372" on="0"/>
        <pt x="499" y="343" on="1"/>
        <pt x="499" y="306" on="0"/>
        <pt x="453" y="306" on="1"/>
        <pt x="437" y="306" on="0"/>
        <pt x="418" y="309" on="1"/>
        <pt x="342" y="318" on="0"/>
        <pt x="230" y="318" on="0"/>
        <pt x="161" y="310" on="1"/>
        <pt x="159" y="277" on="0"/>
        <pt x="153" y="134" on="0"/>
        <pt x="150" y="86" on="0"/>
        <pt x="148" y="66" on="0"/>
        <pt x="145" y="38" on="0"/>
        <pt x="140" y="20" on="0"/>
        <pt x="136" y="10" on="1"/>
        <pt x="130" y="-6" on="0"/>
        <pt x="114" y="-14" on="1"/>
        <pt x="109" y="-16" on="0"/>
        <pt x="105" y="-16" on="1"/>
        <pt x="92" y="-16" on="0"/>
        <pt x="76" y="-8" on="1"/>
        <pt x="76" y="3" on="0"/>
        <pt x="76" y="107" on="0"/>
        <pt x="94" y="446" on="0"/>
        <pt x="94" y="620" on="0"/>
        <pt x="90" y="674" on="1"/>
        <pt x="90" y="698" on="0"/>
        <pt x="139" y="708" on="1"/>
        <pt x="193" y="719" on="0"/>
        <pt x="292" y="720" on="0"/>
        <pt x="318" y="720" on="1"/>
      </contour>
    </TTGlyph>
    <TTGlyph name="G" xMin="48" yMin="-14" xMax="726" yMax="714">
      <contour>
        <pt x="419" y="305" on="1"/>
        <pt x="363" y="305" on="0"/>
        <pt x="363" y="324" on="1"/>
        <pt x="363" y="346" on="0"/>
        <pt x="501" y="371" on="0"/>
        <pt x="643" y="371" on="0"/>
        <pt x="707" y="363" on="0"/>
        <pt x="726" y="349" on="0"/>
        <pt x="726" y="336" on="1"/>
        <pt x="726" y="156" on="0"/>
        <pt x="554" y="-14" on="0"/>
        <pt x="231" y="-14" on="0"/>
        <pt x="48" y="144" on="0"/>
        <pt x="48" y="283" on="1"/>
        <pt x="48" y="475" on="0"/>
        <pt x="278" y="714" on="0"/>
        <pt x="449" y="714" on="1"/>
        <pt x="524" y="714" on="0"/>
        <pt x="658" y="652" on="0"/>
        <pt x="673" y="603" on="1"/>
        <pt x="659" y="591" on="0"/>
        <pt x="633" y="591" on="0"/>
        <pt x="596" y="603" on="0"/>
        <pt x="558" y="637" on="0"/>
        <pt x="480" y="672" on="0"/>
        <pt x="437" y="672" on="1"/>
        <pt x="304" y="672" on="0"/>
        <pt x="109" y="445" on="0"/>
        <pt x="109" y="291" on="1"/>
        <pt x="109" y="169" on="0"/>
        <pt x="288" y="31" on="0"/>
        <pt x="408" y="31" on="1"/>
        <pt x="545" y="31" on="0"/>
        <pt x="602" y="116" on="1"/>
        <pt x="656" y="194" on="0"/>
        <pt x="656" y="315" on="1"/>
        <pt x="648" y="322" on="0"/>
        <pt x="622" y="322" on="0"/>
        <pt x="604" y="321" on="1"/>
        <pt x="558" y="319" on="0"/>
        <pt x="438" y="305" on="0"/>
      </contour>
    </TTGlyph>
    <TTGlyph name="H" xMin="77" yMin="-9" xMax="638" yMax="708">
      <contour>
        <pt x="563" y="684" on="1"/>
        <pt x="578" y="708" on="0"/>
        <pt x="609" y="708" on="1"/>
        <pt x="621" y="708" on="0"/>
        <pt x="631" y="702" on="1"/>
        <pt x="638" y="593" on="0"/>
        <pt x="638" y="381" on="0"/>
        <pt x="629" y="55" on="0"/>
        <pt x="628" y="7" on="1"/>
        <pt x="604" y="-9" on="0"/>
        <pt x="574" y="-9" on="0"/>
        <pt x="566" y="-6" on="1"/>
        <pt x="560" y="47" on="0"/>
        <pt x="560" y="102" on="1"/>
        <pt x="566" y="330" on="1"/>
        <pt x="480" y="338" on="0"/>
        <pt x="268" y="338" on="0"/>
        <pt x="153" y="317" on="1"/>
        <pt x="145" y="119" on="0"/>
        <pt x="145" y="25" on="1"/>
        <pt x="120" y="5" on="0"/>
        <pt x="89" y="5" on="0"/>
        <pt x="80" y="10" on="1"/>
        <pt x="77" y="59" on="0"/>
        <pt x="77" y="237" on="0"/>
        <pt x="102" y="648" on="0"/>
        <pt x="103" y="680" on="1"/>
        <pt x="116" y="701" on="0"/>
        <pt x="148" y="701" on="1"/>
        <pt x="158" y="701" on="0"/>
        <pt x="167" y="697" on="1"/>
        <pt x="170" y="669" on="0"/>
        <pt x="170" y="583" on="0"/>
        <pt x="158" y="406" on="0"/>
        <pt x="158" y="372" on="1"/>
        <pt x="279" y="392" on="0"/>
        <pt x="485" y="392" on="0"/>
        <pt x="564" y="385" on="1"/>
        <pt x="567" y="422" on="0"/>
        <pt x="567" y="566" on="0"/>
      </contour>
    </TTGlyph>
    <TTGlyph name="I" xMin="83" yMin="-18" xMax="163" yMax="714">
      <contour>
        <pt x="163" y="704" on="1"/>
        <pt x="153" y="252" on="0"/>
        <pt x="152" y="-2" on="1"/>
        <pt x="137" y="-18" on="0"/>
        <pt x="114" y="-18" on="0"/>
        <pt x="106" y="-13" on="1"/>
        <pt x="83" y="2" on="0"/>
        <pt x="83" y="43" on="1"/>
        <pt x="85" y="524" on="0"/>
        <pt x="95" y="688" on="0"/>
        <pt x="115" y="714" on="0"/>
        <pt x="143" y="714" on="0"/>
      </contour>
    </TTGlyph>
    <TTGlyph name="Iacute" xMin="-6" yMin="-18" xMax="259" yMax="930">
      <contour>
        <pt x="127" y="714" on="1"/>
        <pt x="141" y="714" on="0"/>
        <pt x="163" y="704" on="1"/>
        <pt x="153" y="252" on="0"/>
        <pt x="152" y="-2" on="1"/>
        <pt x="137" y="-18" on="0"/>
        <pt x="114" y="-18" on="0"/>
        <pt x="106" y="-13" on="1"/>
        <pt x="83" y="2" on="0"/>
        <pt x="83" y="43" on="1"/>
        <pt x="85" y="524" on="0"/>
        <pt x="91" y="618" on="1"/>
        <pt x="91" y="714" on="0"/>
      </contour>
      <contour>
        <pt x="34" y="826" on="0"/>
        <pt x="169" y="911" on="0"/>
        <pt x="197" y="930" on="0"/>
        <pt x="224" y="930" on="0"/>
        <pt x="259" y="919" on="0"/>
        <pt x="259" y="911" on="1"/>
        <pt x="259" y="905" on="0"/>
        <pt x="236" y="889" on="0"/>
        <pt x="100" y="802" on="0"/>
        <pt x="66" y="776" on="1"/>
        <pt x="58" y="770" on="0"/>
        <pt x="32" y="770" on="0"/>
        <pt x="-6" y="782" on="0"/>
        <pt x="-6" y="790" on="1"/>
        <pt x="-6" y="794" on="0"/>
        <pt x="0" y="800" on="1"/>
      </contour>
    </TTGlyph>
    <TTGlyph name="Icircumflex" xMin="-47" yMin="-18" xMax="298" yMax="889">
      <contour>
        <pt x="127" y="714" on="1"/>
        <pt x="141" y="714" on="0"/>
        <pt x="163" y="704" on="1"/>
        <pt x="153" y="252" on="0"/>
        <pt x="152" y="-2" on="1"/>
        <pt x="137" y="-18" on="0"/>
        <pt x="114" y="-18" on="0"/>
        <pt x="106" y="-13" on="1"/>
        <pt x="83" y="2" on="0"/>
        <pt x="83" y="43" on="1"/>
        <pt x="85" y="524" on="0"/>
        <pt x="91" y="618" on="1"/>
        <pt x="91" y="714" on="0"/>
      </contour>
      <contour>
        <pt x="40" y="862" on="0"/>
        <pt x="102" y="889" on="0"/>
        <pt x="175" y="889" on="0"/>
        <pt x="222" y="866" on="0"/>
        <pt x="249" y="838" on="0"/>
        <pt x="283" y="800" on="0"/>
        <pt x="295" y="791" on="1"/>
        <pt x="298" y="788" on="0"/>
        <pt x="298" y="785" on="1"/>
        <pt x="298" y="779" on="0"/>
        <pt x="261" y="768" on="0"/>
        <pt x="223" y="768" on="0"/>
        <pt x="144" y="849" on="0"/>
        <pt x="126" y="857" on="1"/>
        <pt x="114" y="850" on="0"/>
        <pt x="64" y="804" on="0"/>
        <pt x="12" y="779" on="0"/>
        <pt x="-46" y="779" on="0"/>
        <pt x="-47" y="785" on="1"/>
        <pt x="-45" y="789" on="1"/>
        <pt x="-39" y="793" on="0"/>
      </contour>
    </TTGlyph>
    <TTGlyph name="Idieresis" xMin="-41" yMin="-18" xMax="307" yMax="865">
      <contour>
        <pt x="127" y="714" on="1"/>
        <pt x="141" y="714" on="0"/>
        <pt x="163" y="704" on="1"/>
        <pt x="153" y="252" on="0"/>
        <pt x="152" y="-2" on="1"/>
        <pt x="137" y="-18" on="0"/>
        <pt x="114" y="-18" on="0"/>
        <pt x="106" y="-13" on="1"/>
        <pt x="83" y="2" on="0"/>
        <pt x="83" y="43" on="1"/>
        <pt x="85" y="524" on="0"/>
        <pt x="91" y="618" on="1"/>
        <pt x="91" y="714" on="0"/>
      </contour>
      <contour>
        <pt x="35" y="864" on="1"/>
        <pt x="48" y="864" on="0"/>
        <pt x="84" y="847" on="0"/>
        <pt x="84" y="834" on="1"/>
        <pt x="84" y="805" on="0"/>
        <pt x="33" y="779" on="0"/>
        <pt x="-41" y="779" on="0"/>
        <pt x="-41" y="802" on="1"/>
        <pt x="-41" y="864" on="0"/>
      </contour>
      <contour>
        <pt x="176" y="829" on="0"/>
        <pt x="225" y="865" on="0"/>
        <pt x="270" y="865" on="0"/>
        <pt x="307" y="844" on="0"/>
        <pt x="307" y="830" on="1"/>
        <pt x="307" y="805" on="0"/>
        <pt x="244" y="779" on="0"/>
        <pt x="221" y="779" on="1"/>
        <pt x="176" y="779" on="0"/>
        <pt x="176" y="801" on="1"/>
      </contour>
    </TTGlyph>
    <TTGlyph name="Igrave" xMin="11" yMin="-18" xMax="248" yMax="928">
      <contour>
        <pt x="127" y="714" on="1"/>
        <pt x="141" y="714" on="0"/>
        <pt x="163" y="704" on="1"/>
        <pt x="153" y="252" on="0"/>
        <pt x="152" y="-2" on="1"/>
        <pt x="137" y="-18" on="0"/>
        <pt x="114" y="-18" on="0"/>
        <pt x="106" y="-13" on="1"/>
        <pt x="83" y="2" on="0"/>
        <pt x="83" y="43" on="1"/>
        <pt x="85" y="524" on="0"/>
        <pt x="91" y="618" on="1"/>
        <pt x="91" y="714" on="0"/>
      </contour>
      <contour>
        <pt x="235" y="820" on="1"/>
        <pt x="248" y="815" on="0"/>
        <pt x="248" y="806" on="1"/>
        <pt x="248" y="799" on="0"/>
        <pt x="227" y="769" on="0"/>
        <pt x="210" y="769" on="1"/>
        <pt x="204" y="769" on="0"/>
        <pt x="201" y="771" on="1"/>
        <pt x="119" y="800" on="0"/>
        <pt x="18" y="881" on="1"/>
        <pt x="11" y="887" on="0"/>
        <pt x="11" y="899" on="0"/>
        <pt x="16" y="910" on="1"/>
        <pt x="25" y="928" on="0"/>
        <pt x="50" y="928" on="1"/>
        <pt x="57" y="928" on="0"/>
        <pt x="63" y="925" on="1"/>
        <pt x="163" y="846" on="0"/>
      </contour>
    </TTGlyph>
    <TTGlyph name="J" xMin="9" yMin="-3" xMax="405" yMax="704">
      <contour>
        <pt x="383" y="700" on="1"/>
        <pt x="383" y="625" on="0"/>
        <pt x="405" y="311" on="0"/>
        <pt x="405" y="232" on="1"/>
        <pt x="405" y="115" on="0"/>
        <pt x="321" y="-3" on="0"/>
        <pt x="211" y="-3" on="1"/>
        <pt x="145" y="-3" on="0"/>
        <pt x="31" y="53" on="0"/>
        <pt x="9" y="100" on="1"/>
        <pt x="34" y="121" on="0"/>
        <pt x="71" y="121" on="0"/>
        <pt x="102" y="96" on="0"/>
        <pt x="127" y="66" on="0"/>
        <pt x="190" y="41" on="0"/>
        <pt x="293" y="41" on="0"/>
        <pt x="336" y="131" on="0"/>
        <pt x="336" y="301" on="0"/>
        <pt x="316" y="553" on="0"/>
        <pt x="316" y="672" on="0"/>
        <pt x="336" y="704" on="0"/>
        <pt x="369" y="704" on="0"/>
      </contour>
    </TTGlyph>
    <TTGlyph name="K" xMin="86" yMin="-16" xMax="644" yMax="716">
      <contour>
        <pt x="158" y="706" on="1"/>
        <pt x="161" y="471" on="1"/>
        <pt x="161" y="421" on="0"/>
        <pt x="158" y="374" on="1"/>
        <pt x="246" y="409" on="0"/>
        <pt x="383" y="506" on="0"/>
        <pt x="457" y="593" on="0"/>
        <pt x="512" y="670" on="0"/>
        <pt x="553" y="716" on="0"/>
        <pt x="589" y="716" on="0"/>
        <pt x="606" y="703" on="1"/>
        <pt x="565" y="600" on="0"/>
        <pt x="416" y="451" on="0"/>
        <pt x="302" y="374" on="1"/>
        <pt x="355" y="347" on="0"/>
        <pt x="450" y="248" on="0"/>
        <pt x="481" y="200" on="1"/>
        <pt x="568" y="67" on="0"/>
        <pt x="644" y="10" on="1"/>
        <pt x="627" y="-16" on="0"/>
        <pt x="562" y="-16" on="0"/>
        <pt x="470" y="87" on="0"/>
        <pt x="392" y="213" on="0"/>
        <pt x="292" y="332" on="0"/>
        <pt x="250" y="344" on="1"/>
        <pt x="242" y="341" on="0"/>
        <pt x="177" y="310" on="0"/>
        <pt x="158" y="304" on="1"/>
        <pt x="158" y="135" on="0"/>
        <pt x="153" y="20" on="1"/>
        <pt x="135" y="2" on="0"/>
        <pt x="88" y="2" on="1"/>
        <pt x="86" y="32" on="0"/>
        <pt x="86" y="139" on="1"/>
        <pt x="90" y="686" on="1"/>
        <pt x="102" y="708" on="0"/>
        <pt x="135" y="708" on="1"/>
        <pt x="146" y="708" on="0"/>
      </contour>
    </TTGlyph>
    <TTGlyph name="L" xMin="85" yMin="-18" xMax="528" yMax="721">
      <contour>
        <pt x="159" y="681" on="1"/>
        <pt x="154" y="238" on="1"/>
        <pt x="154" y="135" on="0"/>
        <pt x="160" y="43" on="1"/>
        <pt x="220" y="39" on="0"/>
        <pt x="269" y="39" on="1"/>
        <pt x="479" y="43" on="1"/>
        <pt x="528" y="43" on="0"/>
        <pt x="528" y="15" on="1"/>
        <pt x="528" y="-18" on="0"/>
        <pt x="318" y="-18" on="1"/>
        <pt x="267" y="-18" on="0"/>
        <pt x="107" y="-8" on="0"/>
        <pt x="90" y="3" on="1"/>
        <pt x="85" y="109" on="0"/>
        <pt x="85" y="349" on="1"/>
        <pt x="90" y="701" on="1"/>
        <pt x="116" y="721" on="0"/>
        <pt x="132" y="721" on="1"/>
        <pt x="159" y="721" on="0"/>
      </contour>
    </TTGlyph>
    <TTGlyph name="M" xMin="76" yMin="-8" xMax="778" yMax="734">
      <contour>
        <pt x="93" y="398" on="1"/>
        <pt x="93" y="560" on="0"/>
        <pt x="76" y="694" on="1"/>
        <pt x="76" y="715" on="0"/>
        <pt x="134" y="715" on="0"/>
        <pt x="230" y="604" on="0"/>
        <pt x="318" y="472" on="0"/>
        <pt x="407" y="361" on="0"/>
        <pt x="445" y="361" on="0"/>
        <pt x="530" y="478" on="0"/>
        <pt x="613" y="617" on="0"/>
        <pt x="710" y="734" on="0"/>
        <pt x="769" y="734" on="0"/>
        <pt x="769" y="718" on="1"/>
        <pt x="778" y="595" on="0"/>
        <pt x="778" y="401" on="0"/>
        <pt x="776" y="280" on="0"/>
        <pt x="775" y="225" on="0"/>
        <pt x="769" y="30" on="0"/>
        <pt x="769" y="13" on="1"/>
        <pt x="754" y="-8" on="0"/>
        <pt x="728" y="-8" on="1"/>
        <pt x="717" y="-8" on="0"/>
        <pt x="707" y="-2" on="1"/>
        <pt x="701" y="121" on="0"/>
        <pt x="701" y="455" on="0"/>
        <pt x="704" y="634" on="1"/>
        <pt x="684" y="618" on="0"/>
        <pt x="611" y="501" on="0"/>
        <pt x="543" y="386" on="0"/>
        <pt x="457" y="293" on="0"/>
        <pt x="383" y="293" on="0"/>
        <pt x="288" y="401" on="0"/>
        <pt x="173" y="586" on="0"/>
        <pt x="155" y="609" on="1"/>
        <pt x="160" y="525" on="0"/>
        <pt x="160" y="344" on="0"/>
        <pt x="159" y="308" on="1"/>
        <pt x="158" y="148" on="0"/>
        <pt x="153" y="17" on="1"/>
        <pt x="137" y="-4" on="0"/>
        <pt x="103" y="-4" on="1"/>
        <pt x="94" y="-4" on="0"/>
        <pt x="86" y="-1" on="1"/>
        <pt x="86" y="-1" on="0"/>
      </contour>
    </TTGlyph>
    <TTGlyph name="N" xMin="84" yMin="-34" xMax="698" yMax="714">
      <contour>
        <pt x="620" y="78" on="1"/>
        <pt x="629" y="698" on="1"/>
        <pt x="645" y="714" on="0"/>
        <pt x="681" y="714" on="0"/>
        <pt x="691" y="708" on="1"/>
        <pt x="698" y="575" on="0"/>
        <pt x="698" y="489" on="1"/>
        <pt x="690" y="26" on="1"/>
        <pt x="690" y="6" on="0"/>
        <pt x="690" y="-12" on="1"/>
        <pt x="656" y="-34" on="0"/>
        <pt x="634" y="-34" on="1"/>
        <pt x="622" y="-32" on="1"/>
        <pt x="612" y="-27" on="0"/>
        <pt x="601" y="-22" on="0"/>
        <pt x="583" y="1" on="0"/>
        <pt x="577" y="11" on="0"/>
        <pt x="556" y="45" on="0"/>
        <pt x="548" y="58" on="0"/>
        <pt x="443" y="227" on="0"/>
        <pt x="415" y="269" on="0"/>
        <pt x="324" y="405" on="0"/>
        <pt x="298" y="438" on="1"/>
        <pt x="221" y="536" on="0"/>
        <pt x="156" y="596" on="1"/>
        <pt x="161" y="465" on="0"/>
        <pt x="161" y="167" on="0"/>
        <pt x="155" y="-2" on="1"/>
        <pt x="143" y="-20" on="0"/>
        <pt x="88" y="-20" on="1"/>
        <pt x="88" y="545" on="0"/>
        <pt x="84" y="676" on="1"/>
        <pt x="103" y="694" on="0"/>
        <pt x="139" y="694" on="0"/>
        <pt x="156" y="684" on="1"/>
        <pt x="182" y="668" on="0"/>
        <pt x="214" y="636" on="1"/>
        <pt x="320" y="530" on="0"/>
        <pt x="509" y="260" on="0"/>
      </contour>
    </TTGlyph>
    <TTGlyph name="Ntilde" xMin="84" yMin="-34" xMax="698" yMax="873">
      <contour>
        <pt x="690" y="26" on="1"/>
        <pt x="690" y="6" on="0"/>
        <pt x="690" y="-12" on="1"/>
        <pt x="662" y="-31" on="0"/>
        <pt x="634" y="-34" on="1"/>
        <pt x="628" y="-34" on="0"/>
        <pt x="612" y="-27" on="0"/>
        <pt x="601" y="-22" on="0"/>
        <pt x="583" y="1" on="0"/>
        <pt x="577" y="11" on="0"/>
        <pt x="556" y="45" on="0"/>
        <pt x="548" y="58" on="0"/>
        <pt x="442" y="229" on="0"/>
        <pt x="370" y="337" on="1"/>
        <pt x="260" y="500" on="0"/>
        <pt x="156" y="596" on="1"/>
        <pt x="161" y="465" on="0"/>
        <pt x="161" y="167" on="0"/>
        <pt x="155" y="-2" on="1"/>
        <pt x="143" y="-20" on="0"/>
        <pt x="88" y="-20" on="1"/>
        <pt x="88" y="545" on="0"/>
        <pt x="84" y="676" on="1"/>
        <pt x="103" y="694" on="0"/>
        <pt x="124" y="694" on="1"/>
        <pt x="156" y="694" on="0"/>
        <pt x="214" y="636" on="1"/>
        <pt x="320" y="530" on="0"/>
        <pt x="509" y="260" on="0"/>
        <pt x="620" y="78" on="1"/>
        <pt x="620" y="185" on="0"/>
        <pt x="629" y="598" on="0"/>
        <pt x="629" y="698" on="1"/>
        <pt x="645" y="714" on="0"/>
        <pt x="681" y="714" on="0"/>
        <pt x="691" y="708" on="1"/>
        <pt x="698" y="575" on="0"/>
        <pt x="698" y="489" on="1"/>
      </contour>
      <contour>
        <pt x="294" y="770" on="1"/>
        <pt x="283" y="757" on="0"/>
        <pt x="225" y="757" on="0"/>
        <pt x="225" y="770" on="1"/>
        <pt x="225" y="775" on="0"/>
        <pt x="229" y="781" on="1"/>
        <pt x="293" y="857" on="0"/>
        <pt x="349" y="857" on="1"/>
        <pt x="381" y="857" on="0"/>
        <pt x="467" y="805" on="0"/>
        <pt x="487" y="805" on="0"/>
        <pt x="500" y="817" on="0"/>
        <pt x="504" y="823" on="1"/>
        <pt x="512" y="835" on="0"/>
        <pt x="523" y="857" on="1"/>
        <pt x="532" y="873" on="0"/>
        <pt x="561" y="873" on="1"/>
        <pt x="563" y="873" on="0"/>
        <pt x="565" y="873" on="1"/>
        <pt x="593" y="872" on="0"/>
        <pt x="591" y="854" on="1"/>
        <pt x="588" y="845" on="1"/>
        <pt x="544" y="755" on="0"/>
        <pt x="467" y="755" on="1"/>
        <pt x="441" y="755" on="0"/>
        <pt x="358" y="805" on="0"/>
        <pt x="345" y="805" on="1"/>
        <pt x="323" y="805" on="0"/>
      </contour>
    </TTGlyph>
    <TTGlyph name="O" xMin="49" yMin="-20" xMax="767" yMax="688">
      <contour>
        <pt x="704" y="565" on="0"/>
        <pt x="767" y="436" on="0"/>
        <pt x="767" y="264" on="0"/>
        <pt x="697" y="114" on="0"/>
        <pt x="641" y="70" on="1"/>
        <pt x="526" y="-20" on="0"/>
        <pt x="247" y="-20" on="0"/>
        <pt x="49" y="161" on="0"/>
        <pt x="49" y="318" on="1"/>
        <pt x="49" y="408" on="0"/>
        <pt x="108" y="552" on="0"/>
        <pt x="158" y="596" on="1"/>
        <pt x="262" y="688" on="0"/>
        <pt x="404" y="688" on="1"/>
        <pt x="544" y="688" on="0"/>
        <pt x="652" y="605" on="1"/>
      </contour>
      <contour>
        <pt x="115" y="316" on="1"/>
        <pt x="115" y="187" on="0"/>
        <pt x="262" y="33" on="0"/>
        <pt x="384" y="33" on="1"/>
        <pt x="525" y="33" on="0"/>
        <pt x="696" y="206" on="0"/>
        <pt x="696" y="471" on="0"/>
        <pt x="524" y="629" on="0"/>
        <pt x="278" y="629" on="0"/>
        <pt x="115" y="468" on="0"/>
      </contour>
    </TTGlyph>
    <TTGlyph name="OE" xMin="49" yMin="-20" xMax="1175" yMax="718">
      <contour>
        <pt x="906" y="718" on="1"/>
        <pt x="1060" y="715" on="1"/>
        <pt x="1137" y="715" on="0"/>
        <pt x="1166" y="697" on="1"/>
        <pt x="1163" y="669" on="0"/>
        <pt x="1127" y="651" on="0"/>
        <pt x="1093" y="651" on="1"/>
        <pt x="877" y="654" on="1"/>
        <pt x="795" y="654" on="0"/>
        <pt x="739" y="649" on="1"/>
        <pt x="728" y="593" on="0"/>
        <pt x="728" y="488" on="1"/>
        <pt x="729" y="443" on="1"/>
        <pt x="729" y="414" on="0"/>
        <pt x="728" y="381" on="1"/>
        <pt x="774" y="373" on="0"/>
        <pt x="848" y="373" on="1"/>
        <pt x="967" y="374" on="1"/>
        <pt x="1035" y="374" on="0"/>
        <pt x="1048" y="365" on="1"/>
        <pt x="1054" y="359" on="0"/>
        <pt x="1055" y="352" on="1"/>
        <pt x="1055" y="314" on="0"/>
        <pt x="958" y="314" on="1"/>
        <pt x="731" y="321" on="1"/>
        <pt x="730" y="297" on="0"/>
        <pt x="729" y="239" on="1"/>
        <pt x="727" y="118" on="0"/>
        <pt x="720" y="56" on="1"/>
        <pt x="784" y="52" on="0"/>
        <pt x="840" y="52" on="0"/>
        <pt x="900" y="54" on="0"/>
        <pt x="1064" y="64" on="0"/>
        <pt x="1145" y="64" on="0"/>
        <pt x="1175" y="53" on="0"/>
        <pt x="1175" y="34" on="1"/>
        <pt x="1175" y="22" on="0"/>
        <pt x="1162" y="13" on="0"/>
        <pt x="1152" y="8" on="0"/>
        <pt x="1137" y="5" on="0"/>
        <pt x="1126" y="3" on="0"/>
        <pt x="1107" y="2" on="0"/>
        <pt x="1096" y="1" on="0"/>
        <pt x="1086" y="1" on="1"/>
        <pt x="1073" y="1" on="1"/>
        <pt x="877" y="-8" on="0"/>
        <pt x="822" y="-8" on="1"/>
        <pt x="657" y="-8" on="0"/>
        <pt x="657" y="38" on="1"/>
        <pt x="655" y="127" on="1"/>
        <pt x="613" y="54" on="0"/>
        <pt x="474" y="-20" on="0"/>
        <pt x="392" y="-20" on="1"/>
        <pt x="247" y="-20" on="0"/>
        <pt x="49" y="161" on="0"/>
        <pt x="49" y="318" on="1"/>
        <pt x="49" y="408" on="0"/>
        <pt x="108" y="552" on="0"/>
        <pt x="158" y="596" on="1"/>
        <pt x="262" y="688" on="0"/>
        <pt x="404" y="688" on="1"/>
        <pt x="490" y="688" on="0"/>
        <pt x="624" y="616" on="0"/>
        <pt x="663" y="547" on="1"/>
        <pt x="665" y="586" on="0"/>
        <pt x="673" y="676" on="1"/>
        <pt x="694" y="709" on="0"/>
        <pt x="795" y="714" on="1"/>
        <pt x="858" y="718" on="0"/>
      </contour>
      <contour>
        <pt x="115" y="316" on="1"/>
        <pt x="115" y="187" on="0"/>
        <pt x="262" y="33" on="0"/>
        <pt x="521" y="33" on="0"/>
        <pt x="652" y="197" on="0"/>
        <pt x="652" y="473" on="0"/>
        <pt x="519" y="629" on="0"/>
        <pt x="278" y="629" on="0"/>
        <pt x="115" y="468" on="0"/>
      </contour>
    </TTGlyph>
    <TTGlyph name="Oacute" xMin="49" yMin="-20" xMax="767" yMax="913">
      <contour>
        <pt x="767" y="264" on="0"/>
        <pt x="697" y="114" on="0"/>
        <pt x="641" y="70" on="1"/>
        <pt x="526" y="-20" on="0"/>
        <pt x="392" y="-20" on="1"/>
        <pt x="247" y="-20" on="0"/>
        <pt x="49" y="161" on="0"/>
        <pt x="49" y="318" on="1"/>
        <pt x="49" y="437" on="0"/>
        <pt x="152" y="609" on="0"/>
        <pt x="310" y="688" on="0"/>
        <pt x="404" y="688" on="1"/>
        <pt x="544" y="688" on="0"/>
        <pt x="652" y="605" on="1"/>
        <pt x="704" y="565" on="0"/>
        <pt x="767" y="436" on="0"/>
      </contour>
      <contour>
        <pt x="115" y="316" on="1"/>
        <pt x="115" y="187" on="0"/>
        <pt x="262" y="33" on="0"/>
        <pt x="384" y="33" on="1"/>
        <pt x="525" y="33" on="0"/>
        <pt x="696" y="206" on="0"/>
        <pt x="696" y="471" on="0"/>
        <pt x="524" y="629" on="0"/>
        <pt x="278" y="629" on="0"/>
        <pt x="115" y="468" on="0"/>
      </contour>
      <contour>
        <pt x="310" y="809" on="0"/>
        <pt x="445" y="894" on="0"/>
        <pt x="473" y="913" on="0"/>
        <pt x="500" y="913" on="0"/>
        <pt x="535" y="902" on="0"/>
        <pt x="535" y="894" on="1"/>
        <pt x="535" y="888" on="0"/>
        <pt x="512" y="872" on="0"/>
        <pt x="376" y="785" on="0"/>
        <pt x="342" y="759" on="1"/>
        <pt x="334" y="753" on="0"/>
        <pt x="308" y="753" on="0"/>
        <pt x="270" y="765" on="0"/>
        <pt x="270" y="773" on="1"/>
        <pt x="270" y="777" on="0"/>
        <pt x="276" y="783" on="1"/>
      </contour>
    </TTGlyph>
    <TTGlyph name="Ocircumflex" xMin="49" yMin="-20" xMax="767" yMax="870">
      <contour>
        <pt x="767" y="264" on="0"/>
        <pt x="697" y="114" on="0"/>
        <pt x="641" y="70" on="1"/>
        <pt x="526" y="-20" on="0"/>
        <pt x="392" y="-20" on="1"/>
        <pt x="247" y="-20" on="0"/>
        <pt x="49" y="161" on="0"/>
        <pt x="49" y="318" on="1"/>
        <pt x="49" y="437" on="0"/>
        <pt x="152" y="609" on="0"/>
        <pt x="310" y="688" on="0"/>
        <pt x="404" y="688" on="1"/>
        <pt x="544" y="688" on="0"/>
        <pt x="652" y="605" on="1"/>
        <pt x="704" y="565" on="0"/>
        <pt x="767" y="436" on="0"/>
      </contour>
      <contour>
        <pt x="115" y="316" on="1"/>
        <pt x="115" y="187" on="0"/>
        <pt x="262" y="33" on="0"/>
        <pt x="384" y="33" on="1"/>
        <pt x="525" y="33" on="0"/>
        <pt x="696" y="206" on="0"/>
        <pt x="696" y="471" on="0"/>
        <pt x="524" y="629" on="0"/>
        <pt x="278" y="629" on="0"/>
        <pt x="115" y="468" on="0"/>
      </contour>
      <contour>
        <pt x="309" y="843" on="0"/>
        <pt x="371" y="870" on="0"/>
        <pt x="444" y="870" on="0"/>
        <pt x="491" y="847" on="0"/>
        <pt x="518" y="819" on="0"/>
        <pt x="552" y="781" on="0"/>
        <pt x="564" y="772" on="1"/>
        <pt x="567" y="769" on="0"/>
        <pt x="567" y="766" on="1"/>
        <pt x="567" y="760" on="0"/>
        <pt x="530" y="749" on="0"/>
        <pt x="492" y="749" on="0"/>
        <pt x="413" y="830" on="0"/>
        <pt x="395" y="838" on="1"/>
        <pt x="383" y="831" on="0"/>
        <pt x="333" y="785" on="0"/>
        <pt x="281" y="760" on="0"/>
        <pt x="223" y="760" on="0"/>
        <pt x="222" y="766" on="1"/>
        <pt x="224" y="770" on="1"/>
        <pt x="230" y="774" on="0"/>
      </contour>
    </TTGlyph>
    <TTGlyph name="Odieresis" xMin="49" yMin="-20" xMax="767" yMax="838">
      <contour>
        <pt x="767" y="264" on="0"/>
        <pt x="697" y="114" on="0"/>
        <pt x="641" y="70" on="1"/>
        <pt x="526" y="-20" on="0"/>
        <pt x="392" y="-20" on="1"/>
        <pt x="247" y="-20" on="0"/>
        <pt x="49" y="161" on="0"/>
        <pt x="49" y="318" on="1"/>
        <pt x="49" y="437" on="0"/>
        <pt x="152" y="609" on="0"/>
        <pt x="310" y="688" on="0"/>
        <pt x="404" y="688" on="1"/>
        <pt x="544" y="688" on="0"/>
        <pt x="652" y="605" on="1"/>
        <pt x="704" y="565" on="0"/>
        <pt x="767" y="436" on="0"/>
      </contour>
      <contour>
        <pt x="115" y="316" on="1"/>
        <pt x="115" y="187" on="0"/>
        <pt x="262" y="33" on="0"/>
        <pt x="384" y="33" on="1"/>
        <pt x="525" y="33" on="0"/>
        <pt x="696" y="206" on="0"/>
        <pt x="696" y="471" on="0"/>
        <pt x="524" y="629" on="0"/>
        <pt x="278" y="629" on="0"/>
        <pt x="115" y="468" on="0"/>
      </contour>
      <contour>
        <pt x="304" y="837" on="1"/>
        <pt x="317" y="837" on="0"/>
        <pt x="353" y="820" on="0"/>
        <pt x="353" y="807" on="1"/>
        <pt x="353" y="778" on="0"/>
        <pt x="302" y="752" on="0"/>
        <pt x="228" y="752" on="0"/>
        <pt x="228" y="775" on="1"/>
        <pt x="228" y="837" on="0"/>
      </contour>
      <contour>
        <pt x="445" y="802" on="0"/>
        <pt x="494" y="838" on="0"/>
        <pt x="539" y="838" on="0"/>
        <pt x="576" y="817" on="0"/>
        <pt x="576" y="803" on="1"/>
        <pt x="576" y="778" on="0"/>
        <pt x="513" y="752" on="0"/>
        <pt x="490" y="752" on="1"/>
        <pt x="445" y="752" on="0"/>
        <pt x="445" y="774" on="1"/>
      </contour>
    </TTGlyph>
    <TTGlyph name="Ograve" xMin="49" yMin="-20" xMax="767" yMax="914">
      <contour>
        <pt x="767" y="264" on="0"/>
        <pt x="697" y="114" on="0"/>
        <pt x="641" y="70" on="1"/>
        <pt x="526" y="-20" on="0"/>
        <pt x="392" y="-20" on="1"/>
        <pt x="247" y="-20" on="0"/>
        <pt x="49" y="161" on="0"/>
        <pt x="49" y="318" on="1"/>
        <pt x="49" y="437" on="0"/>
        <pt x="152" y="609" on="0"/>
        <pt x="310" y="688" on="0"/>
        <pt x="404" y="688" on="1"/>
        <pt x="544" y="688" on="0"/>
        <pt x="652" y="605" on="1"/>
        <pt x="704" y="565" on="0"/>
        <pt x="767" y="436" on="0"/>
      </contour>
      <contour>
        <pt x="115" y="316" on="1"/>
        <pt x="115" y="187" on="0"/>
        <pt x="262" y="33" on="0"/>
        <pt x="384" y="33" on="1"/>
        <pt x="525" y="33" on="0"/>
        <pt x="696" y="206" on="0"/>
        <pt x="696" y="471" on="0"/>
        <pt x="524" y="629" on="0"/>
        <pt x="278" y="629" on="0"/>
        <pt x="115" y="468" on="0"/>
      </contour>
      <contour>
        <pt x="489" y="806" on="1"/>
        <pt x="502" y="801" on="0"/>
        <pt x="502" y="792" on="1"/>
        <pt x="502" y="785" on="0"/>
        <pt x="481" y="755" on="0"/>
        <pt x="464" y="755" on="1"/>
        <pt x="458" y="755" on="0"/>
        <pt x="455" y="757" on="1"/>
        <pt x="373" y="786" on="0"/>
        <pt x="272" y="867" on="1"/>
        <pt x="265" y="873" on="0"/>
        <pt x="265" y="885" on="0"/>
        <pt x="270" y="896" on="1"/>
        <pt x="279" y="914" on="0"/>
        <pt x="304" y="914" on="1"/>
        <pt x="311" y="914" on="0"/>
        <pt x="317" y="911" on="1"/>
        <pt x="417" y="832" on="0"/>
      </contour>
    </TTGlyph>
    <TTGlyph name="Oslash" xMin="50" yMin="-20" xMax="765" yMax="762">
      <contour>
        <pt x="649" y="625" on="1"/>
        <pt x="765" y="527" on="0"/>
        <pt x="765" y="395" on="1"/>
        <pt x="765" y="300" on="0"/>
        <pt x="644" y="130" on="0"/>
        <pt x="460" y="33" on="0"/>
        <pt x="294" y="33" on="0"/>
        <pt x="231" y="61" on="1"/>
        <pt x="226" y="55" on="0"/>
        <pt x="207" y="30" on="0"/>
        <pt x="192" y="11" on="0"/>
        <pt x="183" y="1" on="1"/>
        <pt x="164" y="-20" on="0"/>
        <pt x="138" y="-20" on="0"/>
        <pt x="115" y="-3" on="0"/>
        <pt x="115" y="18" on="0"/>
        <pt x="177" y="90" on="1"/>
        <pt x="50" y="175" on="0"/>
        <pt x="50" y="330" on="1"/>
        <pt x="50" y="403" on="0"/>
        <pt x="80" y="482" on="1"/>
        <pt x="82" y="485" on="0"/>
        <pt x="94" y="516" on="1"/>
        <pt x="121" y="582" on="0"/>
        <pt x="140" y="588" on="1"/>
        <pt x="189" y="651" on="0"/>
        <pt x="327" y="721" on="0"/>
        <pt x="404" y="721" on="1"/>
        <pt x="505" y="721" on="0"/>
        <pt x="600" y="661" on="1"/>
        <pt x="605" y="667" on="0"/>
        <pt x="629" y="698" on="0"/>
        <pt x="648" y="722" on="0"/>
        <pt x="660" y="735" on="1"/>
        <pt x="685" y="762" on="0"/>
        <pt x="713" y="762" on="0"/>
        <pt x="736" y="745" on="0"/>
        <pt x="736" y="727" on="0"/>
        <pt x="705" y="687" on="0"/>
        <pt x="655" y="632" on="0"/>
      </contour>
      <contour>
        <pt x="322" y="668" on="0"/>
        <pt x="184" y="567" on="0"/>
        <pt x="110" y="392" on="0"/>
        <pt x="110" y="317" on="1"/>
        <pt x="110" y="187" on="0"/>
        <pt x="206" y="127" on="1"/>
        <pt x="266" y="205" on="0"/>
        <pt x="505" y="540" on="0"/>
        <pt x="571" y="623" on="1"/>
        <pt x="497" y="668" on="0"/>
      </contour>
      <contour>
        <pt x="695" y="332" on="1"/>
        <pt x="705" y="365" on="0"/>
        <pt x="705" y="401" on="1"/>
        <pt x="705" y="509" on="0"/>
        <pt x="620" y="587" on="1"/>
        <pt x="556" y="505" on="0"/>
        <pt x="322" y="177" on="0"/>
        <pt x="263" y="101" on="1"/>
        <pt x="323" y="86" on="0"/>
        <pt x="355" y="86" on="1"/>
        <pt x="467" y="86" on="0"/>
        <pt x="664" y="226" on="0"/>
      </contour>
    </TTGlyph>
    <TTGlyph name="Otilde" xMin="49" yMin="-20" xMax="767" yMax="863">
      <contour>
        <pt x="767" y="264" on="0"/>
        <pt x="697" y="114" on="0"/>
        <pt x="641" y="70" on="1"/>
        <pt x="526" y="-20" on="0"/>
        <pt x="392" y="-20" on="1"/>
        <pt x="247" y="-20" on="0"/>
        <pt x="49" y="161" on="0"/>
        <pt x="49" y="318" on="1"/>
        <pt x="49" y="437" on="0"/>
        <pt x="152" y="609" on="0"/>
        <pt x="310" y="688" on="0"/>
        <pt x="404" y="688" on="1"/>
        <pt x="544" y="688" on="0"/>
        <pt x="652" y="605" on="1"/>
        <pt x="704" y="565" on="0"/>
        <pt x="767" y="436" on="0"/>
      </contour>
      <contour>
        <pt x="115" y="316" on="1"/>
        <pt x="115" y="187" on="0"/>
        <pt x="262" y="33" on="0"/>
        <pt x="384" y="33" on="1"/>
        <pt x="525" y="33" on="0"/>
        <pt x="696" y="206" on="0"/>
        <pt x="696" y="471" on="0"/>
        <pt x="524" y="629" on="0"/>
        <pt x="278" y="629" on="0"/>
        <pt x="115" y="468" on="0"/>
      </contour>
      <contour>
        <pt x="291" y="760" on="1"/>
        <pt x="280" y="747" on="0"/>
        <pt x="222" y="747" on="0"/>
        <pt x="222" y="760" on="1"/>
        <pt x="222" y="765" on="0"/>
        <pt x="226" y="771" on="1"/>
        <pt x="290" y="847" on="0"/>
        <pt x="346" y="847" on="1"/>
        <pt x="378" y="847" on="0"/>
        <pt x="464" y="795" on="0"/>
        <pt x="484" y="795" on="0"/>
        <pt x="497" y="807" on="0"/>
        <pt x="501" y="813" on="1"/>
        <pt x="509" y="825" on="0"/>
        <pt x="520" y="847" on="1"/>
        <pt x="529" y="863" on="0"/>
        <pt x="558" y="863" on="1"/>
        <pt x="560" y="863" on="0"/>
        <pt x="562" y="863" on="1"/>
        <pt x="590" y="862" on="0"/>
        <pt x="588" y="844" on="1"/>
        <pt x="585" y="835" on="1"/>
        <pt x="541" y="745" on="0"/>
        <pt x="464" y="745" on="1"/>
        <pt x="438" y="745" on="0"/>
        <pt x="355" y="795" on="0"/>
        <pt x="342" y="795" on="1"/>
        <pt x="320" y="795" on="0"/>
      </contour>
    </TTGlyph>
    <TTGlyph name="P" xMin="75" yMin="-16" xMax="645" yMax="708">
      <contour>
        <pt x="88" y="322" on="1"/>
        <pt x="88" y="478" on="0"/>
        <pt x="75" y="597" on="1"/>
        <pt x="75" y="628" on="0"/>
        <pt x="127" y="674" on="0"/>
        <pt x="170" y="686" on="1"/>
        <pt x="256" y="708" on="0"/>
        <pt x="359" y="708" on="1"/>
        <pt x="492" y="708" on="0"/>
        <pt x="645" y="591" on="0"/>
        <pt x="645" y="349" on="0"/>
        <pt x="449" y="203" on="0"/>
        <pt x="308" y="203" on="1"/>
        <pt x="236" y="203" on="0"/>
        <pt x="157" y="233" on="1"/>
        <pt x="152" y="185" on="0"/>
        <pt x="152" y="103" on="1"/>
        <pt x="153" y="54" on="1"/>
        <pt x="153" y="30" on="0"/>
        <pt x="152" y="4" on="1"/>
        <pt x="147" y="-3" on="0"/>
        <pt x="135" y="-9" on="0"/>
        <pt x="130" y="-12" on="0"/>
        <pt x="120" y="-14" on="0"/>
        <pt x="118" y="-14" on="1"/>
        <pt x="112" y="-16" on="0"/>
        <pt x="104" y="-16" on="1"/>
        <pt x="87" y="-16" on="1"/>
        <pt x="85" y="59" on="0"/>
        <pt x="85" y="119" on="1"/>
      </contour>
      <contour>
        <pt x="155" y="305" on="1"/>
        <pt x="228" y="256" on="0"/>
        <pt x="432" y="257" on="0"/>
        <pt x="572" y="382" on="0"/>
        <pt x="572" y="564" on="0"/>
        <pt x="428" y="654" on="0"/>
        <pt x="227" y="654" on="0"/>
        <pt x="150" y="608" on="1"/>
        <pt x="155" y="543" on="0"/>
      </contour>
    </TTGlyph>
    <TTGlyph name="Q" xMin="49" yMin="-27" xMax="730" yMax="711">
      <contour>
        <pt x="730" y="393" on="1"/>
        <pt x="730" y="190" on="0"/>
        <pt x="609" y="84" on="1"/>
        <pt x="631" y="60" on="0"/>
        <pt x="647" y="44" on="1"/>
        <pt x="654" y="35" on="0"/>
        <pt x="702" y="14" on="0"/>
        <pt x="720" y="-6" on="0"/>
        <pt x="720" y="-22" on="1"/>
        <pt x="708" y="-27" on="0"/>
        <pt x="674" y="-27" on="0"/>
        <pt x="612" y="-1" on="0"/>
        <pt x="593" y="21" on="1"/>
        <pt x="564" y="52" on="1"/>
        <pt x="481" y="2" on="0"/>
        <pt x="364" y="2" on="1"/>
        <pt x="219" y="2" on="0"/>
        <pt x="49" y="183" on="0"/>
        <pt x="49" y="316" on="1"/>
        <pt x="49" y="412" on="0"/>
        <pt x="118" y="590" on="0"/>
        <pt x="259" y="711" on="0"/>
        <pt x="349" y="711" on="1"/>
        <pt x="495" y="711" on="0"/>
        <pt x="608" y="633" on="1"/>
        <pt x="663" y="595" on="0"/>
        <pt x="730" y="470" on="0"/>
      </contour>
      <contour>
        <pt x="536" y="164" on="1"/>
        <pt x="570" y="126" on="1"/>
        <pt x="656" y="209" on="0"/>
        <pt x="656" y="511" on="0"/>
        <pt x="491" y="655" on="0"/>
        <pt x="353" y="655" on="1"/>
        <pt x="290" y="655" on="0"/>
        <pt x="180" y="554" on="0"/>
        <pt x="120" y="407" on="0"/>
        <pt x="120" y="279" on="0"/>
        <pt x="147" y="185" on="0"/>
        <pt x="203" y="104" on="0"/>
        <pt x="305" y="57" on="0"/>
        <pt x="460" y="57" on="0"/>
        <pt x="524" y="92" on="1"/>
        <pt x="437" y="179" on="0"/>
        <pt x="409" y="211" on="0"/>
        <pt x="402" y="232" on="1"/>
        <pt x="413" y="240" on="0"/>
        <pt x="426" y="240" on="1"/>
        <pt x="469" y="240" on="0"/>
      </contour>
    </TTGlyph>
    <TTGlyph name="R" xMin="77" yMin="-24" xMax="706" yMax="715">
      <contour>
        <pt x="150" y="192" on="1"/>
        <pt x="153" y="41" on="1"/>
        <pt x="153" y="10" on="0"/>
        <pt x="125" y="-12" on="0"/>
        <pt x="101" y="-12" on="0"/>
        <pt x="90" y="-9" on="1"/>
        <pt x="77" y="98" on="0"/>
        <pt x="77" y="302" on="0"/>
        <pt x="90" y="560" on="0"/>
        <pt x="91" y="635" on="1"/>
        <pt x="91" y="715" on="0"/>
        <pt x="305" y="715" on="1"/>
        <pt x="418" y="715" on="0"/>
        <pt x="518" y="668" on="1"/>
        <pt x="570" y="644" on="0"/>
        <pt x="636" y="557" on="0"/>
        <pt x="636" y="450" on="0"/>
        <pt x="588" y="364" on="0"/>
        <pt x="514" y="307" on="0"/>
        <pt x="466" y="286" on="1"/>
        <pt x="387" y="250" on="0"/>
        <pt x="290" y="238" on="1"/>
        <pt x="338" y="211" on="0"/>
        <pt x="446" y="108" on="1"/>
        <pt x="478" y="77" on="0"/>
        <pt x="576" y="28" on="0"/>
        <pt x="628" y="28" on="1"/>
        <pt x="633" y="28" on="0"/>
        <pt x="665" y="33" on="0"/>
        <pt x="687" y="35" on="0"/>
        <pt x="706" y="24" on="0"/>
        <pt x="706" y="10" on="1"/>
        <pt x="706" y="-24" on="0"/>
        <pt x="621" y="-24" on="1"/>
        <pt x="522" y="-24" on="0"/>
        <pt x="424" y="52" on="1"/>
        <pt x="381" y="84" on="0"/>
        <pt x="340" y="118" on="1"/>
        <pt x="239" y="203" on="0"/>
        <pt x="151" y="225" on="1"/>
        <pt x="150" y="216" on="0"/>
      </contour>
      <contour>
        <pt x="561" y="491" on="1"/>
        <pt x="561" y="575" on="0"/>
        <pt x="410" y="660" on="0"/>
        <pt x="294" y="660" on="1"/>
        <pt x="221" y="660" on="0"/>
        <pt x="158" y="644" on="1"/>
        <pt x="158" y="565" on="0"/>
        <pt x="148" y="372" on="0"/>
        <pt x="148" y="300" on="0"/>
        <pt x="149" y="283" on="1"/>
        <pt x="297" y="294" on="0"/>
        <pt x="378" y="318" on="1"/>
        <pt x="465" y="343" on="0"/>
        <pt x="508" y="380" on="1"/>
        <pt x="561" y="426" on="0"/>
      </contour>
    </TTGlyph>
    <TTGlyph name="S" xMin="40" yMin="-31" xMax="584" yMax="722">
      <contour>
        <pt x="178" y="698" on="0"/>
        <pt x="268" y="722" on="0"/>
        <pt x="356" y="722" on="0"/>
        <pt x="433" y="711" on="0"/>
        <pt x="514" y="685" on="0"/>
        <pt x="566" y="631" on="0"/>
        <pt x="569" y="594" on="1"/>
        <pt x="570" y="579" on="0"/>
        <pt x="545" y="564" on="0"/>
        <pt x="514" y="564" on="0"/>
        <pt x="499" y="579" on="0"/>
        <pt x="492" y="594" on="1"/>
        <pt x="454" y="671" on="0"/>
        <pt x="326" y="671" on="1"/>
        <pt x="239" y="671" on="0"/>
        <pt x="128" y="597" on="0"/>
        <pt x="128" y="526" on="1"/>
        <pt x="128" y="486" on="0"/>
        <pt x="178" y="429" on="0"/>
        <pt x="259" y="397" on="0"/>
        <pt x="356" y="371" on="0"/>
        <pt x="453" y="339" on="0"/>
        <pt x="534" y="295" on="0"/>
        <pt x="584" y="216" on="0"/>
        <pt x="584" y="161" on="1"/>
        <pt x="584" y="81" on="0"/>
        <pt x="427" y="-31" on="0"/>
        <pt x="308" y="-31" on="1"/>
        <pt x="216" y="-31" on="0"/>
        <pt x="40" y="47" on="0"/>
        <pt x="40" y="88" on="1"/>
        <pt x="40" y="99" on="0"/>
        <pt x="66" y="118" on="0"/>
        <pt x="91" y="118" on="0"/>
        <pt x="113" y="103" on="0"/>
        <pt x="141" y="77" on="0"/>
        <pt x="152" y="70" on="1"/>
        <pt x="228" y="22" on="0"/>
        <pt x="322" y="22" on="1"/>
        <pt x="388" y="22" on="0"/>
        <pt x="514" y="103" on="0"/>
        <pt x="514" y="171" on="1"/>
        <pt x="514" y="217" on="0"/>
        <pt x="446" y="278" on="0"/>
        <pt x="344" y="305" on="0"/>
        <pt x="225" y="339" on="0"/>
        <pt x="123" y="375" on="0"/>
        <pt x="55" y="455" on="0"/>
        <pt x="55" y="566" on="0"/>
        <pt x="102" y="649" on="0"/>
      </contour>
    </TTGlyph>
    <TTGlyph name="T" xMin="-13" yMin="-18" xMax="662" yMax="715">
      <contour>
        <pt x="-13" y="667" on="1"/>
        <pt x="-13" y="715" on="0"/>
        <pt x="331" y="715" on="1"/>
        <pt x="410" y="715" on="0"/>
        <pt x="658" y="702" on="0"/>
        <pt x="662" y="690" on="1"/>
        <pt x="660" y="645" on="0"/>
        <pt x="579" y="645" on="1"/>
        <pt x="556" y="645" on="0"/>
        <pt x="448" y="655" on="0"/>
        <pt x="371" y="655" on="0"/>
        <pt x="371" y="638" on="1"/>
        <pt x="371" y="423" on="0"/>
        <pt x="361" y="-3" on="1"/>
        <pt x="340" y="-18" on="0"/>
        <pt x="299" y="-18" on="1"/>
        <pt x="298" y="26" on="0"/>
        <pt x="298" y="87" on="1"/>
        <pt x="303" y="519" on="1"/>
        <pt x="303" y="597" on="0"/>
        <pt x="301" y="650" on="1"/>
        <pt x="280" y="652" on="0"/>
        <pt x="213" y="652" on="0"/>
        <pt x="71" y="641" on="0"/>
        <pt x="42" y="641" on="1"/>
        <pt x="-13" y="641" on="0"/>
      </contour>
    </TTGlyph>
    <TTGlyph name="U" xMin="69" yMin="-24" xMax="636" yMax="715">
      <contour>
        <pt x="99" y="692" on="1"/>
        <pt x="131" y="713" on="0"/>
        <pt x="155" y="704" on="1"/>
        <pt x="167" y="700" on="0"/>
        <pt x="164" y="682" on="1"/>
        <pt x="134" y="484" on="0"/>
        <pt x="134" y="335" on="0"/>
        <pt x="151" y="226" on="0"/>
        <pt x="192" y="107" on="0"/>
        <pt x="280" y="34" on="0"/>
        <pt x="343" y="34" on="1"/>
        <pt x="431" y="34" on="0"/>
        <pt x="564" y="249" on="0"/>
        <pt x="564" y="552" on="0"/>
        <pt x="493" y="697" on="1"/>
        <pt x="514" y="715" on="0"/>
        <pt x="547" y="715" on="0"/>
        <pt x="556" y="712" on="1"/>
        <pt x="636" y="597" on="0"/>
        <pt x="636" y="413" on="1"/>
        <pt x="636" y="262" on="0"/>
        <pt x="558" y="124" on="1"/>
        <pt x="520" y="59" on="0"/>
        <pt x="396" y="-24" on="0"/>
        <pt x="261" y="-24" on="0"/>
        <pt x="168" y="33" on="0"/>
        <pt x="115" y="120" on="0"/>
        <pt x="98" y="178" on="1"/>
        <pt x="69" y="278" on="0"/>
        <pt x="69" y="397" on="1"/>
        <pt x="69" y="573" on="0"/>
      </contour>
    </TTGlyph>
    <TTGlyph name="Uacute" xMin="69" yMin="-24" xMax="636" yMax="933">
      <contour>
        <pt x="99" y="692" on="1"/>
        <pt x="131" y="713" on="0"/>
        <pt x="155" y="704" on="1"/>
        <pt x="167" y="700" on="0"/>
        <pt x="164" y="682" on="1"/>
        <pt x="134" y="484" on="0"/>
        <pt x="134" y="275" on="0"/>
        <pt x="172" y="166" on="1"/>
        <pt x="192" y="107" on="0"/>
        <pt x="280" y="34" on="0"/>
        <pt x="343" y="34" on="1"/>
        <pt x="431" y="34" on="0"/>
        <pt x="564" y="249" on="0"/>
        <pt x="564" y="552" on="0"/>
        <pt x="493" y="697" on="1"/>
        <pt x="514" y="715" on="0"/>
        <pt x="547" y="715" on="0"/>
        <pt x="556" y="712" on="1"/>
        <pt x="636" y="597" on="0"/>
        <pt x="636" y="413" on="1"/>
        <pt x="636" y="262" on="0"/>
        <pt x="558" y="124" on="1"/>
        <pt x="520" y="59" on="0"/>
        <pt x="396" y="-24" on="0"/>
        <pt x="261" y="-24" on="0"/>
        <pt x="168" y="33" on="0"/>
        <pt x="115" y="120" on="0"/>
        <pt x="98" y="178" on="1"/>
        <pt x="69" y="278" on="0"/>
        <pt x="69" y="397" on="1"/>
        <pt x="69" y="573" on="0"/>
      </contour>
      <contour>
        <pt x="267" y="829" on="0"/>
        <pt x="402" y="914" on="0"/>
        <pt x="430" y="933" on="0"/>
        <pt x="457" y="933" on="0"/>
        <pt x="492" y="922" on="0"/>
        <pt x="492" y="914" on="1"/>
        <pt x="492" y="908" on="0"/>
        <pt x="469" y="892" on="0"/>
        <pt x="333" y="805" on="0"/>
        <pt x="299" y="779" on="1"/>
        <pt x="291" y="773" on="0"/>
        <pt x="265" y="773" on="0"/>
        <pt x="227" y="785" on="0"/>
        <pt x="227" y="793" on="1"/>
        <pt x="227" y="797" on="0"/>
        <pt x="233" y="803" on="1"/>
      </contour>
    </TTGlyph>
    <TTGlyph name="Ucircumflex" xMin="69" yMin="-24" xMax="636" yMax="884">
      <contour>
        <pt x="99" y="692" on="1"/>
        <pt x="131" y="713" on="0"/>
        <pt x="155" y="704" on="1"/>
        <pt x="167" y="700" on="0"/>
        <pt x="164" y="682" on="1"/>
        <pt x="134" y="484" on="0"/>
        <pt x="134" y="275" on="0"/>
        <pt x="172" y="166" on="1"/>
        <pt x="192" y="107" on="0"/>
        <pt x="280" y="34" on="0"/>
        <pt x="343" y="34" on="1"/>
        <pt x="431" y="34" on="0"/>
        <pt x="564" y="249" on="0"/>
        <pt x="564" y="552" on="0"/>
        <pt x="493" y="697" on="1"/>
        <pt x="514" y="715" on="0"/>
        <pt x="547" y="715" on="0"/>
        <pt x="556" y="712" on="1"/>
        <pt x="636" y="597" on="0"/>
        <pt x="636" y="413" on="1"/>
        <pt x="636" y="262" on="0"/>
        <pt x="558" y="124" on="1"/>
        <pt x="520" y="59" on="0"/>
        <pt x="396" y="-24" on="0"/>
        <pt x="261" y="-24" on="0"/>
        <pt x="168" y="33" on="0"/>
        <pt x="115" y="120" on="0"/>
        <pt x="98" y="178" on="1"/>
        <pt x="69" y="278" on="0"/>
        <pt x="69" y="397" on="1"/>
        <pt x="69" y="573" on="0"/>
      </contour>
      <contour>
        <pt x="241" y="857" on="0"/>
        <pt x="303" y="884" on="0"/>
        <pt x="376" y="884" on="0"/>
        <pt x="423" y="861" on="0"/>
        <pt x="450" y="833" on="0"/>
        <pt x="484" y="795" on="0"/>
        <pt x="496" y="786" on="1"/>
        <pt x="499" y="783" on="0"/>
        <pt x="499" y="780" on="1"/>
        <pt x="499" y="774" on="0"/>
        <pt x="462" y="763" on="0"/>
        <pt x="424" y="763" on="0"/>
        <pt x="345" y="844" on="0"/>
        <pt x="327" y="852" on="1"/>
        <pt x="315" y="845" on="0"/>
        <pt x="265" y="799" on="0"/>
        <pt x="213" y="774" on="0"/>
        <pt x="155" y="774" on="0"/>
        <pt x="154" y="780" on="1"/>
        <pt x="156" y="784" on="1"/>
        <pt x="162" y="788" on="0"/>
      </contour>
    </TTGlyph>
    <TTGlyph name="Udieresis" xMin="69" yMin="-24" xMax="636" yMax="855">
      <contour>
        <pt x="99" y="692" on="1"/>
        <pt x="131" y="713" on="0"/>
        <pt x="155" y="704" on="1"/>
        <pt x="167" y="700" on="0"/>
        <pt x="164" y="682" on="1"/>
        <pt x="134" y="484" on="0"/>
        <pt x="134" y="275" on="0"/>
        <pt x="172" y="166" on="1"/>
        <pt x="192" y="107" on="0"/>
        <pt x="280" y="34" on="0"/>
        <pt x="343" y="34" on="1"/>
        <pt x="431" y="34" on="0"/>
        <pt x="564" y="249" on="0"/>
        <pt x="564" y="552" on="0"/>
        <pt x="493" y="697" on="1"/>
        <pt x="514" y="715" on="0"/>
        <pt x="547" y="715" on="0"/>
        <pt x="556" y="712" on="1"/>
        <pt x="636" y="597" on="0"/>
        <pt x="636" y="413" on="1"/>
        <pt x="636" y="262" on="0"/>
        <pt x="558" y="124" on="1"/>
        <pt x="520" y="59" on="0"/>
        <pt x="396" y="-24" on="0"/>
        <pt x="261" y="-24" on="0"/>
        <pt x="168" y="33" on="0"/>
        <pt x="115" y="120" on="0"/>
        <pt x="98" y="178" on="1"/>
        <pt x="69" y="278" on="0"/>
        <pt x="69" y="397" on="1"/>
        <pt x="69" y="573" on="0"/>
      </contour>
      <contour>
        <pt x="251" y="854" on="1"/>
        <pt x="264" y="854" on="0"/>
        <pt x="300" y="837" on="0"/>
        <pt x="300" y="824" on="1"/>
        <pt x="300" y="795" on="0"/>
        <pt x="249" y="769" on="0"/>
        <pt x="175" y="769" on="0"/>
        <pt x="175" y="792" on="1"/>
        <pt x="175" y="854" on="0"/>
      </contour>
      <contour>
        <pt x="392" y="819" on="0"/>
        <pt x="441" y="855" on="0"/>
        <pt x="486" y="855" on="0"/>
        <pt x="523" y="834" on="0"/>
        <pt x="523" y="820" on="1"/>
        <pt x="523" y="795" on="0"/>
        <pt x="460" y="769" on="0"/>
        <pt x="437" y="769" on="1"/>
        <pt x="392" y="769" on="0"/>
        <pt x="392" y="791" on="1"/>
      </contour>
    </TTGlyph>
    <TTGlyph name="Ugrave" xMin="69" yMin="-24" xMax="636" yMax="924">
      <contour>
        <pt x="99" y="692" on="1"/>
        <pt x="131" y="713" on="0"/>
        <pt x="155" y="704" on="1"/>
        <pt x="167" y="700" on="0"/>
        <pt x="164" y="682" on="1"/>
        <pt x="134" y="484" on="0"/>
        <pt x="134" y="275" on="0"/>
        <pt x="172" y="166" on="1"/>
        <pt x="192" y="107" on="0"/>
        <pt x="280" y="34" on="0"/>
        <pt x="343" y="34" on="1"/>
        <pt x="431" y="34" on="0"/>
        <pt x="564" y="249" on="0"/>
        <pt x="564" y="552" on="0"/>
        <pt x="493" y="697" on="1"/>
        <pt x="514" y="715" on="0"/>
        <pt x="547" y="715" on="0"/>
        <pt x="556" y="712" on="1"/>
        <pt x="636" y="597" on="0"/>
        <pt x="636" y="413" on="1"/>
        <pt x="636" y="262" on="0"/>
        <pt x="558" y="124" on="1"/>
        <pt x="520" y="59" on="0"/>
        <pt x="396" y="-24" on="0"/>
        <pt x="261" y="-24" on="0"/>
        <pt x="168" y="33" on="0"/>
        <pt x="115" y="120" on="0"/>
        <pt x="98" y="178" on="1"/>
        <pt x="69" y="278" on="0"/>
        <pt x="69" y="397" on="1"/>
        <pt x="69" y="573" on="0"/>
      </contour>
      <contour>
        <pt x="419" y="816" on="1"/>
        <pt x="432" y="811" on="0"/>
        <pt x="432" y="802" on="1"/>
        <pt x="432" y="795" on="0"/>
        <pt x="411" y="765" on="0"/>
        <pt x="394" y="765" on="1"/>
        <pt x="388" y="765" on="0"/>
        <pt x="385" y="767" on="1"/>
        <pt x="303" y="796" on="0"/>
        <pt x="202" y="877" on="1"/>
        <pt x="195" y="883" on="0"/>
        <pt x="195" y="895" on="0"/>
        <pt x="200" y="906" on="1"/>
        <pt x="209" y="924" on="0"/>
        <pt x="234" y="924" on="1"/>
        <pt x="241" y="924" on="0"/>
        <pt x="247" y="921" on="1"/>
        <pt x="347" y="842" on="0"/>
      </contour>
    </TTGlyph>
    <TTGlyph name="V" xMin="12" yMin="-24" xMax="673" yMax="715">
      <contour>
        <pt x="12" y="687" on="1"/>
        <pt x="21" y="711" on="0"/>
        <pt x="54" y="711" on="1"/>
        <pt x="64" y="711" on="0"/>
        <pt x="72" y="707" on="1"/>
        <pt x="106" y="632" on="0"/>
        <pt x="194" y="360" on="0"/>
        <pt x="285" y="124" on="0"/>
        <pt x="341" y="43" on="1"/>
        <pt x="396" y="59" on="0"/>
        <pt x="459" y="294" on="1"/>
        <pt x="485" y="391" on="0"/>
        <pt x="539" y="583" on="0"/>
        <pt x="607" y="715" on="0"/>
        <pt x="643" y="715" on="1"/>
        <pt x="657" y="715" on="0"/>
        <pt x="673" y="707" on="1"/>
        <pt x="647" y="682" on="0"/>
        <pt x="589" y="510" on="0"/>
        <pt x="533" y="307" on="0"/>
        <pt x="470" y="108" on="0"/>
        <pt x="383" y="-24" on="0"/>
        <pt x="334" y="-24" on="1"/>
        <pt x="266" y="-24" on="0"/>
        <pt x="178" y="206" on="1"/>
        <pt x="131" y="326" on="0"/>
        <pt x="83" y="465" on="0"/>
        <pt x="20" y="664" on="0"/>
      </contour>
    </TTGlyph>
    <TTGlyph name="W" xMin="67" yMin="-22" xMax="986" yMax="714">
      <contour>
        <pt x="186" y="711" on="1"/>
        <pt x="183" y="685" on="0"/>
        <pt x="164" y="557" on="0"/>
        <pt x="159" y="516" on="1"/>
        <pt x="144" y="393" on="0"/>
        <pt x="144" y="233" on="0"/>
        <pt x="155" y="144" on="0"/>
        <pt x="179" y="65" on="0"/>
        <pt x="226" y="19" on="0"/>
        <pt x="258" y="19" on="1"/>
        <pt x="304" y="19" on="0"/>
        <pt x="375" y="119" on="0"/>
        <pt x="415" y="276" on="0"/>
        <pt x="444" y="436" on="0"/>
        <pt x="471" y="588" on="0"/>
        <pt x="483" y="616" on="1"/>
        <pt x="510" y="634" on="0"/>
        <pt x="538" y="634" on="0"/>
        <pt x="545" y="631" on="1"/>
        <pt x="551" y="583" on="0"/>
        <pt x="564" y="330" on="0"/>
        <pt x="587" y="190" on="0"/>
        <pt x="624" y="92" on="0"/>
        <pt x="698" y="27" on="0"/>
        <pt x="795" y="27" on="0"/>
        <pt x="857" y="117" on="0"/>
        <pt x="871" y="192" on="1"/>
        <pt x="896" y="326" on="0"/>
        <pt x="896" y="611" on="0"/>
        <pt x="872" y="691" on="1"/>
        <pt x="897" y="709" on="0"/>
        <pt x="939" y="709" on="0"/>
        <pt x="969" y="643" on="0"/>
        <pt x="975" y="592" on="1"/>
        <pt x="986" y="500" on="0"/>
        <pt x="986" y="350" on="0"/>
        <pt x="958" y="198" on="0"/>
        <pt x="899" y="67" on="0"/>
        <pt x="794" y="-10" on="0"/>
        <pt x="725" y="-10" on="1"/>
        <pt x="679" y="-9" on="0"/>
        <pt x="606" y="34" on="0"/>
        <pt x="562" y="93" on="0"/>
        <pt x="544" y="141" on="1"/>
        <pt x="518" y="210" on="0"/>
        <pt x="500" y="317" on="1"/>
        <pt x="458" y="170" on="0"/>
        <pt x="429" y="114" on="1"/>
        <pt x="358" y="-21" on="0"/>
        <pt x="234" y="-22" on="1"/>
        <pt x="154" y="-22" on="0"/>
        <pt x="114" y="36" on="1"/>
        <pt x="79" y="88" on="0"/>
        <pt x="70" y="182" on="1"/>
        <pt x="67" y="222" on="0"/>
        <pt x="67" y="273" on="1"/>
        <pt x="67" y="440" on="0"/>
        <pt x="121" y="699" on="1"/>
        <pt x="147" y="714" on="0"/>
        <pt x="178" y="714" on="0"/>
      </contour>
    </TTGlyph>
    <TTGlyph name="X" xMin="0" yMin="-26" xMax="651" yMax="717">
      <contour>
        <pt x="576" y="713" on="1"/>
        <pt x="487" y="538" on="0"/>
        <pt x="371" y="364" on="1"/>
        <pt x="432" y="275" on="0"/>
        <pt x="619" y="50" on="0"/>
        <pt x="651" y="10" on="1"/>
        <pt x="650" y="-1" on="0"/>
        <pt x="620" y="-16" on="0"/>
        <pt x="604" y="-16" on="1"/>
        <pt x="571" y="-16" on="0"/>
        <pt x="470" y="99" on="0"/>
        <pt x="344" y="285" on="0"/>
        <pt x="331" y="302" on="1"/>
        <pt x="314" y="282" on="0"/>
        <pt x="258" y="193" on="0"/>
        <pt x="203" y="109" on="0"/>
        <pt x="137" y="25" on="0"/>
        <pt x="57" y="-26" on="0"/>
        <pt x="17" y="-26" on="1"/>
        <pt x="6" y="-26" on="0"/>
        <pt x="0" y="-25" on="1"/>
        <pt x="67" y="53" on="0"/>
        <pt x="106" y="99" on="1"/>
        <pt x="215" y="230" on="0"/>
        <pt x="292" y="352" on="1"/>
        <pt x="241" y="418" on="0"/>
        <pt x="99" y="576" on="0"/>
        <pt x="32" y="659" on="0"/>
        <pt x="32" y="690" on="0"/>
        <pt x="63" y="704" on="0"/>
        <pt x="79" y="704" on="1"/>
        <pt x="104" y="704" on="0"/>
        <pt x="180" y="609" on="0"/>
        <pt x="288" y="454" on="0"/>
        <pt x="329" y="412" on="1"/>
        <pt x="355" y="454" on="0"/>
        <pt x="420" y="582" on="0"/>
        <pt x="459" y="658" on="0"/>
        <pt x="517" y="717" on="0"/>
        <pt x="548" y="717" on="1"/>
        <pt x="556" y="717" on="0"/>
      </contour>
    </TTGlyph>
    <TTGlyph name="Y" xMin="19" yMin="-20" xMax="600" yMax="712">
      <contour>
        <pt x="336" y="320" on="1"/>
        <pt x="346" y="346" on="0"/>
        <pt x="389" y="458" on="0"/>
        <pt x="413" y="517" on="0"/>
        <pt x="452" y="605" on="0"/>
        <pt x="478" y="644" on="0"/>
        <pt x="496" y="666" on="1"/>
        <pt x="527" y="704" on="0"/>
        <pt x="574" y="704" on="1"/>
        <pt x="583" y="704" on="0"/>
        <pt x="600" y="699" on="1"/>
        <pt x="562" y="677" on="0"/>
        <pt x="450" y="441" on="0"/>
        <pt x="357" y="187" on="0"/>
        <pt x="254" y="-20" on="0"/>
        <pt x="222" y="-20" on="1"/>
        <pt x="209" y="-20" on="0"/>
        <pt x="194" y="-14" on="1"/>
        <pt x="213" y="27" on="0"/>
        <pt x="282" y="206" on="0"/>
        <pt x="307" y="255" on="1"/>
        <pt x="168" y="404" on="0"/>
        <pt x="19" y="628" on="0"/>
        <pt x="19" y="687" on="1"/>
        <pt x="19" y="697" on="0"/>
        <pt x="43" y="712" on="0"/>
        <pt x="73" y="712" on="0"/>
        <pt x="95" y="678" on="0"/>
        <pt x="126" y="607" on="0"/>
        <pt x="171" y="518" on="0"/>
        <pt x="269" y="386" on="0"/>
      </contour>
    </TTGlyph>
    <TTGlyph name="Ydieresis" xMin="19" yMin="-20" xMax="600" yMax="852">
      <contour>
        <pt x="336" y="320" on="1"/>
        <pt x="406" y="502" on="0"/>
        <pt x="432" y="562" on="1"/>
        <pt x="451" y="605" on="0"/>
        <pt x="478" y="645" on="0"/>
        <pt x="514" y="688" on="0"/>
        <pt x="552" y="704" on="0"/>
        <pt x="583" y="704" on="0"/>
        <pt x="600" y="699" on="1"/>
        <pt x="562" y="677" on="0"/>
        <pt x="450" y="441" on="0"/>
        <pt x="357" y="187" on="0"/>
        <pt x="254" y="-20" on="0"/>
        <pt x="222" y="-20" on="1"/>
        <pt x="209" y="-20" on="0"/>
        <pt x="194" y="-14" on="1"/>
        <pt x="213" y="27" on="0"/>
        <pt x="282" y="206" on="0"/>
        <pt x="307" y="255" on="1"/>
        <pt x="168" y="404" on="0"/>
        <pt x="19" y="628" on="0"/>
        <pt x="19" y="687" on="1"/>
        <pt x="19" y="697" on="0"/>
        <pt x="43" y="712" on="0"/>
        <pt x="73" y="712" on="0"/>
        <pt x="95" y="678" on="0"/>
        <pt x="126" y="607" on="0"/>
        <pt x="171" y="518" on="0"/>
        <pt x="269" y="386" on="0"/>
      </contour>
      <contour>
        <pt x="202" y="851" on="1"/>
        <pt x="215" y="851" on="0"/>
        <pt x="251" y="834" on="0"/>
        <pt x="251" y="821" on="1"/>
        <pt x="251" y="792" on="0"/>
        <pt x="200" y="766" on="0"/>
        <pt x="126" y="766" on="0"/>
        <pt x="126" y="789" on="1"/>
        <pt x="126" y="851" on="0"/>
      </contour>
      <contour>
        <pt x="343" y="816" on="0"/>
        <pt x="392" y="852" on="0"/>
        <pt x="437" y="852" on="0"/>
        <pt x="474" y="831" on="0"/>
        <pt x="474" y="817" on="1"/>
        <pt x="474" y="792" on="0"/>
        <pt x="411" y="766" on="0"/>
        <pt x="388" y="766" on="1"/>
        <pt x="343" y="766" on="0"/>
        <pt x="343" y="788" on="1"/>
      </contour>
    </TTGlyph>
    <TTGlyph name="Z" xMin="25" yMin="-23" xMax="626" yMax="707">
      <contour>
        <pt x="113" y="696" on="1"/>
        <pt x="548" y="707" on="1"/>
        <pt x="573" y="707" on="0"/>
        <pt x="601" y="694" on="0"/>
        <pt x="601" y="685" on="1"/>
        <pt x="601" y="679" on="0"/>
        <pt x="597" y="672" on="1"/>
        <pt x="481" y="499" on="0"/>
        <pt x="271" y="238" on="1"/>
        <pt x="171" y="113" on="0"/>
        <pt x="115" y="39" on="1"/>
        <pt x="156" y="36" on="0"/>
        <pt x="217" y="36" on="1"/>
        <pt x="517" y="43" on="1"/>
        <pt x="583" y="43" on="0"/>
        <pt x="626" y="39" on="1"/>
        <pt x="620" y="-12" on="0"/>
        <pt x="536" y="-12" on="1"/>
        <pt x="158" y="-23" on="1"/>
        <pt x="25" y="-23" on="0"/>
        <pt x="25" y="10" on="1"/>
        <pt x="25" y="19" on="0"/>
        <pt x="33" y="30" on="1"/>
        <pt x="106" y="140" on="0"/>
        <pt x="433" y="532" on="0"/>
        <pt x="511" y="651" on="1"/>
        <pt x="238" y="640" on="0"/>
        <pt x="81" y="640" on="1"/>
        <pt x="38" y="640" on="0"/>
        <pt x="38" y="664" on="1"/>
        <pt x="38" y="696" on="0"/>
      </contour>
    </TTGlyph>
    <TTGlyph name="a" xMin="40" yMin="-8" xMax="475" yMax="505">
      <contour>
        <pt x="375" y="288" on="1"/>
        <pt x="370" y="173" on="1"/>
        <pt x="370" y="86" on="0"/>
        <pt x="390" y="56" on="1"/>
        <pt x="402" y="36" on="0"/>
        <pt x="423" y="36" on="1"/>
        <pt x="429" y="36" on="0"/>
        <pt x="440" y="39" on="1"/>
        <pt x="461" y="45" on="0"/>
        <pt x="475" y="33" on="1"/>
        <pt x="468" y="-2" on="0"/>
        <pt x="405" y="-2" on="1"/>
        <pt x="362" y="-2" on="0"/>
        <pt x="348" y="34" on="1"/>
        <pt x="337" y="61" on="0"/>
        <pt x="327" y="142" on="0"/>
        <pt x="324" y="157" on="1"/>
        <pt x="259" y="33" on="0"/>
        <pt x="198" y="6" on="1"/>
        <pt x="167" y="-8" on="0"/>
        <pt x="85" y="-8" on="0"/>
        <pt x="40" y="71" on="0"/>
        <pt x="40" y="223" on="0"/>
        <pt x="90" y="390" on="0"/>
        <pt x="186" y="505" on="0"/>
        <pt x="243" y="505" on="1"/>
        <pt x="325" y="505" on="0"/>
        <pt x="352" y="437" on="1"/>
        <pt x="375" y="379" on="0"/>
      </contour>
      <contour>
        <pt x="116" y="266" on="0"/>
        <pt x="102" y="169" on="0"/>
        <pt x="102" y="94" on="0"/>
        <pt x="133" y="40" on="0"/>
        <pt x="158" y="40" on="1"/>
        <pt x="212" y="40" on="0"/>
        <pt x="312" y="244" on="0"/>
        <pt x="312" y="332" on="1"/>
        <pt x="312" y="389" on="0"/>
        <pt x="282" y="426" on="1"/>
        <pt x="262" y="450" on="0"/>
        <pt x="197" y="450" on="0"/>
        <pt x="144" y="375" on="0"/>
      </contour>
    </TTGlyph>
    <TTGlyph name="aacute" xMin="40" yMin="-8" xMax="475" yMax="699">
      <contour>
        <pt x="375" y="288" on="1"/>
        <pt x="370" y="173" on="1"/>
        <pt x="370" y="86" on="0"/>
        <pt x="390" y="56" on="1"/>
        <pt x="402" y="36" on="0"/>
        <pt x="423" y="36" on="1"/>
        <pt x="429" y="36" on="0"/>
        <pt x="440" y="39" on="1"/>
        <pt x="461" y="45" on="0"/>
        <pt x="475" y="33" on="1"/>
        <pt x="468" y="-2" on="0"/>
        <pt x="405" y="-2" on="1"/>
        <pt x="362" y="-2" on="0"/>
        <pt x="348" y="34" on="1"/>
        <pt x="337" y="61" on="0"/>
        <pt x="327" y="142" on="0"/>
        <pt x="324" y="157" on="1"/>
        <pt x="259" y="33" on="0"/>
        <pt x="198" y="6" on="1"/>
        <pt x="167" y="-8" on="0"/>
        <pt x="85" y="-8" on="0"/>
        <pt x="40" y="71" on="0"/>
        <pt x="40" y="223" on="0"/>
        <pt x="90" y="390" on="0"/>
        <pt x="186" y="505" on="0"/>
        <pt x="243" y="505" on="1"/>
        <pt x="325" y="505" on="0"/>
        <pt x="352" y="437" on="1"/>
        <pt x="375" y="379" on="0"/>
      </contour>
      <contour>
        <pt x="116" y="266" on="0"/>
        <pt x="102" y="169" on="0"/>
        <pt x="102" y="94" on="0"/>
        <pt x="133" y="40" on="0"/>
        <pt x="158" y="40" on="1"/>
        <pt x="212" y="40" on="0"/>
        <pt x="312" y="244" on="0"/>
        <pt x="312" y="332" on="1"/>
        <pt x="312" y="389" on="0"/>
        <pt x="282" y="426" on="1"/>
        <pt x="262" y="450" on="0"/>
        <pt x="197" y="450" on="0"/>
        <pt x="144" y="375" on="0"/>
      </contour>
      <contour>
        <pt x="148" y="595" on="0"/>
        <pt x="283" y="680" on="0"/>
        <pt x="311" y="699" on="0"/>
        <pt x="338" y="699" on="0"/>
        <pt x="373" y="688" on="0"/>
        <pt x="373" y="680" on="1"/>
        <pt x="373" y="674" on="0"/>
        <pt x="350" y="658" on="0"/>
        <pt x="214" y="571" on="0"/>
        <pt x="180" y="545" on="1"/>
        <pt x="172" y="539" on="0"/>
        <pt x="146" y="539" on="0"/>
        <pt x="108" y="551" on="0"/>
        <pt x="108" y="559" on="1"/>
        <pt x="108" y="563" on="0"/>
        <pt x="114" y="569" on="1"/>
      </contour>
    </TTGlyph>
    <TTGlyph name="acircumflex" xMin="40" yMin="-8" xMax="475" yMax="675">
      <contour>
        <pt x="375" y="288" on="1"/>
        <pt x="370" y="173" on="1"/>
        <pt x="370" y="86" on="0"/>
        <pt x="390" y="56" on="1"/>
        <pt x="402" y="36" on="0"/>
        <pt x="423" y="36" on="1"/>
        <pt x="429" y="36" on="0"/>
        <pt x="440" y="39" on="1"/>
        <pt x="461" y="45" on="0"/>
        <pt x="475" y="33" on="1"/>
        <pt x="468" y="-2" on="0"/>
        <pt x="405" y="-2" on="1"/>
        <pt x="362" y="-2" on="0"/>
        <pt x="348" y="34" on="1"/>
        <pt x="337" y="61" on="0"/>
        <pt x="327" y="142" on="0"/>
        <pt x="324" y="157" on="1"/>
        <pt x="259" y="33" on="0"/>
        <pt x="198" y="6" on="1"/>
        <pt x="167" y="-8" on="0"/>
        <pt x="85" y="-8" on="0"/>
        <pt x="40" y="71" on="0"/>
        <pt x="40" y="223" on="0"/>
        <pt x="90" y="390" on="0"/>
        <pt x="186" y="505" on="0"/>
        <pt x="243" y="505" on="1"/>
        <pt x="325" y="505" on="0"/>
        <pt x="352" y="437" on="1"/>
        <pt x="375" y="379" on="0"/>
      </contour>
      <contour>
        <pt x="116" y="266" on="0"/>
        <pt x="102" y="169" on="0"/>
        <pt x="102" y="94" on="0"/>
        <pt x="133" y="40" on="0"/>
        <pt x="158" y="40" on="1"/>
        <pt x="212" y="40" on="0"/>
        <pt x="312" y="244" on="0"/>
        <pt x="312" y="332" on="1"/>
        <pt x="312" y="389" on="0"/>
        <pt x="282" y="426" on="1"/>
        <pt x="262" y="450" on="0"/>
        <pt x="197" y="450" on="0"/>
        <pt x="144" y="375" on="0"/>
      </contour>
      <contour>
        <pt x="157" y="648" on="0"/>
        <pt x="219" y="675" on="0"/>
        <pt x="292" y="675" on="0"/>
        <pt x="339" y="652" on="0"/>
        <pt x="366" y="624" on="0"/>
        <pt x="400" y="586" on="0"/>
        <pt x="412" y="577" on="1"/>
        <pt x="415" y="574" on="0"/>
        <pt x="415" y="571" on="1"/>
        <pt x="415" y="565" on="0"/>
        <pt x="378" y="554" on="0"/>
        <pt x="340" y="554" on="0"/>
        <pt x="261" y="635" on="0"/>
        <pt x="243" y="643" on="1"/>
        <pt x="231" y="636" on="0"/>
        <pt x="181" y="590" on="0"/>
        <pt x="129" y="565" on="0"/>
        <pt x="71" y="565" on="0"/>
        <pt x="70" y="571" on="1"/>
        <pt x="72" y="575" on="1"/>
        <pt x="78" y="579" on="0"/>
      </contour>
    </TTGlyph>
    <TTGlyph name="acute" xMin="73" yMin="540" xMax="338" yMax="700">
      <contour>
        <pt x="113" y="596" on="0"/>
        <pt x="248" y="681" on="0"/>
        <pt x="276" y="700" on="0"/>
        <pt x="303" y="700" on="0"/>
        <pt x="338" y="689" on="0"/>
        <pt x="338" y="681" on="1"/>
        <pt x="338" y="675" on="0"/>
        <pt x="315" y="659" on="0"/>
        <pt x="179" y="572" on="0"/>
        <pt x="145" y="546" on="1"/>
        <pt x="137" y="540" on="0"/>
        <pt x="111" y="540" on="0"/>
        <pt x="73" y="552" on="0"/>
        <pt x="73" y="560" on="1"/>
        <pt x="73" y="564" on="0"/>
        <pt x="79" y="570" on="1"/>
      </contour>
    </TTGlyph>
    <TTGlyph name="adieresis" xMin="40" yMin="-8" xMax="475" yMax="649">
      <contour>
        <pt x="375" y="288" on="1"/>
        <pt x="370" y="173" on="1"/>
        <pt x="370" y="86" on="0"/>
        <pt x="390" y="56" on="1"/>
        <pt x="402" y="36" on="0"/>
        <pt x="423" y="36" on="1"/>
        <pt x="429" y="36" on="0"/>
        <pt x="440" y="39" on="1"/>
        <pt x="461" y="45" on="0"/>
        <pt x="475" y="33" on="1"/>
        <pt x="468" y="-2" on="0"/>
        <pt x="405" y="-2" on="1"/>
        <pt x="362" y="-2" on="0"/>
        <pt x="348" y="34" on="1"/>
        <pt x="337" y="61" on="0"/>
        <pt x="327" y="142" on="0"/>
        <pt x="324" y="157" on="1"/>
        <pt x="259" y="33" on="0"/>
        <pt x="198" y="6" on="1"/>
        <pt x="167" y="-8" on="0"/>
        <pt x="85" y="-8" on="0"/>
        <pt x="40" y="71" on="0"/>
        <pt x="40" y="223" on="0"/>
        <pt x="90" y="390" on="0"/>
        <pt x="186" y="505" on="0"/>
        <pt x="243" y="505" on="1"/>
        <pt x="325" y="505" on="0"/>
        <pt x="352" y="437" on="1"/>
        <pt x="375" y="379" on="0"/>
      </contour>
      <contour>
        <pt x="116" y="266" on="0"/>
        <pt x="102" y="169" on="0"/>
        <pt x="102" y="94" on="0"/>
        <pt x="133" y="40" on="0"/>
        <pt x="158" y="40" on="1"/>
        <pt x="212" y="40" on="0"/>
        <pt x="312" y="244" on="0"/>
        <pt x="312" y="332" on="1"/>
        <pt x="312" y="389" on="0"/>
        <pt x="282" y="426" on="1"/>
        <pt x="262" y="450" on="0"/>
        <pt x="197" y="450" on="0"/>
        <pt x="144" y="375" on="0"/>
      </contour>
      <contour>
        <pt x="155" y="648" on="1"/>
        <pt x="168" y="648" on="0"/>
        <pt x="204" y="631" on="0"/>
        <pt x="204" y="618" on="1"/>
        <pt x="204" y="589" on="0"/>
        <pt x="153" y="563" on="0"/>
        <pt x="79" y="563" on="0"/>
        <pt x="79" y="586" on="1"/>
        <pt x="79" y="648" on="0"/>
      </contour>
      <contour>
        <pt x="296" y="613" on="0"/>
        <pt x="345" y="649" on="0"/>
        <pt x="390" y="649" on="0"/>
        <pt x="427" y="628" on="0"/>
        <pt x="427" y="614" on="1"/>
        <pt x="427" y="589" on="0"/>
        <pt x="364" y="563" on="0"/>
        <pt x="341" y="563" on="1"/>
        <pt x="296" y="563" on="0"/>
        <pt x="296" y="585" on="1"/>
      </contour>
    </TTGlyph>
    <TTGlyph name="ae" xMin="40" yMin="-8" xMax="764" yMax="505">
      <contour>
        <pt x="424" y="203" on="1"/>
        <pt x="422" y="183" on="0"/>
        <pt x="422" y="176" on="1"/>
        <pt x="422" y="116" on="0"/>
        <pt x="495" y="50" on="0"/>
        <pt x="595" y="50" on="0"/>
        <pt x="658" y="78" on="0"/>
        <pt x="672" y="94" on="1"/>
        <pt x="708" y="139" on="0"/>
        <pt x="738" y="139" on="1"/>
        <pt x="749" y="139" on="0"/>
        <pt x="764" y="133" on="1"/>
        <pt x="754" y="84" on="0"/>
        <pt x="623" y="3" on="0"/>
        <pt x="524" y="3" on="1"/>
        <pt x="475" y="3" on="0"/>
        <pt x="381" y="78" on="0"/>
        <pt x="370" y="138" on="1"/>
        <pt x="359" y="0" on="0"/>
        <pt x="349" y="0" on="1"/>
        <pt x="333" y="0" on="0"/>
        <pt x="327" y="6" on="1"/>
        <pt x="320" y="13" on="0"/>
        <pt x="320" y="60" on="0"/>
        <pt x="323" y="128" on="0"/>
        <pt x="324" y="157" on="1"/>
        <pt x="259" y="33" on="0"/>
        <pt x="198" y="6" on="1"/>
        <pt x="167" y="-8" on="0"/>
        <pt x="85" y="-8" on="0"/>
        <pt x="40" y="71" on="0"/>
        <pt x="40" y="223" on="0"/>
        <pt x="90" y="390" on="0"/>
        <pt x="186" y="505" on="0"/>
        <pt x="297" y="505" on="0"/>
        <pt x="357" y="432" on="0"/>
        <pt x="371" y="336" on="0"/>
        <pt x="371" y="259" on="0"/>
        <pt x="369" y="226" on="1"/>
        <pt x="384" y="342" on="0"/>
        <pt x="517" y="494" on="0"/>
        <pt x="596" y="494" on="1"/>
        <pt x="648" y="494" on="0"/>
        <pt x="721" y="445" on="0"/>
        <pt x="721" y="398" on="1"/>
        <pt x="721" y="311" on="0"/>
        <pt x="566" y="198" on="0"/>
        <pt x="479" y="198" on="1"/>
        <pt x="456" y="198" on="0"/>
      </contour>
      <contour>
        <pt x="116" y="266" on="0"/>
        <pt x="102" y="169" on="0"/>
        <pt x="102" y="94" on="0"/>
        <pt x="133" y="40" on="0"/>
        <pt x="158" y="40" on="1"/>
        <pt x="212" y="40" on="0"/>
        <pt x="312" y="244" on="0"/>
        <pt x="312" y="332" on="1"/>
        <pt x="312" y="389" on="0"/>
        <pt x="282" y="426" on="1"/>
        <pt x="262" y="450" on="0"/>
        <pt x="197" y="450" on="0"/>
        <pt x="144" y="375" on="0"/>
      </contour>
      <contour>
        <pt x="500" y="236" on="1"/>
        <pt x="547" y="236" on="0"/>
        <pt x="621" y="296" on="0"/>
        <pt x="652" y="362" on="0"/>
        <pt x="652" y="416" on="0"/>
        <pt x="610" y="457" on="0"/>
        <pt x="582" y="457" on="1"/>
        <pt x="532" y="457" on="0"/>
        <pt x="447" y="319" on="0"/>
        <pt x="429" y="245" on="1"/>
        <pt x="472" y="236" on="0"/>
      </contour>
    </TTGlyph>
    <TTGlyph name="agrave" xMin="40" yMin="-8" xMax="475" yMax="704">
      <contour>
        <pt x="375" y="288" on="1"/>
        <pt x="370" y="173" on="1"/>
        <pt x="370" y="86" on="0"/>
        <pt x="390" y="56" on="1"/>
        <pt x="402" y="36" on="0"/>
        <pt x="423" y="36" on="1"/>
        <pt x="429" y="36" on="0"/>
        <pt x="440" y="39" on="1"/>
        <pt x="461" y="45" on="0"/>
        <pt x="475" y="33" on="1"/>
        <pt x="468" y="-2" on="0"/>
        <pt x="405" y="-2" on="1"/>
        <pt x="362" y="-2" on="0"/>
        <pt x="348" y="34" on="1"/>
        <pt x="337" y="61" on="0"/>
        <pt x="327" y="142" on="0"/>
        <pt x="324" y="157" on="1"/>
        <pt x="259" y="33" on="0"/>
        <pt x="198" y="6" on="1"/>
        <pt x="167" y="-8" on="0"/>
        <pt x="85" y="-8" on="0"/>
        <pt x="40" y="71" on="0"/>
        <pt x="40" y="223" on="0"/>
        <pt x="90" y="390" on="0"/>
        <pt x="186" y="505" on="0"/>
        <pt x="243" y="505" on="1"/>
        <pt x="325" y="505" on="0"/>
        <pt x="352" y="437" on="1"/>
        <pt x="375" y="379" on="0"/>
      </contour>
      <contour>
        <pt x="116" y="266" on="0"/>
        <pt x="102" y="169" on="0"/>
        <pt x="102" y="94" on="0"/>
        <pt x="133" y="40" on="0"/>
        <pt x="158" y="40" on="1"/>
        <pt x="212" y="40" on="0"/>
        <pt x="312" y="244" on="0"/>
        <pt x="312" y="332" on="1"/>
        <pt x="312" y="389" on="0"/>
        <pt x="282" y="426" on="1"/>
        <pt x="262" y="450" on="0"/>
        <pt x="197" y="450" on="0"/>
        <pt x="144" y="375" on="0"/>
      </contour>
      <contour>
        <pt x="373" y="596" on="1"/>
        <pt x="386" y="591" on="0"/>
        <pt x="386" y="582" on="1"/>
        <pt x="386" y="575" on="0"/>
        <pt x="365" y="545" on="0"/>
        <pt x="348" y="545" on="1"/>
        <pt x="342" y="545" on="0"/>
        <pt x="339" y="547" on="1"/>
        <pt x="257" y="576" on="0"/>
        <pt x="156" y="657" on="1"/>
        <pt x="149" y="663" on="0"/>
        <pt x="149" y="675" on="0"/>
        <pt x="154" y="686" on="1"/>
        <pt x="163" y="704" on="0"/>
        <pt x="188" y="704" on="1"/>
        <pt x="195" y="704" on="0"/>
        <pt x="201" y="701" on="1"/>
        <pt x="301" y="622" on="0"/>
      </contour>
    </TTGlyph>
    <TTGlyph name="ampersand" xMin="47" yMin="7" xMax="313" yMax="630">
      <contour>
        <pt x="114" y="234" on="0"/>
        <pt x="164" y="200" on="0"/>
        <pt x="220" y="200" on="0"/>
        <pt x="270" y="228" on="0"/>
        <pt x="313" y="228" on="0"/>
        <pt x="313" y="215" on="1"/>
        <pt x="313" y="196" on="0"/>
        <pt x="233" y="161" on="0"/>
        <pt x="199" y="157" on="1"/>
        <pt x="200" y="134" on="0"/>
        <pt x="207" y="30" on="1"/>
        <pt x="206" y="20" on="0"/>
        <pt x="175" y="7" on="0"/>
        <pt x="168" y="7" on="1"/>
        <pt x="146" y="7" on="0"/>
        <pt x="144" y="13" on="1"/>
        <pt x="135" y="123" on="0"/>
        <pt x="135" y="162" on="1"/>
        <pt x="96" y="172" on="0"/>
        <pt x="47" y="221" on="0"/>
        <pt x="47" y="251" on="1"/>
        <pt x="47" y="302" on="0"/>
        <pt x="105" y="342" on="1"/>
        <pt x="71" y="359" on="0"/>
        <pt x="71" y="395" on="1"/>
        <pt x="71" y="449" on="0"/>
        <pt x="124" y="478" on="1"/>
        <pt x="115" y="509" on="0"/>
        <pt x="115" y="578" on="0"/>
        <pt x="130" y="617" on="1"/>
        <pt x="132" y="622" on="0"/>
        <pt x="164" y="630" on="0"/>
        <pt x="190" y="630" on="0"/>
        <pt x="192" y="629" on="1"/>
        <pt x="178" y="591" on="0"/>
        <pt x="178" y="525" on="0"/>
        <pt x="187" y="497" on="1"/>
        <pt x="241" y="497" on="0"/>
        <pt x="241" y="480" on="1"/>
        <pt x="241" y="470" on="0"/>
        <pt x="217" y="451" on="0"/>
        <pt x="190" y="451" on="0"/>
        <pt x="172" y="449" on="0"/>
        <pt x="160" y="445" on="1"/>
        <pt x="137" y="437" on="0"/>
        <pt x="137" y="407" on="1"/>
        <pt x="137" y="391" on="0"/>
        <pt x="162" y="374" on="0"/>
        <pt x="177" y="372" on="1"/>
        <pt x="217" y="368" on="0"/>
        <pt x="217" y="358" on="1"/>
        <pt x="217" y="342" on="0"/>
        <pt x="184" y="327" on="0"/>
        <pt x="168" y="327" on="0"/>
        <pt x="163" y="328" on="1"/>
        <pt x="141" y="325" on="0"/>
        <pt x="114" y="287" on="0"/>
      </contour>
    </TTGlyph>
    <TTGlyph name="aring" xMin="40" yMin="-8" xMax="475" yMax="727">
      <contour>
        <pt x="375" y="288" on="1"/>
        <pt x="370" y="173" on="1"/>
        <pt x="370" y="86" on="0"/>
        <pt x="390" y="56" on="1"/>
        <pt x="402" y="36" on="0"/>
        <pt x="423" y="36" on="1"/>
        <pt x="429" y="36" on="0"/>
        <pt x="440" y="39" on="1"/>
        <pt x="461" y="45" on="0"/>
        <pt x="475" y="33" on="1"/>
        <pt x="468" y="-2" on="0"/>
        <pt x="405" y="-2" on="1"/>
        <pt x="362" y="-2" on="0"/>
        <pt x="348" y="34" on="1"/>
        <pt x="337" y="61" on="0"/>
        <pt x="327" y="142" on="0"/>
        <pt x="324" y="157" on="1"/>
        <pt x="259" y="33" on="0"/>
        <pt x="198" y="6" on="1"/>
        <pt x="167" y="-8" on="0"/>
        <pt x="85" y="-8" on="0"/>
        <pt x="40" y="71" on="0"/>
        <pt x="40" y="223" on="0"/>
        <pt x="90" y="390" on="0"/>
        <pt x="186" y="505" on="0"/>
        <pt x="243" y="505" on="1"/>
        <pt x="325" y="505" on="0"/>
        <pt x="352" y="437" on="1"/>
        <pt x="375" y="379" on="0"/>
      </contour>
      <contour>
        <pt x="116" y="266" on="0"/>
        <pt x="102" y="169" on="0"/>
        <pt x="102" y="94" on="0"/>
        <pt x="133" y="40" on="0"/>
        <pt x="158" y="40" on="1"/>
        <pt x="212" y="40" on="0"/>
        <pt x="312" y="244" on="0"/>
        <pt x="312" y="332" on="1"/>
        <pt x="312" y="389" on="0"/>
        <pt x="282" y="426" on="1"/>
        <pt x="262" y="450" on="0"/>
        <pt x="197" y="450" on="0"/>
        <pt x="144" y="375" on="0"/>
      </contour>
      <contour>
        <pt x="282" y="727" on="1"/>
        <pt x="311" y="724" on="0"/>
        <pt x="369" y="693" on="0"/>
        <pt x="369" y="669" on="1"/>
        <pt x="369" y="619" on="0"/>
        <pt x="294" y="550" on="0"/>
        <pt x="242" y="550" on="1"/>
        <pt x="210" y="550" on="0"/>
        <pt x="145" y="584" on="0"/>
        <pt x="145" y="609" on="1"/>
        <pt x="145" y="659" on="0"/>
        <pt x="230" y="725" on="0"/>
      </contour>
      <contour>
        <pt x="219" y="607" on="0"/>
        <pt x="239" y="585" on="0"/>
        <pt x="271" y="585" on="0"/>
        <pt x="300" y="629" on="0"/>
        <pt x="300" y="663" on="0"/>
        <pt x="279" y="690" on="0"/>
        <pt x="264" y="692" on="1"/>
        <pt x="219" y="661" on="0"/>
        <pt x="219" y="619" on="1"/>
      </contour>
    </TTGlyph>
    <TTGlyph name="asciicircum" xMin="45" yMin="400" xMax="399" yMax="769">
      <contour>
        <pt x="101" y="438" on="1"/>
        <pt x="93" y="424" on="0"/>
        <pt x="45" y="424" on="0"/>
        <pt x="45" y="436" on="1"/>
        <pt x="45" y="439" on="0"/>
        <pt x="48" y="443" on="1"/>
        <pt x="68" y="480" on="0"/>
        <pt x="100" y="612" on="0"/>
        <pt x="142" y="722" on="0"/>
        <pt x="181" y="757" on="1"/>
        <pt x="194" y="769" on="0"/>
        <pt x="224" y="769" on="0"/>
        <pt x="232" y="758" on="1"/>
        <pt x="258" y="699" on="0"/>
        <pt x="316" y="590" on="1"/>
        <pt x="399" y="430" on="0"/>
        <pt x="399" y="409" on="0"/>
        <pt x="381" y="403" on="1"/>
        <pt x="371" y="400" on="0"/>
        <pt x="360" y="400" on="1"/>
        <pt x="347" y="400" on="0"/>
        <pt x="341" y="412" on="1"/>
        <pt x="316" y="467" on="0"/>
        <pt x="213" y="666" on="0"/>
        <pt x="195" y="704" on="1"/>
        <pt x="168" y="663" on="0"/>
        <pt x="121" y="475" on="0"/>
      </contour>
    </TTGlyph>
    <TTGlyph name="asciitilde" xMin="43" yMin="232" xMax="514" yMax="421">
      <contour>
        <pt x="459" y="401" on="1"/>
        <pt x="462" y="421" on="0"/>
        <pt x="483" y="421" on="1"/>
        <pt x="492" y="421" on="0"/>
        <pt x="514" y="406" on="0"/>
        <pt x="514" y="391" on="1"/>
        <pt x="514" y="330" on="0"/>
        <pt x="444" y="247" on="0"/>
        <pt x="386" y="247" on="1"/>
        <pt x="351" y="247" on="0"/>
        <pt x="241" y="330" on="0"/>
        <pt x="204" y="330" on="1"/>
        <pt x="148" y="330" on="0"/>
        <pt x="96" y="246" on="1"/>
        <pt x="88" y="232" on="0"/>
        <pt x="57" y="232" on="0"/>
        <pt x="43" y="253" on="0"/>
        <pt x="43" y="268" on="0"/>
        <pt x="47" y="275" on="1"/>
        <pt x="82" y="332" on="0"/>
        <pt x="160" y="397" on="0"/>
        <pt x="214" y="397" on="1"/>
        <pt x="250" y="397" on="0"/>
        <pt x="367" y="308" on="0"/>
        <pt x="426" y="308" on="0"/>
        <pt x="451" y="349" on="0"/>
      </contour>
    </TTGlyph>
    <TTGlyph name="asterisk" xMin="56" yMin="429" xMax="390" yMax="734">
      <contour>
        <pt x="207" y="719" on="0"/>
        <pt x="223" y="734" on="0"/>
        <pt x="251" y="734" on="0"/>
        <pt x="251" y="695" on="1"/>
        <pt x="251" y="680" on="0"/>
        <pt x="245" y="626" on="0"/>
        <pt x="245" y="623" on="1"/>
        <pt x="248" y="625" on="0"/>
        <pt x="273" y="647" on="0"/>
        <pt x="290" y="660" on="0"/>
        <pt x="318" y="680" on="0"/>
        <pt x="329" y="686" on="1"/>
        <pt x="355" y="702" on="0"/>
        <pt x="390" y="702" on="0"/>
        <pt x="390" y="687" on="0"/>
        <pt x="353" y="660" on="0"/>
        <pt x="270" y="605" on="0"/>
        <pt x="259" y="592" on="1"/>
        <pt x="265" y="587" on="0"/>
        <pt x="300" y="560" on="1"/>
        <pt x="379" y="499" on="0"/>
        <pt x="379" y="489" on="1"/>
        <pt x="379" y="466" on="0"/>
        <pt x="360" y="466" on="1"/>
        <pt x="346" y="466" on="0"/>
        <pt x="275" y="504" on="0"/>
        <pt x="253" y="533" on="1"/>
        <pt x="251" y="536" on="0"/>
        <pt x="250" y="539" on="1"/>
        <pt x="259" y="446" on="1"/>
        <pt x="259" y="439" on="0"/>
        <pt x="240" y="429" on="0"/>
        <pt x="219" y="430" on="0"/>
        <pt x="219" y="435" on="1"/>
        <pt x="211" y="512" on="0"/>
        <pt x="208" y="545" on="1"/>
        <pt x="201" y="538" on="0"/>
        <pt x="159" y="494" on="0"/>
        <pt x="134" y="469" on="0"/>
        <pt x="98" y="446" on="0"/>
        <pt x="77" y="446" on="0"/>
        <pt x="64" y="463" on="0"/>
        <pt x="71" y="472" on="1"/>
        <pt x="95" y="495" on="0"/>
        <pt x="183" y="568" on="0"/>
        <pt x="198" y="581" on="1"/>
        <pt x="126" y="637" on="0"/>
        <pt x="68" y="663" on="1"/>
        <pt x="56" y="667" on="0"/>
        <pt x="56" y="680" on="0"/>
        <pt x="78" y="697" on="0"/>
        <pt x="97" y="697" on="0"/>
        <pt x="119" y="689" on="0"/>
        <pt x="147" y="673" on="0"/>
        <pt x="167" y="660" on="0"/>
        <pt x="199" y="638" on="0"/>
        <pt x="205" y="634" on="1"/>
        <pt x="205" y="639" on="0"/>
        <pt x="202" y="670" on="0"/>
        <pt x="203" y="693" on="0"/>
      </contour>
    </TTGlyph>
    <TTGlyph name="at" xMin="44" yMin="-166" xMax="492" yMax="477">
      <contour>
        <pt x="98" y="341" on="1"/>
        <pt x="125" y="401" on="0"/>
        <pt x="224" y="477" on="0"/>
        <pt x="348" y="477" on="0"/>
        <pt x="445" y="370" on="0"/>
        <pt x="492" y="229" on="0"/>
        <pt x="492" y="119" on="0"/>
        <pt x="445" y="51" on="0"/>
        <pt x="345" y="51" on="0"/>
        <pt x="327" y="110" on="1"/>
        <pt x="290" y="30" on="0"/>
        <pt x="220" y="30" on="1"/>
        <pt x="165" y="30" on="0"/>
        <pt x="165" y="179" on="0"/>
        <pt x="247" y="290" on="0"/>
        <pt x="303" y="290" on="1"/>
        <pt x="325" y="290" on="0"/>
        <pt x="369" y="253" on="0"/>
        <pt x="369" y="170" on="0"/>
        <pt x="395" y="97" on="0"/>
        <pt x="412" y="97" on="1"/>
        <pt x="423" y="97" on="0"/>
        <pt x="438" y="125" on="0"/>
        <pt x="438" y="148" on="1"/>
        <pt x="438" y="243" on="0"/>
        <pt x="336" y="439" on="0"/>
        <pt x="278" y="439" on="1"/>
        <pt x="228" y="439" on="0"/>
        <pt x="146" y="339" on="0"/>
        <pt x="103" y="191" on="0"/>
        <pt x="103" y="44" on="0"/>
        <pt x="137" y="-64" on="0"/>
        <pt x="222" y="-136" on="0"/>
        <pt x="285" y="-136" on="1"/>
        <pt x="324" y="-136" on="0"/>
        <pt x="373" y="-121" on="1"/>
        <pt x="382" y="-119" on="0"/>
        <pt x="388" y="-119" on="1"/>
        <pt x="401" y="-119" on="0"/>
        <pt x="401" y="-129" on="1"/>
        <pt x="401" y="-146" on="0"/>
        <pt x="307" y="-166" on="0"/>
        <pt x="270" y="-166" on="1"/>
        <pt x="166" y="-166" on="0"/>
        <pt x="44" y="-34" on="0"/>
        <pt x="44" y="221" on="0"/>
      </contour>
      <contour>
        <pt x="233" y="78" on="1"/>
        <pt x="253" y="78" on="0"/>
        <pt x="289" y="147" on="0"/>
        <pt x="318" y="232" on="0"/>
        <pt x="323" y="239" on="1"/>
        <pt x="310" y="248" on="0"/>
        <pt x="295" y="248" on="1"/>
        <pt x="265" y="248" on="0"/>
        <pt x="222" y="159" on="0"/>
        <pt x="222" y="78" on="0"/>
      </contour>
    </TTGlyph>
    <TTGlyph name="atilde" xMin="40" yMin="-8" xMax="475" yMax="669">
      <contour>
        <pt x="375" y="288" on="1"/>
        <pt x="370" y="173" on="1"/>
        <pt x="370" y="86" on="0"/>
        <pt x="390" y="56" on="1"/>
        <pt x="402" y="36" on="0"/>
        <pt x="423" y="36" on="1"/>
        <pt x="429" y="36" on="0"/>
        <pt x="440" y="39" on="1"/>
        <pt x="461" y="45" on="0"/>
        <pt x="475" y="33" on="1"/>
        <pt x="468" y="-2" on="0"/>
        <pt x="405" y="-2" on="1"/>
        <pt x="362" y="-2" on="0"/>
        <pt x="348" y="34" on="1"/>
        <pt x="337" y="61" on="0"/>
        <pt x="327" y="142" on="0"/>
        <pt x="324" y="157" on="1"/>
        <pt x="259" y="33" on="0"/>
        <pt x="198" y="6" on="1"/>
        <pt x="167" y="-8" on="0"/>
        <pt x="85" y="-8" on="0"/>
        <pt x="40" y="71" on="0"/>
        <pt x="40" y="223" on="0"/>
        <pt x="90" y="390" on="0"/>
        <pt x="186" y="505" on="0"/>
        <pt x="243" y="505" on="1"/>
        <pt x="325" y="505" on="0"/>
        <pt x="352" y="437" on="1"/>
        <pt x="375" y="379" on="0"/>
      </contour>
      <contour>
        <pt x="116" y="266" on="0"/>
        <pt x="102" y="169" on="0"/>
        <pt x="102" y="94" on="0"/>
        <pt x="133" y="40" on="0"/>
        <pt x="158" y="40" on="1"/>
        <pt x="212" y="40" on="0"/>
        <pt x="312" y="244" on="0"/>
        <pt x="312" y="332" on="1"/>
        <pt x="312" y="389" on="0"/>
        <pt x="282" y="426" on="1"/>
        <pt x="262" y="450" on="0"/>
        <pt x="197" y="450" on="0"/>
        <pt x="144" y="375" on="0"/>
      </contour>
      <contour>
        <pt x="150" y="566" on="1"/>
        <pt x="139" y="553" on="0"/>
        <pt x="81" y="553" on="0"/>
        <pt x="81" y="566" on="1"/>
        <pt x="81" y="571" on="0"/>
        <pt x="85" y="577" on="1"/>
        <pt x="149" y="653" on="0"/>
        <pt x="205" y="653" on="1"/>
        <pt x="237" y="653" on="0"/>
        <pt x="323" y="601" on="0"/>
        <pt x="343" y="601" on="0"/>
        <pt x="356" y="613" on="0"/>
        <pt x="360" y="619" on="1"/>
        <pt x="368" y="631" on="0"/>
        <pt x="379" y="653" on="1"/>
        <pt x="388" y="669" on="0"/>
        <pt x="417" y="669" on="1"/>
        <pt x="419" y="669" on="0"/>
        <pt x="421" y="669" on="1"/>
        <pt x="449" y="668" on="0"/>
        <pt x="447" y="650" on="1"/>
        <pt x="444" y="641" on="1"/>
        <pt x="400" y="551" on="0"/>
        <pt x="323" y="551" on="1"/>
        <pt x="297" y="551" on="0"/>
        <pt x="214" y="601" on="0"/>
        <pt x="201" y="601" on="1"/>
        <pt x="179" y="601" on="0"/>
      </contour>
    </TTGlyph>
    <TTGlyph name="b" xMin="59" yMin="-6" xMax="413" yMax="741">
      <contour>
        <pt x="71" y="719" on="1"/>
        <pt x="83" y="741" on="0"/>
        <pt x="115" y="741" on="1"/>
        <pt x="122" y="741" on="0"/>
        <pt x="129" y="739" on="1"/>
        <pt x="131" y="686" on="0"/>
        <pt x="131" y="443" on="1"/>
        <pt x="132" y="444" on="0"/>
        <pt x="149" y="460" on="0"/>
        <pt x="153" y="464" on="0"/>
        <pt x="169" y="479" on="0"/>
        <pt x="178" y="484" on="0"/>
        <pt x="194" y="495" on="0"/>
        <pt x="206" y="500" on="0"/>
        <pt x="214" y="503" on="1"/>
        <pt x="229" y="508" on="0"/>
        <pt x="249" y="508" on="1"/>
        <pt x="323" y="508" on="0"/>
        <pt x="413" y="385" on="0"/>
        <pt x="413" y="233" on="0"/>
        <pt x="367" y="96" on="0"/>
        <pt x="271" y="-6" on="0"/>
        <pt x="144" y="-6" on="0"/>
        <pt x="59" y="88" on="0"/>
        <pt x="59" y="209" on="0"/>
        <pt x="73" y="536" on="0"/>
        <pt x="73" y="679" on="0"/>
      </contour>
      <contour>
        <pt x="214" y="43" on="1"/>
        <pt x="253" y="43" on="0"/>
        <pt x="284" y="80" on="1"/>
        <pt x="347" y="153" on="0"/>
        <pt x="347" y="287" on="1"/>
        <pt x="347" y="359" on="0"/>
        <pt x="291" y="470" on="0"/>
        <pt x="240" y="470" on="1"/>
        <pt x="211" y="470" on="0"/>
        <pt x="167" y="413" on="0"/>
        <pt x="155" y="366" on="1"/>
        <pt x="132" y="277" on="0"/>
        <pt x="132" y="168" on="1"/>
        <pt x="132" y="76" on="0"/>
        <pt x="170" y="55" on="1"/>
        <pt x="187" y="45" on="0"/>
      </contour>
    </TTGlyph>
    <TTGlyph name="backslash" xMin="28" yMin="-103" xMax="456" yMax="789">
      <contour>
        <pt x="28" y="768" on="1"/>
        <pt x="27" y="775" on="0"/>
        <pt x="39" y="782" on="1"/>
        <pt x="53" y="789" on="0"/>
        <pt x="77" y="789" on="0"/>
        <pt x="83" y="783" on="1"/>
        <pt x="134" y="627" on="0"/>
        <pt x="425" y="-6" on="0"/>
        <pt x="456" y="-83" on="1"/>
        <pt x="456" y="-90" on="0"/>
        <pt x="442" y="-96" on="1"/>
        <pt x="428" y="-103" on="0"/>
        <pt x="404" y="-103" on="0"/>
        <pt x="401" y="-98" on="1"/>
        <pt x="370" y="-21" on="0"/>
        <pt x="79" y="612" on="0"/>
      </contour>
    </TTGlyph>
    <TTGlyph name="bar" xMin="62" yMin="-106" xMax="141" yMax="750">
      <contour>
        <pt x="62" y="723" on="1"/>
        <pt x="62" y="735" on="0"/>
        <pt x="80" y="750" on="0"/>
        <pt x="101" y="750" on="0"/>
        <pt x="119" y="736" on="0"/>
        <pt x="119" y="723" on="1"/>
        <pt x="138" y="10" on="0"/>
        <pt x="141" y="-78" on="1"/>
        <pt x="141" y="-95" on="0"/>
        <pt x="120" y="-106" on="0"/>
        <pt x="113" y="-106" on="1"/>
        <pt x="99" y="-102" on="1"/>
        <pt x="85" y="-95" on="0"/>
        <pt x="84" y="-78" on="1"/>
        <pt x="81" y="10" on="0"/>
      </contour>
    </TTGlyph>
    <TTGlyph name="braceleft" xMin="26" yMin="-41" xMax="318" yMax="718">
      <contour>
        <pt x="235" y="13" on="1"/>
        <pt x="245" y="13" on="0"/>
        <pt x="280" y="34" on="0"/>
        <pt x="302" y="34" on="0"/>
        <pt x="318" y="16" on="0"/>
        <pt x="318" y="-16" on="0"/>
        <pt x="265" y="-41" on="0"/>
        <pt x="237" y="-41" on="1"/>
        <pt x="189" y="-41" on="0"/>
        <pt x="136" y="16" on="0"/>
        <pt x="117" y="106" on="0"/>
        <pt x="105" y="200" on="0"/>
        <pt x="71" y="291" on="0"/>
        <pt x="40" y="312" on="1"/>
        <pt x="26" y="321" on="0"/>
        <pt x="26" y="353" on="0"/>
        <pt x="40" y="362" on="1"/>
        <pt x="77" y="383" on="0"/>
        <pt x="107" y="453" on="0"/>
        <pt x="107" y="485" on="1"/>
        <pt x="107" y="513" on="1"/>
        <pt x="107" y="605" on="0"/>
        <pt x="138" y="688" on="0"/>
        <pt x="202" y="718" on="0"/>
        <pt x="260" y="718" on="1"/>
        <pt x="276" y="718" on="0"/>
        <pt x="286" y="691" on="0"/>
        <pt x="271" y="663" on="0"/>
        <pt x="256" y="661" on="1"/>
        <pt x="189" y="655" on="0"/>
        <pt x="175" y="606" on="1"/>
        <pt x="166" y="574" on="0"/>
        <pt x="164" y="469" on="0"/>
        <pt x="154" y="413" on="0"/>
        <pt x="116" y="352" on="0"/>
        <pt x="91" y="337" on="1"/>
        <pt x="144" y="305" on="0"/>
        <pt x="157" y="251" on="1"/>
        <pt x="159" y="242" on="0"/>
        <pt x="163" y="154" on="0"/>
        <pt x="171" y="78" on="0"/>
        <pt x="205" y="13" on="0"/>
      </contour>
    </TTGlyph>
    <TTGlyph name="braceright" xMin="28" yMin="-63" xMax="264" yMax="709">
      <contour>
        <pt x="179" y="491" on="1"/>
        <pt x="179" y="395" on="0"/>
        <pt x="218" y="395" on="1"/>
        <pt x="264" y="395" on="0"/>
        <pt x="264" y="366" on="1"/>
        <pt x="264" y="356" on="0"/>
        <pt x="255" y="348" on="1"/>
        <pt x="220" y="318" on="0"/>
        <pt x="212" y="174" on="1"/>
        <pt x="209" y="117" on="0"/>
        <pt x="195" y="8" on="0"/>
        <pt x="150" y="-63" on="0"/>
        <pt x="109" y="-63" on="1"/>
        <pt x="88" y="-63" on="0"/>
        <pt x="28" y="-43" on="0"/>
        <pt x="28" y="-7" on="0"/>
        <pt x="45" y="6" on="0"/>
        <pt x="64" y="3" on="0"/>
        <pt x="92" y="-4" on="0"/>
        <pt x="112" y="-4" on="0"/>
        <pt x="134" y="14" on="0"/>
        <pt x="146" y="49" on="0"/>
        <pt x="150" y="66" on="1"/>
        <pt x="157" y="97" on="0"/>
        <pt x="157" y="150" on="1"/>
        <pt x="156" y="216" on="1"/>
        <pt x="156" y="305" on="0"/>
        <pt x="196" y="350" on="1"/>
        <pt x="162" y="362" on="0"/>
        <pt x="120" y="457" on="0"/>
        <pt x="120" y="502" on="1"/>
        <pt x="120" y="502" on="0"/>
        <pt x="129" y="603" on="1"/>
        <pt x="129" y="645" on="0"/>
        <pt x="96" y="645" on="1"/>
        <pt x="90" y="645" on="0"/>
        <pt x="62" y="639" on="0"/>
        <pt x="44" y="638" on="0"/>
        <pt x="28" y="650" on="0"/>
        <pt x="28" y="666" on="1"/>
        <pt x="28" y="687" on="0"/>
        <pt x="89" y="709" on="0"/>
        <pt x="118" y="709" on="1"/>
        <pt x="187" y="709" on="0"/>
        <pt x="187" y="628" on="1"/>
        <pt x="187" y="620" on="0"/>
        <pt x="184" y="589" on="1"/>
        <pt x="179" y="533" on="0"/>
      </contour>
    </TTGlyph>
    <TTGlyph name="bracketleft" xMin="57" yMin="-65" xMax="344" yMax="702">
      <contour>
        <pt x="184" y="-28" on="1"/>
        <pt x="232" y="-28" on="0"/>
        <pt x="318" y="-5" on="1"/>
        <pt x="334" y="-5" on="0"/>
        <pt x="332" y="-25" on="1"/>
        <pt x="330" y="-49" on="0"/>
        <pt x="304" y="-52" on="1"/>
        <pt x="205" y="-65" on="0"/>
        <pt x="80" y="-65" on="1"/>
        <pt x="57" y="-65" on="0"/>
        <pt x="57" y="-51" on="1"/>
        <pt x="57" y="53" on="0"/>
        <pt x="90" y="532" on="0"/>
        <pt x="108" y="652" on="1"/>
        <pt x="109" y="666" on="0"/>
        <pt x="127" y="676" on="1"/>
        <pt x="165" y="698" on="0"/>
        <pt x="322" y="702" on="1"/>
        <pt x="344" y="702" on="0"/>
        <pt x="344" y="690" on="1"/>
        <pt x="344" y="674" on="0"/>
        <pt x="318" y="663" on="1"/>
        <pt x="306" y="659" on="0"/>
        <pt x="294" y="659" on="1"/>
        <pt x="204" y="659" on="0"/>
        <pt x="161" y="648" on="1"/>
        <pt x="162" y="618" on="0"/>
        <pt x="112" y="51" on="0"/>
        <pt x="112" y="20" on="1"/>
        <pt x="112" y="-28" on="0"/>
      </contour>
    </TTGlyph>
    <TTGlyph name="bracketright" xMin="16" yMin="-30" xMax="291" yMax="726">
      <contour>
        <pt x="72" y="16" on="1"/>
        <pt x="201" y="20" on="1"/>
        <pt x="224" y="20" on="0"/>
        <pt x="234" y="18" on="1"/>
        <pt x="232" y="82" on="0"/>
        <pt x="211" y="675" on="1"/>
        <pt x="187" y="675" on="0"/>
        <pt x="77" y="660" on="0"/>
        <pt x="49" y="660" on="0"/>
        <pt x="46" y="660" on="1"/>
        <pt x="16" y="660" on="0"/>
        <pt x="16" y="699" on="0"/>
        <pt x="38" y="708" on="1"/>
        <pt x="45" y="711" on="0"/>
        <pt x="78" y="711" on="0"/>
        <pt x="182" y="726" on="0"/>
        <pt x="202" y="726" on="1"/>
        <pt x="234" y="726" on="1"/>
        <pt x="239" y="726" on="0"/>
        <pt x="244" y="724" on="0"/>
        <pt x="253" y="722" on="0"/>
        <pt x="258" y="719" on="0"/>
        <pt x="260" y="716" on="1"/>
        <pt x="266" y="711" on="0"/>
        <pt x="266" y="703" on="1"/>
        <pt x="291" y="316" on="0"/>
        <pt x="291" y="-9" on="1"/>
        <pt x="291" y="-19" on="0"/>
        <pt x="264" y="-30" on="0"/>
        <pt x="228" y="-28" on="0"/>
        <pt x="178" y="-28" on="1"/>
        <pt x="53" y="-30" on="1"/>
        <pt x="34" y="-30" on="0"/>
        <pt x="35" y="-16" on="1"/>
        <pt x="36" y="1" on="0"/>
        <pt x="56" y="12" on="1"/>
        <pt x="64" y="16" on="0"/>
      </contour>
    </TTGlyph>
    <TTGlyph name="bullet" xMin="76" yMin="259" xMax="304" yMax="450">
      <contour>
        <pt x="76" y="392" on="0"/>
        <pt x="161" y="450" on="0"/>
        <pt x="238" y="450" on="0"/>
        <pt x="304" y="384" on="0"/>
        <pt x="304" y="304" on="0"/>
        <pt x="238" y="259" on="0"/>
        <pt x="150" y="259" on="0"/>
        <pt x="76" y="316" on="0"/>
      </contour>
    </TTGlyph>
    <TTGlyph name="c" xMin="40" yMin="-1" xMax="424" yMax="501">
      <contour>
        <pt x="395" y="375" on="1"/>
        <pt x="376" y="356" on="0"/>
        <pt x="338" y="356" on="0"/>
        <pt x="315" y="389" on="0"/>
        <pt x="301" y="428" on="0"/>
        <pt x="264" y="461" on="0"/>
        <pt x="236" y="461" on="1"/>
        <pt x="197" y="457" on="0"/>
        <pt x="133" y="354" on="0"/>
        <pt x="103" y="230" on="0"/>
        <pt x="103" y="121" on="0"/>
        <pt x="164" y="42" on="0"/>
        <pt x="216" y="42" on="1"/>
        <pt x="276" y="42" on="0"/>
        <pt x="312" y="84" on="1"/>
        <pt x="327" y="102" on="0"/>
        <pt x="340" y="120" on="1"/>
        <pt x="372" y="162" on="0"/>
        <pt x="398" y="162" on="1"/>
        <pt x="407" y="162" on="0"/>
        <pt x="424" y="157" on="1"/>
        <pt x="424" y="120" on="0"/>
        <pt x="289" y="-1" on="0"/>
        <pt x="131" y="-1" on="0"/>
        <pt x="40" y="100" on="0"/>
        <pt x="40" y="180" on="1"/>
        <pt x="40" y="283" on="0"/>
        <pt x="90" y="386" on="1"/>
        <pt x="115" y="436" on="0"/>
        <pt x="201" y="501" on="0"/>
        <pt x="307" y="501" on="0"/>
        <pt x="372" y="430" on="0"/>
      </contour>
    </TTGlyph>
    <TTGlyph name="caron" xMin="44" yMin="538" xMax="352" yMax="677">
      <contour>
        <pt x="338" y="677" on="1"/>
        <pt x="346" y="677" on="1"/>
        <pt x="352" y="677" on="0"/>
        <pt x="352" y="673" on="0"/>
        <pt x="351" y="670" on="1"/>
        <pt x="337" y="658" on="0"/>
        <pt x="272" y="580" on="0"/>
        <pt x="214" y="538" on="0"/>
        <pt x="151" y="538" on="0"/>
        <pt x="104" y="579" on="0"/>
        <pt x="61" y="636" on="0"/>
        <pt x="44" y="645" on="1"/>
        <pt x="44" y="650" on="0"/>
        <pt x="91" y="666" on="0"/>
        <pt x="122" y="666" on="0"/>
        <pt x="156" y="634" on="0"/>
        <pt x="191" y="587" on="0"/>
        <pt x="198" y="581" on="1"/>
        <pt x="207" y="590" on="0"/>
        <pt x="223" y="608" on="1"/>
        <pt x="257" y="645" on="0"/>
        <pt x="279" y="665" on="1"/>
        <pt x="291" y="677" on="0"/>
      </contour>
    </TTGlyph>
    <TTGlyph name="ccedilla" xMin="40" yMin="-209" xMax="424" yMax="501">
      <contour>
        <pt x="174" y="-76" on="1"/>
        <pt x="152" y="-76" on="0"/>
        <pt x="152" y="-67" on="1"/>
        <pt x="152" y="-31" on="0"/>
        <pt x="183" y="0" on="1"/>
        <pt x="117" y="8" on="0"/>
        <pt x="40" y="107" on="0"/>
        <pt x="40" y="180" on="1"/>
        <pt x="40" y="283" on="0"/>
        <pt x="90" y="386" on="1"/>
        <pt x="115" y="436" on="0"/>
        <pt x="201" y="501" on="0"/>
        <pt x="307" y="501" on="0"/>
        <pt x="372" y="430" on="0"/>
        <pt x="395" y="375" on="1"/>
        <pt x="376" y="356" on="0"/>
        <pt x="338" y="356" on="0"/>
        <pt x="315" y="389" on="0"/>
        <pt x="301" y="428" on="0"/>
        <pt x="264" y="461" on="0"/>
        <pt x="236" y="461" on="1"/>
        <pt x="197" y="457" on="0"/>
        <pt x="133" y="354" on="0"/>
        <pt x="103" y="230" on="0"/>
        <pt x="103" y="121" on="0"/>
        <pt x="164" y="42" on="0"/>
        <pt x="216" y="42" on="1"/>
        <pt x="276" y="42" on="0"/>
        <pt x="312" y="84" on="1"/>
        <pt x="327" y="102" on="0"/>
        <pt x="340" y="120" on="1"/>
        <pt x="372" y="162" on="0"/>
        <pt x="398" y="162" on="1"/>
        <pt x="407" y="162" on="0"/>
        <pt x="424" y="157" on="1"/>
        <pt x="424" y="125" on="0"/>
        <pt x="312" y="15" on="0"/>
        <pt x="241" y="2" on="1"/>
        <pt x="238" y="-4" on="0"/>
        <pt x="220" y="-36" on="0"/>
        <pt x="215" y="-45" on="1"/>
        <pt x="249" y="-45" on="0"/>
        <pt x="302" y="-75" on="0"/>
        <pt x="302" y="-107" on="1"/>
        <pt x="302" y="-157" on="0"/>
        <pt x="211" y="-209" on="0"/>
        <pt x="75" y="-209" on="0"/>
        <pt x="45" y="-160" on="1"/>
        <pt x="45" y="-151" on="0"/>
        <pt x="75" y="-133" on="0"/>
        <pt x="93" y="-133" on="1"/>
        <pt x="100" y="-133" on="0"/>
        <pt x="149" y="-172" on="0"/>
        <pt x="207" y="-172" on="0"/>
        <pt x="242" y="-143" on="0"/>
        <pt x="242" y="-101" on="0"/>
        <pt x="210" y="-75" on="0"/>
        <pt x="193" y="-75" on="1"/>
      </contour>
    </TTGlyph>
    <TTGlyph name="cedilla" xMin="45" yMin="-183" xMax="312" yMax="115">
      <contour>
        <pt x="237" y="-19" on="1"/>
        <pt x="270" y="-19" on="0"/>
        <pt x="312" y="-49" on="0"/>
        <pt x="312" y="-81" on="1"/>
        <pt x="312" y="-131" on="0"/>
        <pt x="213" y="-183" on="0"/>
        <pt x="75" y="-183" on="0"/>
        <pt x="45" y="-134" on="1"/>
        <pt x="45" y="-125" on="0"/>
        <pt x="75" y="-107" on="0"/>
        <pt x="93" y="-107" on="1"/>
        <pt x="100" y="-107" on="0"/>
        <pt x="149" y="-146" on="0"/>
        <pt x="207" y="-146" on="0"/>
        <pt x="244" y="-117" on="0"/>
        <pt x="244" y="-91" on="1"/>
        <pt x="244" y="-49" on="0"/>
        <pt x="215" y="-49" on="1"/>
        <pt x="214" y="-49" on="0"/>
        <pt x="199" y="-51" on="1"/>
        <pt x="165" y="-56" on="0"/>
        <pt x="165" y="-45" on="1"/>
        <pt x="165" y="-4" on="0"/>
        <pt x="264" y="115" on="0"/>
        <pt x="296" y="115" on="1"/>
        <pt x="312" y="115" on="0"/>
        <pt x="312" y="110" on="1"/>
        <pt x="312" y="96" on="0"/>
        <pt x="242" y="-10" on="0"/>
      </contour>
    </TTGlyph>
    <TTGlyph name="cent" xMin="47" yMin="-71" xMax="359" yMax="610">
      <contour>
        <pt x="334" y="411" on="1"/>
        <pt x="334" y="391" on="0"/>
        <pt x="295" y="391" on="1"/>
        <pt x="270" y="391" on="0"/>
        <pt x="254" y="407" on="1"/>
        <pt x="239" y="168" on="0"/>
        <pt x="238" y="115" on="1"/>
        <pt x="266" y="131" on="0"/>
        <pt x="297" y="156" on="1"/>
        <pt x="304" y="163" on="0"/>
        <pt x="359" y="163" on="0"/>
        <pt x="359" y="140" on="0"/>
        <pt x="271" y="85" on="0"/>
        <pt x="237" y="73" on="1"/>
        <pt x="239" y="-11" on="0"/>
        <pt x="239" y="-46" on="0"/>
        <pt x="239" y="-49" on="1"/>
        <pt x="238" y="-60" on="0"/>
        <pt x="213" y="-71" on="0"/>
        <pt x="203" y="-71" on="1"/>
        <pt x="182" y="-71" on="0"/>
        <pt x="182" y="-57" on="1"/>
        <pt x="180" y="-25" on="0"/>
        <pt x="180" y="34" on="0"/>
        <pt x="181" y="59" on="1"/>
        <pt x="180" y="59" on="0"/>
        <pt x="178" y="59" on="1"/>
        <pt x="106" y="59" on="0"/>
        <pt x="47" y="149" on="0"/>
        <pt x="47" y="213" on="1"/>
        <pt x="47" y="297" on="0"/>
        <pt x="87" y="377" on="1"/>
        <pt x="104" y="411" on="0"/>
        <pt x="163" y="459" on="0"/>
        <pt x="201" y="466" on="1"/>
        <pt x="203" y="490" on="0"/>
        <pt x="205" y="575" on="0"/>
        <pt x="206" y="589" on="1"/>
        <pt x="208" y="610" on="0"/>
        <pt x="263" y="610" on="0"/>
        <pt x="263" y="589" on="1"/>
        <pt x="259" y="505" on="0"/>
        <pt x="258" y="463" on="1"/>
        <pt x="280" y="455" on="0"/>
        <pt x="334" y="424" on="0"/>
      </contour>
      <contour>
        <pt x="117" y="252" on="1"/>
        <pt x="115" y="242" on="0"/>
        <pt x="115" y="221" on="0"/>
        <pt x="118" y="186" on="0"/>
        <pt x="128" y="139" on="0"/>
        <pt x="158" y="103" on="0"/>
        <pt x="180" y="100" on="1"/>
        <pt x="183" y="177" on="0"/>
        <pt x="196" y="388" on="0"/>
        <pt x="198" y="424" on="1"/>
        <pt x="168" y="414" on="0"/>
        <pt x="121" y="302" on="0"/>
      </contour>
    </TTGlyph>
    <TTGlyph name="circumflex" xMin="65" yMin="547" xMax="410" yMax="668">
      <contour>
        <pt x="152" y="641" on="0"/>
        <pt x="214" y="668" on="0"/>
        <pt x="287" y="668" on="0"/>
        <pt x="334" y="645" on="0"/>
        <pt x="361" y="617" on="0"/>
        <pt x="395" y="579" on="0"/>
        <pt x="407" y="570" on="1"/>
        <pt x="410" y="567" on="0"/>
        <pt x="410" y="564" on="1"/>
        <pt x="410" y="558" on="0"/>
        <pt x="373" y="547" on="0"/>
        <pt x="335" y="547" on="0"/>
        <pt x="256" y="628" on="0"/>
        <pt x="238" y="636" on="1"/>
        <pt x="226" y="629" on="0"/>
        <pt x="176" y="583" on="0"/>
        <pt x="124" y="558" on="0"/>
        <pt x="66" y="558" on="0"/>
        <pt x="65" y="564" on="1"/>
        <pt x="67" y="568" on="1"/>
        <pt x="73" y="572" on="0"/>
      </contour>
    </TTGlyph>
    <TTGlyph name="colon" xMin="63" yMin="42" xMax="181" yMax="417">
      <contour>
        <pt x="63" y="94" on="0"/>
        <pt x="107" y="128" on="0"/>
        <pt x="145" y="128" on="0"/>
        <pt x="173" y="110" on="0"/>
        <pt x="173" y="73" on="0"/>
        <pt x="123" y="42" on="0"/>
        <pt x="87" y="42" on="0"/>
        <pt x="63" y="61" on="0"/>
      </contour>
      <contour>
        <pt x="121" y="417" on="1"/>
        <pt x="144" y="417" on="0"/>
        <pt x="181" y="394" on="0"/>
        <pt x="181" y="352" on="0"/>
        <pt x="145" y="319" on="0"/>
        <pt x="102" y="319" on="0"/>
        <pt x="77" y="352" on="0"/>
        <pt x="77" y="372" on="1"/>
        <pt x="77" y="412" on="0"/>
      </contour>
    </TTGlyph>
    <TTGlyph name="comma" xMin="-35" yMin="-255" xMax="128" yMax="95">
      <contour>
        <pt x="64" y="-22" on="1"/>
        <pt x="64" y="-13" on="0"/>
        <pt x="58" y="22" on="0"/>
        <pt x="55" y="50" on="0"/>
        <pt x="56" y="64" on="1"/>
        <pt x="58" y="95" on="0"/>
        <pt x="96" y="95" on="1"/>
        <pt x="128" y="95" on="0"/>
        <pt x="128" y="0" on="1"/>
        <pt x="128" y="-164" on="0"/>
        <pt x="19" y="-247" on="1"/>
        <pt x="7" y="-255" on="0"/>
        <pt x="-15" y="-255" on="0"/>
        <pt x="-35" y="-245" on="0"/>
        <pt x="-35" y="-230" on="0"/>
        <pt x="-23" y="-220" on="1"/>
        <pt x="64" y="-153" on="0"/>
      </contour>
    </TTGlyph>
    <TTGlyph name="copyright" xMin="54" yMin="77" xMax="674" yMax="670">
      <contour>
        <pt x="217" y="77" on="0"/>
        <pt x="54" y="248" on="0"/>
        <pt x="54" y="494" on="0"/>
        <pt x="252" y="670" on="0"/>
        <pt x="502" y="670" on="0"/>
        <pt x="674" y="498" on="0"/>
        <pt x="674" y="242" on="0"/>
        <pt x="492" y="77" on="0"/>
      </contour>
      <contour>
        <pt x="99" y="342" on="1"/>
        <pt x="99" y="242" on="0"/>
        <pt x="241" y="118" on="0"/>
        <pt x="459" y="118" on="0"/>
        <pt x="626" y="247" on="0"/>
        <pt x="626" y="470" on="0"/>
        <pt x="493" y="631" on="0"/>
        <pt x="395" y="631" on="1"/>
        <pt x="273" y="631" on="0"/>
        <pt x="99" y="460" on="0"/>
      </contour>
      <contour>
        <pt x="450" y="291" on="1"/>
        <pt x="460" y="299" on="0"/>
        <pt x="491" y="286" on="0"/>
        <pt x="491" y="272" on="1"/>
        <pt x="491" y="250" on="0"/>
        <pt x="411" y="220" on="0"/>
        <pt x="382" y="220" on="1"/>
        <pt x="331" y="220" on="0"/>
        <pt x="250" y="286" on="0"/>
        <pt x="250" y="396" on="0"/>
        <pt x="328" y="489" on="0"/>
        <pt x="373" y="489" on="1"/>
        <pt x="396" y="489" on="0"/>
        <pt x="469" y="450" on="0"/>
        <pt x="469" y="430" on="1"/>
        <pt x="469" y="423" on="0"/>
        <pt x="455" y="412" on="0"/>
        <pt x="435" y="412" on="0"/>
        <pt x="397" y="450" on="0"/>
        <pt x="382" y="450" on="1"/>
        <pt x="352" y="450" on="0"/>
        <pt x="298" y="371" on="0"/>
        <pt x="298" y="300" on="0"/>
        <pt x="345" y="260" on="0"/>
        <pt x="416" y="260" on="0"/>
      </contour>
    </TTGlyph>
    <TTGlyph name="d" xMin="43" yMin="-2" xMax="435" yMax="808">
      <contour>
        <pt x="435" y="801" on="1"/>
        <pt x="397" y="457" on="0"/>
        <pt x="397" y="164" on="0"/>
        <pt x="424" y="18" on="1"/>
        <pt x="404" y="-2" on="0"/>
        <pt x="374" y="-2" on="0"/>
        <pt x="364" y="2" on="1"/>
        <pt x="343" y="76" on="0"/>
        <pt x="339" y="163" on="1"/>
        <pt x="315" y="125" on="0"/>
        <pt x="292" y="93" on="0"/>
        <pt x="264" y="62" on="1"/>
        <pt x="213" y="2" on="0"/>
        <pt x="143" y="2" on="1"/>
        <pt x="90" y="2" on="0"/>
        <pt x="43" y="101" on="0"/>
        <pt x="43" y="256" on="0"/>
        <pt x="78" y="397" on="0"/>
        <pt x="164" y="500" on="0"/>
        <pt x="227" y="500" on="1"/>
        <pt x="265" y="500" on="0"/>
        <pt x="329" y="468" on="0"/>
        <pt x="341" y="441" on="1"/>
        <pt x="343" y="468" on="0"/>
        <pt x="347" y="580" on="0"/>
        <pt x="352" y="667" on="0"/>
        <pt x="358" y="712" on="1"/>
        <pt x="369" y="808" on="0"/>
        <pt x="407" y="808" on="1"/>
        <pt x="420" y="808" on="0"/>
      </contour>
      <contour>
        <pt x="306" y="427" on="0"/>
        <pt x="264" y="448" on="0"/>
        <pt x="195" y="448" on="0"/>
        <pt x="165" y="409" on="1"/>
        <pt x="106" y="332" on="0"/>
        <pt x="106" y="186" on="1"/>
        <pt x="106" y="139" on="0"/>
        <pt x="136" y="46" on="0"/>
        <pt x="165" y="46" on="1"/>
        <pt x="207" y="46" on="0"/>
        <pt x="287" y="156" on="0"/>
        <pt x="331" y="299" on="0"/>
        <pt x="331" y="356" on="1"/>
        <pt x="331" y="383" on="0"/>
      </contour>
    </TTGlyph>
    <TTGlyph name="dagger" xMin="32" yMin="-53" xMax="392" yMax="563">
      <contour>
        <pt x="229" y="559" on="1"/>
        <pt x="231" y="409" on="1"/>
        <pt x="250" y="408" on="0"/>
        <pt x="337" y="403" on="0"/>
        <pt x="361" y="402" on="1"/>
        <pt x="392" y="398" on="0"/>
        <pt x="392" y="376" on="1"/>
        <pt x="392" y="367" on="0"/>
        <pt x="372" y="346" on="0"/>
        <pt x="354" y="346" on="1"/>
        <pt x="352" y="346" on="0"/>
        <pt x="351" y="346" on="1"/>
        <pt x="229" y="355" on="1"/>
        <pt x="229" y="142" on="0"/>
        <pt x="218" y="-35" on="1"/>
        <pt x="218" y="-42" on="0"/>
        <pt x="186" y="-53" on="0"/>
        <pt x="158" y="-53" on="0"/>
        <pt x="156" y="-48" on="1"/>
        <pt x="167" y="164" on="0"/>
        <pt x="167" y="356" on="1"/>
        <pt x="109" y="356" on="0"/>
        <pt x="60" y="345" on="0"/>
        <pt x="32" y="359" on="0"/>
        <pt x="32" y="372" on="1"/>
        <pt x="32" y="395" on="0"/>
        <pt x="68" y="402" on="1"/>
        <pt x="114" y="411" on="0"/>
        <pt x="169" y="411" on="1"/>
        <pt x="165" y="546" on="1"/>
        <pt x="167" y="552" on="0"/>
        <pt x="184" y="557" on="1"/>
        <pt x="202" y="563" on="0"/>
        <pt x="227" y="563" on="0"/>
      </contour>
    </TTGlyph>
    <TTGlyph name="degree" xMin="41" yMin="436" xMax="317" yMax="691">
      <contour>
        <pt x="41" y="604" on="0"/>
        <pt x="136" y="691" on="0"/>
        <pt x="243" y="691" on="0"/>
        <pt x="317" y="630" on="0"/>
        <pt x="317" y="528" on="0"/>
        <pt x="208" y="436" on="0"/>
        <pt x="92" y="436" on="0"/>
        <pt x="41" y="498" on="0"/>
        <pt x="41" y="542" on="1"/>
      </contour>
      <contour>
        <pt x="109" y="524" on="0"/>
        <pt x="133" y="485" on="0"/>
        <pt x="191" y="485" on="0"/>
        <pt x="247" y="541" on="0"/>
        <pt x="247" y="599" on="0"/>
        <pt x="211" y="639" on="0"/>
        <pt x="152" y="639" on="0"/>
        <pt x="109" y="581" on="0"/>
      </contour>
    </TTGlyph>
    <TTGlyph name="dieresis" xMin="68" yMin="556" xMax="416" yMax="642">
      <contour>
        <pt x="144" y="641" on="1"/>
        <pt x="157" y="641" on="0"/>
        <pt x="193" y="624" on="0"/>
        <pt x="193" y="611" on="1"/>
        <pt x="193" y="582" on="0"/>
        <pt x="142" y="556" on="0"/>
        <pt x="68" y="556" on="0"/>
        <pt x="68" y="579" on="1"/>
        <pt x="68" y="641" on="0"/>
      </contour>
      <contour>
        <pt x="285" y="606" on="0"/>
        <pt x="334" y="642" on="0"/>
        <pt x="379" y="642" on="0"/>
        <pt x="416" y="621" on="0"/>
        <pt x="416" y="607" on="1"/>
        <pt x="416" y="582" on="0"/>
        <pt x="353" y="556" on="0"/>
        <pt x="330" y="556" on="1"/>
        <pt x="285" y="556" on="0"/>
        <pt x="285" y="578" on="1"/>
      </contour>
    </TTGlyph>
    <TTGlyph name="divide" xMin="53" yMin="71" xMax="486" yMax="446">
      <contour>
        <pt x="106" y="283" on="1"/>
        <pt x="461" y="279" on="1"/>
        <pt x="486" y="279" on="0"/>
        <pt x="486" y="265" on="1"/>
        <pt x="486" y="247" on="0"/>
        <pt x="457" y="231" on="1"/>
        <pt x="443" y="223" on="0"/>
        <pt x="432" y="223" on="1"/>
        <pt x="248" y="220" on="1"/>
        <pt x="53" y="220" on="0"/>
        <pt x="53" y="243" on="1"/>
        <pt x="53" y="256" on="0"/>
        <pt x="88" y="283" on="0"/>
      </contour>
      <contour>
        <pt x="207" y="123" on="0"/>
        <pt x="251" y="157" on="0"/>
        <pt x="289" y="157" on="0"/>
        <pt x="317" y="139" on="0"/>
        <pt x="317" y="102" on="0"/>
        <pt x="267" y="71" on="0"/>
        <pt x="231" y="71" on="0"/>
        <pt x="207" y="90" on="0"/>
      </contour>
      <contour>
        <pt x="265" y="446" on="1"/>
        <pt x="288" y="446" on="0"/>
        <pt x="325" y="423" on="0"/>
        <pt x="325" y="381" on="0"/>
        <pt x="289" y="348" on="0"/>
        <pt x="246" y="348" on="0"/>
        <pt x="221" y="381" on="0"/>
        <pt x="221" y="401" on="1"/>
        <pt x="221" y="441" on="0"/>
      </contour>
    </TTGlyph>
    <TTGlyph name="dollar" xMin="28" yMin="-193" xMax="505" yMax="796">
      <contour>
        <pt x="252" y="669" on="1"/>
        <pt x="253" y="778" on="1"/>
        <pt x="253" y="785" on="0"/>
        <pt x="279" y="796" on="0"/>
        <pt x="302" y="796" on="0"/>
        <pt x="304" y="792" on="1"/>
        <pt x="304" y="677" on="1"/>
        <pt x="388" y="677" on="0"/>
        <pt x="454" y="608" on="1"/>
        <pt x="459" y="598" on="0"/>
        <pt x="431" y="581" on="0"/>
        <pt x="398" y="578" on="0"/>
        <pt x="390" y="583" on="1"/>
        <pt x="353" y="622" on="0"/>
        <pt x="304" y="634" on="1"/>
        <pt x="302" y="456" on="0"/>
        <pt x="301" y="366" on="1"/>
        <pt x="306" y="363" on="0"/>
        <pt x="368" y="331" on="0"/>
        <pt x="389" y="319" on="0"/>
        <pt x="441" y="286" on="0"/>
        <pt x="463" y="262" on="0"/>
        <pt x="478" y="244" on="1"/>
        <pt x="505" y="212" on="0"/>
        <pt x="505" y="165" on="1"/>
        <pt x="505" y="139" on="0"/>
        <pt x="466" y="95" on="0"/>
        <pt x="419" y="71" on="0"/>
        <pt x="384" y="61" on="1"/>
        <pt x="344" y="50" on="0"/>
        <pt x="296" y="42" on="1"/>
        <pt x="294" y="-102" on="0"/>
        <pt x="293" y="-175" on="1"/>
        <pt x="293" y="-183" on="0"/>
        <pt x="267" y="-193" on="0"/>
        <pt x="243" y="-193" on="0"/>
        <pt x="241" y="-188" on="1"/>
        <pt x="243" y="-36" on="0"/>
        <pt x="245" y="39" on="1"/>
        <pt x="109" y="39" on="0"/>
        <pt x="32" y="97" on="1"/>
        <pt x="28" y="99" on="0"/>
        <pt x="28" y="101" on="1"/>
        <pt x="28" y="107" on="0"/>
        <pt x="70" y="125" on="0"/>
        <pt x="91" y="125" on="0"/>
        <pt x="96" y="122" on="1"/>
        <pt x="157" y="78" on="0"/>
        <pt x="245" y="70" on="1"/>
        <pt x="249" y="331" on="1"/>
        <pt x="175" y="369" on="0"/>
        <pt x="94" y="443" on="0"/>
        <pt x="94" y="560" on="0"/>
        <pt x="186" y="650" on="0"/>
      </contour>
      <contour>
        <pt x="161" y="516" on="1"/>
        <pt x="161" y="456" on="0"/>
        <pt x="250" y="397" on="1"/>
        <pt x="250" y="477" on="0"/>
        <pt x="252" y="635" on="1"/>
        <pt x="219" y="628" on="0"/>
        <pt x="161" y="556" on="0"/>
      </contour>
      <contour>
        <pt x="297" y="70" on="1"/>
        <pt x="338" y="72" on="0"/>
        <pt x="372" y="86" on="1"/>
        <pt x="437" y="112" on="0"/>
        <pt x="437" y="158" on="1"/>
        <pt x="437" y="183" on="0"/>
        <pt x="403" y="235" on="0"/>
        <pt x="378" y="254" on="1"/>
        <pt x="332" y="290" on="0"/>
        <pt x="300" y="305" on="1"/>
        <pt x="298" y="149" on="0"/>
      </contour>
    </TTGlyph>
    <TTGlyph name="dotlessi" xMin="66" yMin="10" xMax="136" yMax="483">
      <contour>
        <pt x="66" y="246" on="1"/>
        <pt x="66" y="442" on="0"/>
        <pt x="86" y="472" on="1"/>
        <pt x="93" y="483" on="0"/>
        <pt x="113" y="483" on="0"/>
        <pt x="136" y="472" on="1"/>
        <pt x="131" y="387" on="0"/>
        <pt x="131" y="287" on="1"/>
        <pt x="133" y="66" on="1"/>
        <pt x="133" y="35" on="0"/>
        <pt x="106" y="10" on="0"/>
        <pt x="83" y="10" on="0"/>
        <pt x="71" y="16" on="1"/>
        <pt x="66" y="146" on="0"/>
      </contour>
    </TTGlyph>
    <TTGlyph name="e" xMin="39" yMin="3" xMax="450" yMax="494">
      <contour>
        <pt x="110" y="203" on="1"/>
        <pt x="108" y="183" on="0"/>
        <pt x="108" y="176" on="1"/>
        <pt x="108" y="116" on="0"/>
        <pt x="181" y="50" on="0"/>
        <pt x="281" y="50" on="0"/>
        <pt x="344" y="78" on="0"/>
        <pt x="358" y="94" on="1"/>
        <pt x="394" y="139" on="0"/>
        <pt x="424" y="139" on="1"/>
        <pt x="435" y="139" on="0"/>
        <pt x="450" y="133" on="1"/>
        <pt x="440" y="84" on="0"/>
        <pt x="309" y="3" on="0"/>
        <pt x="210" y="3" on="1"/>
        <pt x="140" y="3" on="0"/>
        <pt x="39" y="92" on="0"/>
        <pt x="39" y="246" on="0"/>
        <pt x="100" y="391" on="0"/>
        <pt x="215" y="494" on="0"/>
        <pt x="334" y="494" on="0"/>
        <pt x="407" y="445" on="0"/>
        <pt x="407" y="398" on="1"/>
        <pt x="407" y="311" on="0"/>
        <pt x="252" y="198" on="0"/>
        <pt x="165" y="198" on="1"/>
        <pt x="142" y="198" on="0"/>
      </contour>
      <contour>
        <pt x="186" y="236" on="1"/>
        <pt x="233" y="236" on="0"/>
        <pt x="307" y="296" on="0"/>
        <pt x="338" y="362" on="0"/>
        <pt x="338" y="416" on="0"/>
        <pt x="296" y="457" on="0"/>
        <pt x="268" y="457" on="1"/>
        <pt x="218" y="457" on="0"/>
        <pt x="133" y="319" on="0"/>
        <pt x="115" y="245" on="1"/>
        <pt x="159" y="236" on="0"/>
      </contour>
    </TTGlyph>
    <TTGlyph name="eacute" xMin="39" yMin="3" xMax="450" yMax="702">
      <contour>
        <pt x="110" y="203" on="1"/>
        <pt x="108" y="183" on="0"/>
        <pt x="108" y="176" on="1"/>
        <pt x="108" y="116" on="0"/>
        <pt x="181" y="50" on="0"/>
        <pt x="281" y="50" on="0"/>
        <pt x="344" y="78" on="0"/>
        <pt x="358" y="94" on="1"/>
        <pt x="394" y="139" on="0"/>
        <pt x="424" y="139" on="1"/>
        <pt x="435" y="139" on="0"/>
        <pt x="450" y="133" on="1"/>
        <pt x="440" y="84" on="0"/>
        <pt x="309" y="3" on="0"/>
        <pt x="210" y="3" on="1"/>
        <pt x="140" y="3" on="0"/>
        <pt x="39" y="92" on="0"/>
        <pt x="39" y="246" on="0"/>
        <pt x="100" y="391" on="0"/>
        <pt x="215" y="494" on="0"/>
        <pt x="334" y="494" on="0"/>
        <pt x="407" y="445" on="0"/>
        <pt x="407" y="398" on="1"/>
        <pt x="407" y="311" on="0"/>
        <pt x="252" y="198" on="0"/>
        <pt x="165" y="198" on="1"/>
        <pt x="142" y="198" on="0"/>
      </contour>
      <contour>
        <pt x="186" y="236" on="1"/>
        <pt x="233" y="236" on="0"/>
        <pt x="307" y="296" on="0"/>
        <pt x="338" y="362" on="0"/>
        <pt x="338" y="416" on="0"/>
        <pt x="296" y="457" on="0"/>
        <pt x="268" y="457" on="1"/>
        <pt x="218" y="457" on="0"/>
        <pt x="133" y="319" on="0"/>
        <pt x="115" y="245" on="1"/>
        <pt x="159" y="236" on="0"/>
      </contour>
      <contour>
        <pt x="155" y="598" on="0"/>
        <pt x="290" y="683" on="0"/>
        <pt x="318" y="702" on="0"/>
        <pt x="345" y="702" on="0"/>
        <pt x="380" y="691" on="0"/>
        <pt x="380" y="683" on="1"/>
        <pt x="380" y="677" on="0"/>
        <pt x="357" y="661" on="0"/>
        <pt x="221" y="574" on="0"/>
        <pt x="187" y="548" on="1"/>
        <pt x="179" y="542" on="0"/>
        <pt x="153" y="542" on="0"/>
        <pt x="115" y="554" on="0"/>
        <pt x="115" y="562" on="1"/>
        <pt x="115" y="566" on="0"/>
        <pt x="121" y="572" on="1"/>
      </contour>
    </TTGlyph>
    <TTGlyph name="ecircumflex" xMin="39" yMin="3" xMax="450" yMax="673">
      <contour>
        <pt x="110" y="203" on="1"/>
        <pt x="108" y="183" on="0"/>
        <pt x="108" y="176" on="1"/>
        <pt x="108" y="116" on="0"/>
        <pt x="181" y="50" on="0"/>
        <pt x="281" y="50" on="0"/>
        <pt x="344" y="78" on="0"/>
        <pt x="358" y="94" on="1"/>
        <pt x="394" y="139" on="0"/>
        <pt x="424" y="139" on="1"/>
        <pt x="435" y="139" on="0"/>
        <pt x="450" y="133" on="1"/>
        <pt x="440" y="84" on="0"/>
        <pt x="309" y="3" on="0"/>
        <pt x="210" y="3" on="1"/>
        <pt x="140" y="3" on="0"/>
        <pt x="39" y="92" on="0"/>
        <pt x="39" y="246" on="0"/>
        <pt x="100" y="391" on="0"/>
        <pt x="215" y="494" on="0"/>
        <pt x="334" y="494" on="0"/>
        <pt x="407" y="445" on="0"/>
        <pt x="407" y="398" on="1"/>
        <pt x="407" y="311" on="0"/>
        <pt x="252" y="198" on="0"/>
        <pt x="165" y="198" on="1"/>
        <pt x="142" y="198" on="0"/>
      </contour>
      <contour>
        <pt x="186" y="236" on="1"/>
        <pt x="233" y="236" on="0"/>
        <pt x="307" y="296" on="0"/>
        <pt x="338" y="362" on="0"/>
        <pt x="338" y="416" on="0"/>
        <pt x="296" y="457" on="0"/>
        <pt x="268" y="457" on="1"/>
        <pt x="218" y="457" on="0"/>
        <pt x="133" y="319" on="0"/>
        <pt x="115" y="245" on="1"/>
        <pt x="159" y="236" on="0"/>
      </contour>
      <contour>
        <pt x="175" y="646" on="0"/>
        <pt x="237" y="673" on="0"/>
        <pt x="310" y="673" on="0"/>
        <pt x="357" y="650" on="0"/>
        <pt x="384" y="622" on="0"/>
        <pt x="418" y="584" on="0"/>
        <pt x="430" y="575" on="1"/>
        <pt x="433" y="572" on="0"/>
        <pt x="433" y="569" on="1"/>
        <pt x="433" y="563" on="0"/>
        <pt x="396" y="552" on="0"/>
        <pt x="358" y="552" on="0"/>
        <pt x="279" y="633" on="0"/>
        <pt x="261" y="641" on="1"/>
        <pt x="249" y="634" on="0"/>
        <pt x="199" y="588" on="0"/>
        <pt x="147" y="563" on="0"/>
        <pt x="89" y="563" on="0"/>
        <pt x="88" y="569" on="1"/>
        <pt x="90" y="573" on="1"/>
        <pt x="96" y="577" on="0"/>
      </contour>
    </TTGlyph>
    <TTGlyph name="edieresis" xMin="39" yMin="3" xMax="450" yMax="639">
      <contour>
        <pt x="110" y="203" on="1"/>
        <pt x="108" y="183" on="0"/>
        <pt x="108" y="176" on="1"/>
        <pt x="108" y="116" on="0"/>
        <pt x="181" y="50" on="0"/>
        <pt x="281" y="50" on="0"/>
        <pt x="344" y="78" on="0"/>
        <pt x="358" y="94" on="1"/>
        <pt x="394" y="139" on="0"/>
        <pt x="424" y="139" on="1"/>
        <pt x="435" y="139" on="0"/>
        <pt x="450" y="133" on="1"/>
        <pt x="440" y="84" on="0"/>
        <pt x="309" y="3" on="0"/>
        <pt x="210" y="3" on="1"/>
        <pt x="140" y="3" on="0"/>
        <pt x="39" y="92" on="0"/>
        <pt x="39" y="246" on="0"/>
        <pt x="100" y="391" on="0"/>
        <pt x="215" y="494" on="0"/>
        <pt x="334" y="494" on="0"/>
        <pt x="407" y="445" on="0"/>
        <pt x="407" y="398" on="1"/>
        <pt x="407" y="311" on="0"/>
        <pt x="252" y="198" on="0"/>
        <pt x="165" y="198" on="1"/>
        <pt x="142" y="198" on="0"/>
      </contour>
      <contour>
        <pt x="186" y="236" on="1"/>
        <pt x="233" y="236" on="0"/>
        <pt x="307" y="296" on="0"/>
        <pt x="338" y="362" on="0"/>
        <pt x="338" y="416" on="0"/>
        <pt x="296" y="457" on="0"/>
        <pt x="268" y="457" on="1"/>
        <pt x="218" y="457" on="0"/>
        <pt x="133" y="319" on="0"/>
        <pt x="115" y="245" on="1"/>
        <pt x="159" y="236" on="0"/>
      </contour>
      <contour>
        <pt x="167" y="638" on="1"/>
        <pt x="180" y="638" on="0"/>
        <pt x="216" y="621" on="0"/>
        <pt x="216" y="608" on="1"/>
        <pt x="216" y="579" on="0"/>
        <pt x="165" y="553" on="0"/>
        <pt x="91" y="553" on="0"/>
        <pt x="91" y="576" on="1"/>
        <pt x="91" y="638" on="0"/>
      </contour>
      <contour>
        <pt x="308" y="603" on="0"/>
        <pt x="357" y="639" on="0"/>
        <pt x="402" y="639" on="0"/>
        <pt x="439" y="618" on="0"/>
        <pt x="439" y="604" on="1"/>
        <pt x="439" y="579" on="0"/>
        <pt x="376" y="553" on="0"/>
        <pt x="353" y="553" on="1"/>
        <pt x="308" y="553" on="0"/>
        <pt x="308" y="575" on="1"/>
      </contour>
    </TTGlyph>
    <TTGlyph name="egrave" xMin="39" yMin="3" xMax="450" yMax="704">
      <contour>
        <pt x="110" y="203" on="1"/>
        <pt x="108" y="183" on="0"/>
        <pt x="108" y="176" on="1"/>
        <pt x="108" y="116" on="0"/>
        <pt x="181" y="50" on="0"/>
        <pt x="281" y="50" on="0"/>
        <pt x="344" y="78" on="0"/>
        <pt x="358" y="94" on="1"/>
        <pt x="394" y="139" on="0"/>
        <pt x="424" y="139" on="1"/>
        <pt x="435" y="139" on="0"/>
        <pt x="450" y="133" on="1"/>
        <pt x="440" y="84" on="0"/>
        <pt x="309" y="3" on="0"/>
        <pt x="210" y="3" on="1"/>
        <pt x="140" y="3" on="0"/>
        <pt x="39" y="92" on="0"/>
        <pt x="39" y="246" on="0"/>
        <pt x="100" y="391" on="0"/>
        <pt x="215" y="494" on="0"/>
        <pt x="334" y="494" on="0"/>
        <pt x="407" y="445" on="0"/>
        <pt x="407" y="398" on="1"/>
        <pt x="407" y="311" on="0"/>
        <pt x="252" y="198" on="0"/>
        <pt x="165" y="198" on="1"/>
        <pt x="142" y="198" on="0"/>
      </contour>
      <contour>
        <pt x="186" y="236" on="1"/>
        <pt x="233" y="236" on="0"/>
        <pt x="307" y="296" on="0"/>
        <pt x="338" y="362" on="0"/>
        <pt x="338" y="416" on="0"/>
        <pt x="296" y="457" on="0"/>
        <pt x="268" y="457" on="1"/>
        <pt x="218" y="457" on="0"/>
        <pt x="133" y="319" on="0"/>
        <pt x="115" y="245" on="1"/>
        <pt x="159" y="236" on="0"/>
      </contour>
      <contour>
        <pt x="379" y="596" on="1"/>
        <pt x="392" y="591" on="0"/>
        <pt x="392" y="582" on="1"/>
        <pt x="392" y="575" on="0"/>
        <pt x="371" y="545" on="0"/>
        <pt x="354" y="545" on="1"/>
        <pt x="348" y="545" on="0"/>
        <pt x="345" y="547" on="1"/>
        <pt x="263" y="576" on="0"/>
        <pt x="162" y="657" on="1"/>
        <pt x="155" y="663" on="0"/>
        <pt x="155" y="675" on="0"/>
        <pt x="160" y="686" on="1"/>
        <pt x="169" y="704" on="0"/>
        <pt x="194" y="704" on="1"/>
        <pt x="201" y="704" on="0"/>
        <pt x="207" y="701" on="1"/>
        <pt x="307" y="622" on="0"/>
      </contour>
    </TTGlyph>
    <TTGlyph name="eight" xMin="56" yMin="4" xMax="556" yMax="685">
      <contour>
        <pt x="336" y="685" on="1"/>
        <pt x="371" y="685" on="0"/>
        <pt x="469" y="659" on="0"/>
        <pt x="556" y="600" on="0"/>
        <pt x="556" y="531" on="0"/>
        <pt x="513" y="461" on="0"/>
        <pt x="472" y="426" on="1"/>
        <pt x="407" y="370" on="0"/>
        <pt x="309" y="309" on="1"/>
        <pt x="315" y="305" on="0"/>
        <pt x="359" y="280" on="0"/>
        <pt x="380" y="267" on="0"/>
        <pt x="424" y="240" on="0"/>
        <pt x="449" y="222" on="0"/>
        <pt x="484" y="195" on="0"/>
        <pt x="505" y="172" on="0"/>
        <pt x="516" y="159" on="1"/>
        <pt x="535" y="135" on="0"/>
        <pt x="535" y="109" on="1"/>
        <pt x="535" y="65" on="0"/>
        <pt x="389" y="4" on="0"/>
        <pt x="284" y="4" on="1"/>
        <pt x="63" y="4" on="0"/>
        <pt x="63" y="116" on="1"/>
        <pt x="63" y="160" on="0"/>
        <pt x="136" y="244" on="0"/>
        <pt x="209" y="295" on="1"/>
        <pt x="56" y="383" on="0"/>
        <pt x="56" y="556" on="0"/>
        <pt x="233" y="685" on="0"/>
      </contour>
      <contour>
        <pt x="434" y="153" on="1"/>
        <pt x="382" y="199" on="0"/>
        <pt x="284" y="253" on="1"/>
        <pt x="257" y="268" on="0"/>
        <pt x="251" y="272" on="1"/>
        <pt x="202" y="240" on="0"/>
        <pt x="137" y="158" on="0"/>
        <pt x="137" y="90" on="0"/>
        <pt x="225" y="50" on="0"/>
        <pt x="360" y="50" on="0"/>
        <pt x="465" y="78" on="0"/>
        <pt x="465" y="126" on="0"/>
      </contour>
      <contour>
        <pt x="125" y="482" on="1"/>
        <pt x="127" y="423" on="0"/>
        <pt x="172" y="388" on="1"/>
        <pt x="207" y="362" on="0"/>
        <pt x="264" y="332" on="1"/>
        <pt x="393" y="420" on="0"/>
        <pt x="431" y="455" on="1"/>
        <pt x="489" y="509" on="0"/>
        <pt x="489" y="553" on="1"/>
        <pt x="489" y="587" on="0"/>
        <pt x="359" y="633" on="0"/>
        <pt x="314" y="633" on="1"/>
        <pt x="234" y="633" on="0"/>
        <pt x="125" y="555" on="0"/>
      </contour>
    </TTGlyph>
    <TTGlyph name="ellipsis" xMin="50" yMin="-35" xMax="692" yMax="73">
      <contour>
        <pt x="92" y="-30" on="0"/>
        <pt x="50" y="-3" on="0"/>
        <pt x="50" y="35" on="0"/>
        <pt x="94" y="70" on="0"/>
        <pt x="140" y="70" on="0"/>
        <pt x="172" y="44" on="0"/>
        <pt x="172" y="5" on="0"/>
        <pt x="129" y="-30" on="0"/>
      </contour>
      <contour>
        <pt x="354" y="-35" on="0"/>
        <pt x="312" y="-8" on="0"/>
        <pt x="312" y="30" on="0"/>
        <pt x="356" y="65" on="0"/>
        <pt x="402" y="65" on="0"/>
        <pt x="434" y="39" on="0"/>
        <pt x="434" y="0" on="0"/>
        <pt x="391" y="-35" on="0"/>
      </contour>
      <contour>
        <pt x="612" y="-27" on="0"/>
        <pt x="570" y="0" on="0"/>
        <pt x="570" y="38" on="0"/>
        <pt x="614" y="73" on="0"/>
        <pt x="660" y="73" on="0"/>
        <pt x="692" y="47" on="0"/>
        <pt x="692" y="8" on="0"/>
        <pt x="649" y="-27" on="0"/>
      </contour>
    </TTGlyph>
    <TTGlyph name="emdash" xMin="67" yMin="237" xMax="704" yMax="302">
      <contour>
        <pt x="673" y="302" on="1"/>
        <pt x="704" y="302" on="0"/>
        <pt x="704" y="286" on="1"/>
        <pt x="704" y="264" on="0"/>
        <pt x="591" y="240" on="0"/>
        <pt x="444" y="237" on="0"/>
        <pt x="360" y="237" on="0"/>
        <pt x="252" y="238" on="0"/>
        <pt x="100" y="245" on="0"/>
        <pt x="95" y="245" on="1"/>
        <pt x="67" y="245" on="0"/>
        <pt x="67" y="256" on="1"/>
        <pt x="67" y="273" on="0"/>
        <pt x="104" y="290" on="1"/>
        <pt x="121" y="298" on="0"/>
        <pt x="154" y="298" on="0"/>
        <pt x="384" y="291" on="0"/>
        <pt x="492" y="291" on="0"/>
        <pt x="616" y="292" on="0"/>
        <pt x="667" y="302" on="0"/>
      </contour>
    </TTGlyph>
    <TTGlyph name="endash" xMin="64" yMin="237" xMax="594" yMax="302">
      <contour>
        <pt x="563" y="302" on="1"/>
        <pt x="594" y="302" on="0"/>
        <pt x="594" y="286" on="1"/>
        <pt x="594" y="264" on="0"/>
        <pt x="502" y="240" on="0"/>
        <pt x="382" y="237" on="0"/>
        <pt x="314" y="237" on="0"/>
        <pt x="226" y="238" on="0"/>
        <pt x="98" y="245" on="0"/>
        <pt x="92" y="245" on="1"/>
        <pt x="64" y="245" on="0"/>
        <pt x="64" y="256" on="1"/>
        <pt x="64" y="273" on="0"/>
        <pt x="101" y="290" on="1"/>
        <pt x="118" y="298" on="0"/>
        <pt x="156" y="298" on="0"/>
        <pt x="331" y="291" on="0"/>
        <pt x="412" y="291" on="0"/>
        <pt x="506" y="292" on="0"/>
        <pt x="557" y="302" on="0"/>
      </contour>
    </TTGlyph>
    <TTGlyph name="equal" xMin="78" yMin="176" xMax="528" yMax="422">
      <contour>
        <pt x="126" y="339" on="1"/>
        <pt x="121" y="338" on="0"/>
        <pt x="115" y="338" on="1"/>
        <pt x="94" y="343" on="1"/>
        <pt x="78" y="351" on="0"/>
        <pt x="78" y="368" on="1"/>
        <pt x="78" y="395" on="0"/>
        <pt x="213" y="415" on="0"/>
        <pt x="420" y="418" on="0"/>
        <pt x="449" y="422" on="1"/>
        <pt x="484" y="422" on="0"/>
        <pt x="484" y="378" on="0"/>
        <pt x="455" y="364" on="1"/>
        <pt x="431" y="352" on="0"/>
        <pt x="182" y="351" on="0"/>
      </contour>
      <contour>
        <pt x="148" y="239" on="1"/>
        <pt x="503" y="235" on="1"/>
        <pt x="528" y="235" on="0"/>
        <pt x="528" y="221" on="1"/>
        <pt x="528" y="203" on="0"/>
        <pt x="499" y="187" on="1"/>
        <pt x="485" y="179" on="0"/>
        <pt x="474" y="179" on="1"/>
        <pt x="290" y="176" on="1"/>
        <pt x="95" y="176" on="0"/>
        <pt x="95" y="199" on="1"/>
        <pt x="95" y="212" on="0"/>
        <pt x="130" y="239" on="0"/>
      </contour>
    </TTGlyph>
    <TTGlyph name="exclam" xMin="52" yMin="-30" xMax="174" yMax="706">
      <contour>
        <pt x="90" y="679" on="1"/>
        <pt x="91" y="691" on="0"/>
        <pt x="117" y="706" on="0"/>
        <pt x="133" y="706" on="1"/>
        <pt x="160" y="706" on="0"/>
        <pt x="160" y="686" on="1"/>
        <pt x="158" y="391" on="0"/>
        <pt x="145" y="243" on="1"/>
        <pt x="144" y="232" on="0"/>
        <pt x="115" y="217" on="0"/>
        <pt x="101" y="217" on="1"/>
        <pt x="76" y="217" on="0"/>
        <pt x="76" y="237" on="1"/>
        <pt x="90" y="384" on="0"/>
      </contour>
      <contour>
        <pt x="98" y="69" on="1"/>
        <pt x="109" y="71" on="0"/>
        <pt x="140" y="71" on="0"/>
        <pt x="174" y="47" on="0"/>
        <pt x="174" y="5" on="0"/>
        <pt x="131" y="-30" on="0"/>
        <pt x="94" y="-30" on="0"/>
        <pt x="52" y="-3" on="0"/>
        <pt x="52" y="12" on="1"/>
        <pt x="52" y="60" on="0"/>
      </contour>
    </TTGlyph>
    <TTGlyph name="exclamdown" xMin="48" yMin="-241" xMax="170" yMax="495">
      <contour>
        <pt x="132" y="-214" on="1"/>
        <pt x="131" y="-226" on="0"/>
        <pt x="105" y="-241" on="0"/>
        <pt x="89" y="-241" on="1"/>
        <pt x="62" y="-241" on="0"/>
        <pt x="62" y="-221" on="1"/>
        <pt x="64" y="74" on="0"/>
        <pt x="77" y="222" on="1"/>
        <pt x="78" y="233" on="0"/>
        <pt x="107" y="248" on="0"/>
        <pt x="121" y="248" on="1"/>
        <pt x="146" y="248" on="0"/>
        <pt x="146" y="228" on="1"/>
        <pt x="132" y="81" on="0"/>
      </contour>
      <contour>
        <pt x="124" y="396" on="1"/>
        <pt x="113" y="394" on="0"/>
        <pt x="82" y="394" on="0"/>
        <pt x="48" y="418" on="0"/>
        <pt x="48" y="460" on="0"/>
        <pt x="91" y="495" on="0"/>
        <pt x="128" y="495" on="0"/>
        <pt x="170" y="468" on="0"/>
        <pt x="170" y="453" on="1"/>
        <pt x="170" y="405" on="0"/>
      </contour>
    </TTGlyph>
    <TTGlyph name="f" xMin="2" yMin="-7" xMax="373" yMax="773">
      <contour>
        <pt x="134" y="-7" on="1"/>
        <pt x="116" y="-7" on="0"/>
        <pt x="116" y="296" on="1"/>
        <pt x="116" y="424" on="0"/>
        <pt x="115" y="451" on="1"/>
        <pt x="95" y="451" on="1"/>
        <pt x="81" y="451" on="0"/>
        <pt x="65" y="452" on="0"/>
        <pt x="40" y="453" on="0"/>
        <pt x="25" y="457" on="0"/>
        <pt x="17" y="460" on="1"/>
        <pt x="2" y="466" on="0"/>
        <pt x="2" y="481" on="1"/>
        <pt x="2" y="500" on="0"/>
        <pt x="64" y="500" on="1"/>
        <pt x="91" y="500" on="0"/>
        <pt x="113" y="498" on="1"/>
        <pt x="114" y="518" on="0"/>
        <pt x="115" y="581" on="0"/>
        <pt x="117" y="616" on="0"/>
        <pt x="120" y="666" on="0"/>
        <pt x="127" y="694" on="0"/>
        <pt x="139" y="729" on="0"/>
        <pt x="159" y="747" on="0"/>
        <pt x="172" y="756" on="1"/>
        <pt x="195" y="773" on="0"/>
        <pt x="302" y="773" on="0"/>
        <pt x="353" y="720" on="0"/>
        <pt x="373" y="657" on="1"/>
        <pt x="358" y="639" on="0"/>
        <pt x="338" y="639" on="1"/>
        <pt x="331" y="639" on="0"/>
        <pt x="324" y="641" on="1"/>
        <pt x="306" y="689" on="0"/>
        <pt x="277" y="723" on="0"/>
        <pt x="227" y="723" on="0"/>
        <pt x="202" y="705" on="0"/>
        <pt x="195" y="691" on="1"/>
        <pt x="180" y="661" on="0"/>
        <pt x="180" y="546" on="1"/>
        <pt x="180" y="541" on="0"/>
        <pt x="180" y="515" on="0"/>
        <pt x="180" y="504" on="1"/>
        <pt x="265" y="512" on="1"/>
        <pt x="315" y="512" on="0"/>
        <pt x="315" y="489" on="1"/>
        <pt x="315" y="474" on="0"/>
        <pt x="267" y="464" on="0"/>
        <pt x="194" y="462" on="0"/>
        <pt x="180" y="457" on="1"/>
        <pt x="178" y="429" on="0"/>
        <pt x="178" y="338" on="0"/>
        <pt x="188" y="141" on="0"/>
        <pt x="188" y="37" on="0"/>
        <pt x="167" y="-7" on="0"/>
      </contour>
    </TTGlyph>
    <TTGlyph name="fi" xMin="2" yMin="-7" xMax="446" yMax="773">
      <contour>
        <pt x="134" y="-7" on="1"/>
        <pt x="116" y="-7" on="0"/>
        <pt x="116" y="298" on="1"/>
        <pt x="116" y="425" on="0"/>
        <pt x="115" y="451" on="1"/>
        <pt x="95" y="451" on="1"/>
        <pt x="81" y="451" on="0"/>
        <pt x="65" y="452" on="0"/>
        <pt x="40" y="453" on="0"/>
        <pt x="25" y="457" on="0"/>
        <pt x="17" y="460" on="1"/>
        <pt x="2" y="466" on="0"/>
        <pt x="2" y="481" on="1"/>
        <pt x="2" y="500" on="0"/>
        <pt x="64" y="500" on="1"/>
        <pt x="91" y="500" on="0"/>
        <pt x="113" y="498" on="1"/>
        <pt x="119" y="666" on="0"/>
        <pt x="166" y="724" on="1"/>
        <pt x="207" y="773" on="0"/>
        <pt x="290" y="773" on="1"/>
        <pt x="399" y="773" on="0"/>
        <pt x="435" y="657" on="1"/>
        <pt x="420" y="639" on="0"/>
        <pt x="391" y="639" on="0"/>
        <pt x="386" y="641" on="1"/>
        <pt x="356" y="723" on="0"/>
        <pt x="289" y="723" on="1"/>
        <pt x="237" y="723" on="0"/>
        <pt x="181" y="607" on="0"/>
        <pt x="180" y="504" on="1"/>
        <pt x="396" y="512" on="1"/>
        <pt x="445" y="512" on="0"/>
        <pt x="446" y="488" on="1"/>
        <pt x="441" y="417" on="0"/>
        <pt x="441" y="305" on="1"/>
        <pt x="443" y="57" on="1"/>
        <pt x="443" y="29" on="0"/>
        <pt x="415" y="1" on="0"/>
        <pt x="393" y="1" on="0"/>
        <pt x="381" y="7" on="1"/>
        <pt x="374" y="279" on="1"/>
        <pt x="374" y="307" on="0"/>
        <pt x="377" y="404" on="0"/>
        <pt x="390" y="468" on="1"/>
        <pt x="362" y="465" on="0"/>
        <pt x="314" y="464" on="1"/>
        <pt x="194" y="462" on="0"/>
        <pt x="180" y="457" on="1"/>
        <pt x="178" y="430" on="0"/>
        <pt x="178" y="340" on="0"/>
        <pt x="188" y="141" on="0"/>
        <pt x="188" y="37" on="0"/>
        <pt x="167" y="-7" on="0"/>
      </contour>
    </TTGlyph>
    <TTGlyph name="five" xMin="37" yMin="2" xMax="538" yMax="652">
      <contour>
        <pt x="455" y="599" on="1"/>
        <pt x="228" y="603" on="1"/>
        <pt x="195" y="603" on="0"/>
        <pt x="173" y="602" on="1"/>
        <pt x="183" y="558" on="0"/>
        <pt x="183" y="443" on="0"/>
        <pt x="158" y="371" on="1"/>
        <pt x="228" y="378" on="0"/>
        <pt x="336" y="380" on="0"/>
        <pt x="412" y="365" on="0"/>
        <pt x="489" y="332" on="0"/>
        <pt x="538" y="268" on="0"/>
        <pt x="538" y="225" on="1"/>
        <pt x="538" y="137" on="0"/>
        <pt x="376" y="2" on="0"/>
        <pt x="244" y="2" on="1"/>
        <pt x="164" y="2" on="0"/>
        <pt x="51" y="68" on="0"/>
        <pt x="37" y="134" on="1"/>
        <pt x="38" y="145" on="0"/>
        <pt x="71" y="163" on="0"/>
        <pt x="78" y="163" on="1"/>
        <pt x="101" y="163" on="0"/>
        <pt x="105" y="152" on="1"/>
        <pt x="116" y="103" on="0"/>
        <pt x="214" y="50" on="0"/>
        <pt x="277" y="50" on="1"/>
        <pt x="370" y="50" on="0"/>
        <pt x="477" y="156" on="0"/>
        <pt x="477" y="227" on="1"/>
        <pt x="477" y="324" on="0"/>
        <pt x="238" y="324" on="1"/>
        <pt x="230" y="324" on="0"/>
        <pt x="222" y="324" on="1"/>
        <pt x="110" y="319" on="1"/>
        <pt x="95" y="319" on="0"/>
        <pt x="76" y="333" on="0"/>
        <pt x="87" y="363" on="0"/>
        <pt x="108" y="522" on="0"/>
        <pt x="108" y="568" on="1"/>
        <pt x="108" y="568" on="0"/>
        <pt x="106" y="614" on="1"/>
        <pt x="106" y="641" on="0"/>
        <pt x="133" y="652" on="0"/>
        <pt x="187" y="652" on="1"/>
        <pt x="250" y="652" on="1"/>
        <pt x="336" y="652" on="0"/>
        <pt x="452" y="648" on="1"/>
        <pt x="479" y="648" on="0"/>
        <pt x="495" y="623" on="0"/>
        <pt x="474" y="599" on="0"/>
      </contour>
    </TTGlyph>
    <TTGlyph name="fl" xMin="2" yMin="-7" xMax="551" yMax="773">
      <contour>
        <pt x="134" y="-7" on="1"/>
        <pt x="116" y="-7" on="0"/>
        <pt x="116" y="296" on="1"/>
        <pt x="116" y="424" on="0"/>
        <pt x="115" y="451" on="1"/>
        <pt x="95" y="451" on="1"/>
        <pt x="81" y="451" on="0"/>
        <pt x="65" y="452" on="0"/>
        <pt x="40" y="453" on="0"/>
        <pt x="25" y="457" on="0"/>
        <pt x="17" y="460" on="1"/>
        <pt x="2" y="466" on="0"/>
        <pt x="2" y="481" on="1"/>
        <pt x="2" y="500" on="0"/>
        <pt x="64" y="500" on="1"/>
        <pt x="91" y="500" on="0"/>
        <pt x="113" y="498" on="1"/>
        <pt x="118" y="638" on="0"/>
        <pt x="125" y="670" on="1"/>
        <pt x="139" y="742" on="0"/>
        <pt x="194" y="762" on="1"/>
        <pt x="224" y="773" on="0"/>
        <pt x="328" y="773" on="0"/>
        <pt x="369" y="738" on="1"/>
        <pt x="380" y="749" on="0"/>
        <pt x="412" y="749" on="1"/>
        <pt x="417" y="749" on="0"/>
        <pt x="422" y="749" on="1"/>
        <pt x="447" y="724" on="0"/>
        <pt x="447" y="606" on="1"/>
        <pt x="447" y="540" on="0"/>
        <pt x="440" y="453" on="1"/>
        <pt x="428" y="298" on="0"/>
        <pt x="428" y="229" on="1"/>
        <pt x="428" y="44" on="0"/>
        <pt x="499" y="44" on="1"/>
        <pt x="536" y="51" on="1"/>
        <pt x="545" y="51" on="0"/>
        <pt x="551" y="43" on="1"/>
        <pt x="548" y="7" on="0"/>
        <pt x="428" y="7" on="0"/>
        <pt x="366" y="97" on="0"/>
        <pt x="364" y="174" on="1"/>
        <pt x="363" y="194" on="0"/>
        <pt x="363" y="233" on="1"/>
        <pt x="363" y="282" on="0"/>
        <pt x="390" y="565" on="0"/>
        <pt x="390" y="629" on="0"/>
        <pt x="389" y="645" on="1"/>
        <pt x="373" y="684" on="0"/>
        <pt x="305" y="723" on="0"/>
        <pt x="236" y="723" on="0"/>
        <pt x="195" y="688" on="0"/>
        <pt x="188" y="658" on="1"/>
        <pt x="178" y="613" on="0"/>
        <pt x="178" y="531" on="0"/>
        <pt x="180" y="504" on="1"/>
        <pt x="265" y="512" on="1"/>
        <pt x="315" y="512" on="0"/>
        <pt x="315" y="489" on="1"/>
        <pt x="315" y="474" on="0"/>
        <pt x="267" y="464" on="0"/>
        <pt x="194" y="462" on="0"/>
        <pt x="180" y="457" on="1"/>
        <pt x="178" y="429" on="0"/>
        <pt x="178" y="338" on="0"/>
        <pt x="188" y="141" on="0"/>
        <pt x="188" y="37" on="0"/>
        <pt x="167" y="-7" on="0"/>
      </contour>
    </TTGlyph>
    <TTGlyph name="four" xMin="25" yMin="4" xMax="513" yMax="661">
      <contour>
        <pt x="330" y="407" on="1"/>
        <pt x="338" y="632" on="1"/>
        <pt x="338" y="642" on="0"/>
        <pt x="372" y="656" on="0"/>
        <pt x="407" y="656" on="0"/>
        <pt x="407" y="648" on="1"/>
        <pt x="407" y="629" on="0"/>
        <pt x="398" y="445" on="0"/>
        <pt x="398" y="344" on="0"/>
        <pt x="403" y="308" on="1"/>
        <pt x="404" y="308" on="0"/>
        <pt x="438" y="311" on="0"/>
        <pt x="464" y="312" on="0"/>
        <pt x="480" y="311" on="1"/>
        <pt x="513" y="309" on="0"/>
        <pt x="513" y="292" on="1"/>
        <pt x="513" y="268" on="0"/>
        <pt x="486" y="264" on="1"/>
        <pt x="460" y="259" on="0"/>
        <pt x="412" y="260" on="0"/>
        <pt x="406" y="260" on="1"/>
        <pt x="413" y="108" on="0"/>
        <pt x="413" y="70" on="0"/>
        <pt x="414" y="45" on="0"/>
        <pt x="413" y="37" on="0"/>
        <pt x="408" y="18" on="0"/>
        <pt x="403" y="14" on="1"/>
        <pt x="388" y="4" on="0"/>
        <pt x="345" y="4" on="0"/>
        <pt x="345" y="12" on="1"/>
        <pt x="345" y="121" on="0"/>
        <pt x="337" y="259" on="1"/>
        <pt x="332" y="261" on="0"/>
        <pt x="302" y="261" on="1"/>
        <pt x="149" y="258" on="1"/>
        <pt x="25" y="258" on="0"/>
        <pt x="25" y="284" on="1"/>
        <pt x="25" y="286" on="0"/>
        <pt x="26" y="289" on="1"/>
        <pt x="74" y="431" on="0"/>
        <pt x="109" y="602" on="0"/>
        <pt x="129" y="632" on="1"/>
        <pt x="149" y="660" on="0"/>
        <pt x="174" y="661" on="1"/>
        <pt x="193" y="661" on="0"/>
        <pt x="207" y="647" on="0"/>
        <pt x="203" y="638" on="1"/>
        <pt x="171" y="571" on="0"/>
        <pt x="109" y="331" on="0"/>
        <pt x="102" y="309" on="1"/>
        <pt x="335" y="307" on="1"/>
        <pt x="330" y="369" on="0"/>
      </contour>
    </TTGlyph>
    <TTGlyph name="g" xMin="11" yMin="-215" xMax="413" yMax="500">
      <contour>
        <pt x="234" y="500" on="1"/>
        <pt x="325" y="500" on="0"/>
        <pt x="360" y="426" on="1"/>
        <pt x="379" y="387" on="0"/>
        <pt x="403" y="317" on="0"/>
        <pt x="407" y="256" on="1"/>
        <pt x="413" y="163" on="0"/>
        <pt x="413" y="-74" on="0"/>
        <pt x="300" y="-215" on="0"/>
        <pt x="83" y="-215" on="0"/>
        <pt x="11" y="-145" on="1"/>
        <pt x="31" y="-125" on="0"/>
        <pt x="78" y="-125" on="0"/>
        <pt x="161" y="-166" on="0"/>
        <pt x="255" y="-166" on="0"/>
        <pt x="317" y="-123" on="0"/>
        <pt x="332" y="-84" on="1"/>
        <pt x="357" y="-15" on="0"/>
        <pt x="357" y="86" on="1"/>
        <pt x="357" y="101" on="0"/>
        <pt x="354" y="197" on="1"/>
        <pt x="327" y="115" on="0"/>
        <pt x="227" y="8" on="0"/>
        <pt x="101" y="8" on="0"/>
        <pt x="42" y="121" on="0"/>
        <pt x="42" y="265" on="0"/>
        <pt x="82" y="402" on="0"/>
        <pt x="172" y="500" on="0"/>
      </contour>
      <contour>
        <pt x="115" y="304" on="0"/>
        <pt x="103" y="226" on="0"/>
        <pt x="103" y="147" on="0"/>
        <pt x="136" y="51" on="0"/>
        <pt x="168" y="51" on="1"/>
        <pt x="231" y="51" on="0"/>
        <pt x="329" y="240" on="0"/>
        <pt x="329" y="336" on="1"/>
        <pt x="329" y="369" on="0"/>
        <pt x="268" y="452" on="0"/>
        <pt x="222" y="452" on="1"/>
        <pt x="190" y="452" on="0"/>
        <pt x="141" y="392" on="0"/>
      </contour>
    </TTGlyph>
    <TTGlyph name="germandbls" xMin="56" yMin="-105" xMax="548" yMax="721">
      <contour>
        <pt x="188" y="36" on="1"/>
        <pt x="188" y="75" on="0"/>
        <pt x="278" y="64" on="1"/>
        <pt x="295" y="62" on="0"/>
        <pt x="301" y="62" on="1"/>
        <pt x="471" y="62" on="0"/>
        <pt x="471" y="181" on="1"/>
        <pt x="471" y="292" on="0"/>
        <pt x="305" y="302" on="1"/>
        <pt x="278" y="303" on="0"/>
        <pt x="272" y="324" on="1"/>
        <pt x="270" y="329" on="0"/>
        <pt x="270" y="334" on="1"/>
        <pt x="270" y="349" on="0"/>
        <pt x="288" y="360" on="1"/>
        <pt x="338" y="390" on="0"/>
        <pt x="420" y="495" on="0"/>
        <pt x="420" y="599" on="0"/>
        <pt x="352" y="654" on="0"/>
        <pt x="306" y="654" on="1"/>
        <pt x="241" y="654" on="0"/>
        <pt x="159" y="549" on="0"/>
        <pt x="144" y="401" on="0"/>
        <pt x="131" y="-5" on="0"/>
        <pt x="125" y="-76" on="1"/>
        <pt x="122" y="-105" on="0"/>
        <pt x="93" y="-105" on="1"/>
        <pt x="74" y="-100" on="1"/>
        <pt x="57" y="-90" on="0"/>
        <pt x="56" y="-70" on="1"/>
        <pt x="61" y="36" on="0"/>
        <pt x="75" y="426" on="1"/>
        <pt x="75" y="569" on="0"/>
        <pt x="152" y="657" on="1"/>
        <pt x="209" y="721" on="0"/>
        <pt x="389" y="721" on="0"/>
        <pt x="481" y="625" on="0"/>
        <pt x="481" y="561" on="1"/>
        <pt x="481" y="431" on="0"/>
        <pt x="386" y="346" on="1"/>
        <pt x="456" y="325" on="0"/>
        <pt x="548" y="240" on="0"/>
        <pt x="548" y="177" on="1"/>
        <pt x="548" y="110" on="0"/>
        <pt x="508" y="66" on="1"/>
        <pt x="465" y="17" on="0"/>
        <pt x="359" y="4" on="1"/>
        <pt x="318" y="-1" on="0"/>
        <pt x="235" y="-1" on="0"/>
        <pt x="209" y="3" on="0"/>
        <pt x="188" y="20" on="0"/>
      </contour>
    </TTGlyph>
</ttFont>
